<svg id="OBJECTS" xmlns="http://www.w3.org/2000/svg" viewBox="0 0 500 500"><defs><style>.cls-1{fill:#bbe2f2;}.cls-2{fill:#1c31b5;}.cls-3{fill:#009cf8;}.cls-4{fill:#006bde;}.cls-5{fill:#18315b;}.cls-6{fill:#000b29;}.cls-7{fill:#f97853;}.cls-8{fill:#ea5143;}.cls-9{fill:#ffa681;}.cls-10{fill:#fff;}.cls-11{fill:#264cbe;}.cls-12{fill:#e3e3e3;}.cls-13{fill:#1d567e;}</style></defs><path class="cls-1" d="M219.39,163.38c-15.63-56.69-86-74.95-126.41-32.58-.58.61-1.16,1.22-1.74,1.85-57.85,62.9-30.52,217.89,90.23,257.17s246.34-32.45,253.4-96.57S386.22,209,299.77,226.9C250.92,237,229.12,198.67,219.39,163.38Z"/><path class="cls-1" d="M319.83,173.08c-16.15,2.63-20.63,16.94-8.15,27.1,4.12,3.35,10,6.14,18.4,7.53,31.95,5.3,48.91-8.83,36.1-27.16C358.27,169.23,335.85,170.47,319.83,173.08Z"/><path class="cls-1" d="M62.24,287.62c-10.05-12.92-24.76-10-27.7,5.81-1,5.23-.6,11.73,2.19,19.76,10.65,30.6,31.18,38.71,41.14,18.69C84,319.53,72.19,300.43,62.24,287.62Z"/><path class="cls-1" d="M446.26,300.7c-1.49,7.79,4.94,13.31,12.23,10.31a15.48,15.48,0,0,0,7-6.27c8.24-12.82,4.07-23.81-7.4-22.68C451,282.76,447.73,293,446.26,300.7Z"/><path class="cls-1" d="M405.42,218.48c7.76,1.62,13.39-4.72,10.51-12.06a15.37,15.37,0,0,0-6.15-7.1c-12.67-8.46-23.73-4.47-22.8,7C387.56,213.42,397.72,216.87,405.42,218.48Z"/><path class="cls-1" d="M216.69,135.11c6.15,5,14.06,2,14.88-5.87a15.37,15.37,0,0,0-2.18-9.14c-7.36-13.33-19-14.89-23.47-4.26C203.17,122.4,210.6,130.14,216.69,135.11Z"/><path class="cls-2" d="M465.51,339.67c12.33-12.39,21.72-26.4,12.38-28.58s-25.05,22.22-27.79,44.44l-2.74,7.33c2.28-16.15-3.26-35.83-11.36-36.64s-3.18,12,3.22,22.87c4.87,8.31,6.15,14.87,6.47,18.26L432.76,402c3.53-25.59-5.24-56.65-18.06-57.93s-5.05,19,5.1,36.3c7.67,13.09,9.74,23.44,10.26,28.85l-2.58,6.91c1.13.63,2.26,1.26,3.4,1.88l15.38-41.21a49.62,49.62,0,0,1,13.9-7.07c12-4.05,24-10.5,17.42-15.17-5.74-4.05-19.23,3.75-28.52,14.75l5.32-14.25C456.78,350.92,460.19,345,465.51,339.67Z"/><path class="cls-2" d="M76.87,178c1.6-15,.36-29.44-7.09-25.87s-4.85,28.43,5.29,44.82l2.12,6.4C70,191.26,55.68,181,49.8,184.85s4.31,9.74,14.49,13.63c7.75,3,12.15,6.66,14.19,8.77l10,30.23c-11.43-19.09-34-35.22-43.36-29.17s6.84,15.47,23,21.63c12.2,4.65,19.17,10.49,22.44,13.84l2,6,3.3-.56L84,213.28A43.14,43.14,0,0,1,89.47,201c5.87-9.18,10.48-20,3.53-19.58-6,.37-10.9,12.88-11.2,25.28L77.69,194.3A61.85,61.85,0,0,1,76.87,178Z"/><path class="cls-3" d="M382.28,380.85c.16.85.34,1.77.55,2.75h0c2.22,10.32,7.67,27.21,19.94,30.54,0,0-6.68-34.81,17.11-43.87s21.16-17.7,19.8-33.06-6.61-18.29,9.89-32.68,13.35-35.83,13.35-35.83-15.62,24.48-32.31,25-19.6,14.82-18.89,25.41S398.26,331,390.59,337.09s-9.11,38.41-9.11,38.41S381.69,377.61,382.28,380.85Z"/><path class="cls-4" d="M382.28,380.85c.16.85.34,1.77.55,2.75a53.29,53.29,0,0,1,6.37-12.86c5.34-7.91,12.86-14.4,19.61-16.95,10.77-4.06,16-14.61,17-34.23.59-11.39,12.5-18.11,12.63-18.18a.73.73,0,0,0,.28-1,.72.72,0,0,0-1-.28c-.52.28-12.74,7.17-13.37,19.36-1,19-6,29.13-16.1,33-7.14,2.68-14.73,9.22-20.3,17.49A54.73,54.73,0,0,0,382.28,380.85Z"/><path class="cls-4" d="M119,414h16.71c-9-1.5-31.42-11.11-33.42-30.39C99.72,359.15,91,359.46,76.37,356.9s-18.68,1.62-28-17.34-30.06-21.34-30.06-21.34,18.92,20.64,15.3,36.32,8.93,21.95,19,23.93,7.64,15.47,11.46,24.14c1.74,4,8.87,8.06,16.11,11.35Z"/><path class="cls-2" d="M82.75,389.92c.73,7.31,4.93,16,11.25,23.26q.33.39.69.78h1.9c-.55-.58-1.06-1.14-1.54-1.69-6-6.94-10.22-15.56-10.92-22.49-1.1-11-9.63-18.55-27.65-24.38C46,362,42.71,349.25,42.68,349.12a.69.69,0,0,0-.84-.51.7.7,0,0,0-.51.84c.14.56,3.51,13.65,14.72,17.27C73.47,372.36,81.71,379.51,82.75,389.92Z"/><path class="cls-3" d="M128,368.64c-.35,1.19-.75,2.48-1.2,3.85h0C122,386.88,112.26,411.1,94.26,414c0,0,14.25-49.59-18.3-66.18S48.5,319.29,52.8,297.58s12.25-25.08-9.09-48.15-13.53-53.16-13.53-53.16S48.7,233.59,72.42,237s25.69,24.15,23,39.15,17.39,18.89,27.38,28.83,7.09,56.2,7.09,56.2S129.32,364.11,128,368.64Z"/><path class="cls-4" d="M128,368.64c-.35,1.19-.75,2.48-1.2,3.85a76,76,0,0,0-7.11-19.34c-6.4-12.1-16.12-22.52-25.37-27.19-14.73-7.44-20.61-23.31-19.05-51.45.91-16.33-15-27.76-15.21-27.87a1,1,0,0,1,1.19-1.7c.7.49,17.07,12.19,16.1,29.68-1.52,27.21,4,42.47,17.9,49.49,9.76,4.93,19.58,15.43,26.27,28.07A78.42,78.42,0,0,1,128,368.64Z"/><path class="cls-5" d="M140.88,402.3c.06,3.77.13,7.69.21,11.66h36.36c.07-4.35.12-8.51.16-12.41.11-10.59.12-19.29.11-24.71,0-3.84,0-6,0-6l-37.07-.39s0,3.2,0,8.44C140.68,384.7,140.74,393,140.88,402.3Z"/><path class="cls-6" d="M140.66,378.87c0,5.83.09,14.16.22,23.43a182.31,182.31,0,0,0,36.73-.75c.11-10.59.12-19.29.11-24.71Z"/><path class="cls-5" d="M95.06,393.94c0,5.92.11,12.71.23,20h36.36c.09-4.28.16-8.5.22-12.54.13-8.67.19-16.47.23-22.08s0-8.91,0-8.91L95,370.82s0,3.94,0,10.56C95,384.87,95,389.12,95.06,393.94Z"/><path class="cls-6" d="M95,381.38c0,3.49,0,7.74,0,12.56a228.23,228.23,0,0,0,36.81,7.48c.13-8.67.19-16.47.23-22.08Z"/><path class="cls-5" d="M156,175.36s5.84-5.63,5.82-11.19-3.8-3.91-5.82-9.09-8.05-8.34-11.36-7.7-10.27-12.25-19.73-10-8.64,14.4-12.71,16.16-2.94,9-.79,10.61,3.05,8.24,4.26,8.1S156,175.36,156,175.36Z"/><path class="cls-7" d="M116.64,175.22s-3.67-4.89-6.4-.84,1.13,16,7.81,13.09Z"/><path class="cls-8" d="M116.59,183.77a.56.56,0,0,1-.54-.41c-1-3.69-4.86-5.19-4.9-5.2a.57.57,0,0,1,.4-1.06c.18.07,4.39,1.7,5.59,6a.57.57,0,0,1-.39.7A.44.44,0,0,1,116.59,183.77Z"/><path class="cls-8" d="M112.73,181.91a.57.57,0,0,1-.47-.87,5.22,5.22,0,0,1,2.12-1.71.57.57,0,0,1,.75.29.56.56,0,0,1-.29.74,4.15,4.15,0,0,0-1.63,1.29A.56.56,0,0,1,112.73,181.91Z"/><path class="cls-7" d="M154.5,175.22s3.67-4.89,6.4-.84-1.13,16-7.81,13.09Z"/><path class="cls-8" d="M154.55,183.77a.56.56,0,0,0,.54-.41c1-3.69,4.86-5.19,4.9-5.2a.57.57,0,0,0-.4-1.06c-.18.07-4.39,1.7-5.59,6a.57.57,0,0,0,.39.7A.44.44,0,0,0,154.55,183.77Z"/><path class="cls-8" d="M158.41,181.91a.57.57,0,0,0,.47-.87,5.22,5.22,0,0,0-2.12-1.71.56.56,0,0,0-.46,1,4.05,4.05,0,0,1,1.63,1.29A.56.56,0,0,0,158.41,181.91Z"/><path class="cls-9" d="M144.61,197.62v11.89s-3.54,6.06-8.34,6.47-9.05-5.21-9.05-5.21V198.45Z"/><path class="cls-7" d="M144.61,197.62v5.27c-3.22,3.58-8.93,4.47-17.39,3.22v-7.66Z"/><path class="cls-9" d="M157.16,167.06a117.63,117.63,0,0,1-1.55,15c-.22,1.15-.47,2.24-.74,3.21-2.51,8.77-8.77,23.8-26.3,17.54-7.74-2.77-11.33-11.39-12.93-20.16a84.39,84.39,0,0,1-1.17-16.28,12.42,12.42,0,0,1,6.3-10.57c10.35-5.86,21.27-3.67,28.46-.91A12.37,12.37,0,0,1,157.16,167.06Z"/><path class="cls-5" d="M115.64,182.68s1.7,10.13,3.31,13.83,6,4.39,7.65,7.51c2.35,4.45,5.93,8,11.83,5.83,4.9-1.79,4.68-4.3,7.43-6.24,4.7-3.32,7-7,7.23-10s2.52-11.51,2.52-11.51l-2.52-.18a66.07,66.07,0,0,1-3.56,6.27c-2.13-4.67-12.37-1.27-12.37-1.27l-1.95.63-2-.63s-10.36-3.25-12.41,1.64a18.69,18.69,0,0,1-2.74-6.36Zm19.57,6.44c11.74-2,9.64,4.86,9.57,5.11h0a11.13,11.13,0,0,1-2.41,1.83c-4.55,2.46-5,2.09-6.84,2.17a13.44,13.44,0,0,1-6.9-1.88,19.44,19.44,0,0,1-3.29-2.5S123.48,187.54,135.21,189.12Z"/><path class="cls-5" d="M128.15,176.78c0,1.27-.66,2.3-1.46,2.3s-1.47-1-1.47-2.3.66-2.3,1.47-2.3S128.15,175.51,128.15,176.78Z"/><path class="cls-5" d="M145.53,176.78c0,1.27-.66,2.3-1.47,2.3s-1.46-1-1.46-2.3.66-2.3,1.46-2.3S145.53,175.51,145.53,176.78Z"/><path class="cls-5" d="M149.82,169.21s-6-2.39-10.69-.38l.46,2.58s6.83-.57,10.27.82A4.54,4.54,0,0,0,149.82,169.21Z"/><path class="cls-5" d="M121.1,169.22s6.08-2.41,10.77-.38l-.47,2.6s-6.88-.58-10.34.83A4.5,4.5,0,0,1,121.1,169.22Z"/><path class="cls-7" d="M135.77,186.41a6,6,0,0,0,2-.43.56.56,0,0,0,.31-.73.57.57,0,0,0-.74-.31c-.51.2-1.73.53-2.26.21a.62.62,0,0,1-.28-.53c-.2-2,.34-8.58.34-8.65a.56.56,0,0,0-.52-.61.55.55,0,0,0-.6.52,80.25,80.25,0,0,0-.34,8.86,1.73,1.73,0,0,0,.82,1.38A2.33,2.33,0,0,0,135.77,186.41Z"/><path class="cls-10" d="M128.56,190.25c.43,2.16,1.86,6.13,6.66,6.13s6.17-3.63,6.63-6.13Z"/><path class="cls-5" d="M157.16,167.06a117.63,117.63,0,0,1-1.55,15l-2.52-.18s.61-3.9.89-6.44.76-7.3-1.41-7.89-.89-6-3.9-8.37-9.71-4.43-14.15-1.69S125,158.74,123,159.21s-4.83,3.3-4.08,5.94-1.5,4.24-2.05,7,1.2,10.07,1.2,10.07l-2.41.49a84.39,84.39,0,0,1-1.17-16.28,12.42,12.42,0,0,1,6.3-10.57c10.35-5.86,21.27-3.67,28.46-.91A12.37,12.37,0,0,1,157.16,167.06Z"/><path class="cls-4" d="M185.39,388.7a200.49,200.49,0,0,1-34.32,5.63l-1.55.11c-1.57.11-3.14.2-4.72.26a193.63,193.63,0,0,1-23.35-.39q-2.36-.18-4.71-.42l-1.51-.16a205.33,205.33,0,0,1-27.89-5c-.09-8.57,0-35.66.54-65,.06-3.53.13-7.09.21-10.66.82-38.72,2.41-78,5.28-82,2.74-3.76,11-8.55,18.9-12.87l1.41-.77,5.15-2.79c3.5-1.91,6.52-3.6,8.39-4.91v1.08s4.25,5.63,9.05,5.21c4.37-.37,7.69-5.42,8.26-6.32a111.61,111.61,0,0,0,10.05,5.72l3.69,1.94,1.4.75c8.74,4.63,18.16,9.86,21,13.74a4.86,4.86,0,0,1,.6,1.43c1.68,5.66,2.72,24.47,3.35,47.24v.24c0,.92,0,1.85.07,2.78,0,.12,0,.25,0,.37.21,8,.36,16.4.48,24.84,0,.67,0,1.34,0,2,0,.33,0,.67,0,1,0,1.67.05,3.33.06,5,0,1.22,0,2.44.05,3.66C185.64,350.92,185.51,379.72,185.39,388.7Z"/><path class="cls-11" d="M184.69,283.5c-2.75-4.49-5.71-9.08-8.49-13.14l0,0c-1.17-1.7-2.31-3.31-3.39-4.78a.18.18,0,0,0,0-.07l-1-1.35a.55.55,0,0,1-.12-.24h0a.76.76,0,0,1,1.33-.67c3.34,4.43,7.62,10.79,11.66,17.26v.24C184.64,281.64,184.67,282.57,184.69,283.5Z"/><path class="cls-4" d="M180.78,231.18s17.24,31.6,27.75,47.61c0,0,6-5.49,13.76-12.84,8.43-8,20-21.28,20-21.28l6.37,7.57s-25.9,46.61-37.52,52.47-33-35.6-33-35.6Z"/><path class="cls-11" d="M107.76,355.7h0a.77.77,0,0,1-.75-.8c.9-25.52-12.33-33.78-12.46-33.87a.77.77,0,0,1-.27-1.06.78.78,0,0,1,1.07-.27c.15.08,3.65,2.21,7,7.65,3.1,5,6.68,13.8,6.19,27.6A.78.78,0,0,1,107.76,355.7Z"/><path class="cls-11" d="M164.2,331.67a.77.77,0,0,1-.77-.72c-.42-5.38,1.35-9.3,3.59-14.26.65-1.45,1.33-2.95,2-4.63,4.34-10.55,2.16-22.61,2.14-22.73a.78.78,0,1,1,1.53-.29c.1.51,2.29,12.64-2.23,23.61-.71,1.71-1.39,3.22-2.05,4.69-2.23,4.94-3.85,8.51-3.46,13.49a.77.77,0,0,1-.71.83Z"/><path class="cls-10" d="M118.83,214.6c.33,2.51.82,5.77,1.36,9.47.16,1.1.32,2.24.49,3.41.54,3.83,1.1,8,1.58,12.19q.19,1.7.36,3.39c.42,4.17.74,8.3.86,12.15,0,1.16,0,2.3,0,3.4a55.26,55.26,0,0,1-.52,7.94c-.23,1.46-.43,2.89-.61,4.28-.15,1.16-.28,2.29-.4,3.41-.45,4.34-.68,8.38-.75,12.19,0,1.15,0,2.29,0,3.4,0,4.32.28,8.35.64,12.18.11,1.15.22,2.28.34,3.39.47,4.19,1,8.18,1.57,12.13.16,1.13.31,2.25.46,3.38.23,1.8.45,3.6.64,5.42s.33,4.17.39,6.67c0,1.09,0,2.23,0,3.41,0,3.73-.08,7.87-.26,12.19,0,1.13-.09,2.27-.15,3.43-.19,4-.44,8.14-.73,12.22-.08,1.15-.17,2.29-.25,3.43-.32,4.24-.67,8.37-1,12.22-.1,1.17-.21,2.31-.32,3.41-.4,4.24-.8,8-1.14,11a193.63,193.63,0,0,0,23.35.39c.19-3.19.68-8.34,1.17-14.41q.14-1.67.27-3.42c.29-3.86.55-8,.73-12.14.05-1.14.09-2.29.12-3.43.12-4.15.12-8.27-.06-12.14-.05-1.18-.12-2.33-.21-3.44s-.2-2.26-.33-3.34a66.91,66.91,0,0,1-.5-8.84c0-1.15,0-2.28.08-3.42.18-4,.61-7.92,1.11-12.13.14-1.12.28-2.26.42-3.41.45-3.75.92-7.72,1.29-12.07.1-1.11.18-2.25.27-3.42.26-3.72.43-7.73.46-12.09,0-1.13,0-2.28,0-3.45,0-3.78-.2-7.82-.5-12.18q0-.57-.09-1.17c0-.76-.1-1.53-.14-2.3a117.06,117.06,0,0,1,.08-12.13c.06-1.14.14-2.28.22-3.43.32-4.08.78-8.11,1.31-12,.15-1.15.31-2.29.48-3.41.64-4.24,1.32-8.24,1.95-11.81.21-1.17.41-2.3.6-3.38.43-2.41.8-4.55,1.07-6.37a111.61,111.61,0,0,1-10.05-5.72c-.57.9-3.89,6-8.27,6.32-4.79.42-9-5.21-9-5.21v-1.08C125.35,211,122.33,212.69,118.83,214.6Z"/><path class="cls-12" d="M120.19,224.07c.16,1.1.32,2.24.49,3.41a63.05,63.05,0,0,0,15.44-1.95,41.12,41.12,0,0,1,16.79-.4c.21-1.17.41-2.3.6-3.38a44.73,44.73,0,0,0-18.16.46A59.33,59.33,0,0,1,120.19,224.07Z"/><path class="cls-12" d="M122.26,239.67q.19,1.7.36,3.39a68,68,0,0,0,13.5-1.95,41.15,41.15,0,0,1,14.36-.76c.15-1.15.31-2.29.48-3.41a44.89,44.89,0,0,0-15.61.85A65.13,65.13,0,0,1,122.26,239.67Z"/><path class="cls-12" d="M123.48,255.21c0,1.16,0,2.3,0,3.4a71.25,71.25,0,0,0,12.6-1.91,41.37,41.37,0,0,1,12.83-.93c.06-1.14.14-2.28.22-3.43a45,45,0,0,0-13.82,1A70.6,70.6,0,0,1,123.48,255.21Z"/><path class="cls-12" d="M122,274.24a67.1,67.1,0,0,0,14.13-2,41.37,41.37,0,0,1,13-.91q0-.57-.09-1.17c0-.76-.1-1.53-.14-2.3A45,45,0,0,0,135.35,269a65.8,65.8,0,0,1-13,1.87C122.24,272,122.11,273.12,122,274.24Z"/><path class="cls-12" d="M121.23,289.83a65.46,65.46,0,0,0,14.89-2,41.17,41.17,0,0,1,13.5-.87c0-1.13,0-2.28,0-3.45a44.67,44.67,0,0,0-14.25,1,62.74,62.74,0,0,1-14.11,1.89C121.23,287.58,121.22,288.72,121.23,289.83Z"/><path class="cls-12" d="M121.87,302c.11,1.15.22,2.28.34,3.39a67.41,67.41,0,0,0,13.91-1.95,41.33,41.33,0,0,1,12.77-.94c.1-1.11.18-2.25.27-3.42a44.9,44.9,0,0,0-13.81,1A64.42,64.42,0,0,1,121.87,302Z"/><path class="cls-12" d="M123.78,317.53c.16,1.13.31,2.25.46,3.38A73.88,73.88,0,0,0,136.12,319a41.59,41.59,0,0,1,11.06-1c.14-1.12.28-2.26.42-3.41a45,45,0,0,0-12.25,1.13A70.68,70.68,0,0,1,123.78,317.53Z"/><path class="cls-12" d="M125.27,333c0,1.09,0,2.23,0,3.41a76,76,0,0,0,10.8-1.8,41.7,41.7,0,0,1,9.87-1.07c0-1.15,0-2.28.08-3.42a45.09,45.09,0,0,0-10.72,1.18A75.74,75.74,0,0,1,125.27,333Z"/><path class="cls-12" d="M124.91,352a78.32,78.32,0,0,0,11.21-1.83,41.23,41.23,0,0,1,10.91-1c-.05-1.18-.12-2.33-.21-3.44a45,45,0,0,0-11.47,1.16,74.68,74.68,0,0,1-10.29,1.72C125,349.73,125,350.87,124.91,352Z"/><path class="cls-12" d="M123.93,367.68a72.77,72.77,0,0,0,12.19-1.9,41.65,41.65,0,0,1,10.85-1c.05-1.14.09-2.29.12-3.43a45.38,45.38,0,0,0-11.74,1.16,71.48,71.48,0,0,1-11.17,1.79C124.1,365.4,124,366.54,123.93,367.68Z"/><path class="cls-12" d="M122.59,383.31a68.26,68.26,0,0,0,13.53-1.94,41.07,41.07,0,0,1,9.85-1.08q.14-1.67.27-3.42A45.48,45.48,0,0,0,135.35,378a67.79,67.79,0,0,1-12.44,1.86C122.81,381.07,122.7,382.21,122.59,383.31Z"/><path class="cls-11" d="M149.52,394.44l1.55-.11c3.07-18,1.3-44.53.65-52.64-.69-8.43.62-19.26,3.59-29.72,2.3-8.13.89-27-.24-42.09-.32-4.25-.62-8.26-.8-11.56-.58-10.65,3.28-30.37,5.4-40.25l-1.4-.75c-2.13,9.79-6.12,30-5.52,41.08.19,3.32.49,7.34.81,11.59,1.12,15,2.52,33.7.3,41.56-3,10.63-4.35,21.66-3.65,30.26C150.86,349.94,152.64,376.59,149.52,394.44Z"/><path class="cls-11" d="M118.08,321c1.81,11.09,1.24,18.3.58,26.64-.21,2.7-.43,5.48-.59,8.56-.48,9.65-2.11,29.09-2.83,37.5l1.5.16c.73-8.41,2.36-27.9,2.85-37.59.15-3.05.37-5.83.58-8.51.67-8.44,1.24-15.73-.59-27-.39-2.43-.81-4.88-1.22-7.33-2-12.09-4.16-24.59-3.16-30.58.24-1.46.55-3.12.89-4.88,1.35-7.23,3-16.22,2.51-24s-3.7-28.69-4.91-36.58l-1.42.77c1.27,8.25,4.31,28.4,4.82,35.91s-1.15,16.51-2.49,23.65c-.33,1.77-.65,3.43-.9,4.91-1,6.24,1,18.31,3.16,31.09C117.28,316.16,117.69,318.61,118.08,321Z"/><path class="cls-9" d="M88.26,243.9S72.82,295.38,69,313.73s-4.12,56.48-4.12,56.48-6.75,14-6.91,20.24c-.17,6.65,3.32,11.94,2.92,16.29s4.9,2,3.41-6.82,2.74-16.79,4.58-16.54-1.52,9.62.11,13,3.73-3.18,5.82-7.16c2.18-4.13,2-13.14,1.06-19.57s10.67-45.5,10.73-56.82l14.76-49.89S96.48,242.11,88.26,243.9Z"/><path class="cls-4" d="M103.25,261.69c-.52,3.3-2.35,9-4.72,16.13h0c-.2.6-.4,1.22-.61,1.84l0,.09c-.59,1.78-1.21,3.64-1.84,5.56v0c-2.62,7.95-5.52,17-8,26.38-.84,3.2-1.62,6.43-2.31,9.65-.89,4.11-1.64,8.21-2.19,12.23-2,14.45-5.75,32.76-5.75,32.76-5.53,2.27-14.19-.73-14.19-.73s-.22-26.36,1-36.61a275.38,275.38,0,0,1,5.88-32c6.63-28.48,18.3-56.36,21.51-63.75l.59-1.37H95.4C100.82,235.31,104.66,252.77,103.25,261.69Z"/><path class="cls-3" d="M63.2,360.36l.44,6.07s8.22,2.67,14.39.79l1.63-5.41C73.72,362.12,68.24,362,63.2,360.36Z"/><path class="cls-11" d="M98.53,277.82h0a.75.75,0,0,1,0,.26c-.19.52-.38,1-.57,1.58l0,.09c-.6,1.72-1.22,3.59-1.84,5.56v0a295.09,295.09,0,0,0-8,31.37c0-1.66,0-3.32.06-5-.84,3.2-1.62,6.43-2.31,9.65a115.72,115.72,0,0,1,2.35-12.67,298,298,0,0,1,8.93-31.15.76.76,0,0,1,1.47.26Z"/><path class="cls-5" d="M374.67,414h36.47c-.12-2.53-.24-5-.36-7.25-.64-12.48-1.18-21-1.18-21L380,387l-2.46.11-4.36.2s.42,7.6,1.07,18.74C374.35,408.55,374.51,411.19,374.67,414Z"/><path class="cls-6" d="M377.49,387.15l-4.36.2s.42,7.6,1.07,18.74a263.74,263.74,0,0,0,36.58.62c-.64-12.48-1.18-21-1.18-21L380,387Z"/><path class="cls-6" d="M381.46,414c-.67-11.56-1.21-21.43-1.51-26.91l-2.46.11c.3,5.45.84,15.28,1.51,26.8Z"/><path class="cls-5" d="M364,414c.19-3.13.37-6.1.53-8.84.63-10.61,1-17.77,1-17.77l-4.73-.21-2.46-.11L329,385.73s-.32,5.06-.76,13.12c-.23,4.29-.5,9.43-.77,15.11Z"/><path class="cls-6" d="M328.28,398.85a322.06,322.06,0,0,0,36.22,6.27c.63-10.61,1-17.77,1-17.77l-4.73-.21-2.46-.11L329,385.73S328.72,390.79,328.28,398.85Z"/><path class="cls-6" d="M359.28,414c.66-11.53,1.21-21.37,1.51-26.82l-2.46-.11c-.3,5.48-.85,15.36-1.51,26.93Z"/><path class="cls-4" d="M414.9,391.41A175,175,0,0,1,392.62,396q-3.89.56-7.75.91-5.22.48-10.44.64a165.73,165.73,0,0,1-17.26-.37,175.43,175.43,0,0,1-33.39-5.8c-.1-10.38.06-47.59.84-83.48,0-1.61.07-3.22.11-4.82,0-.34,0-.68,0-1l0-1.11c0-1.14.05-2.27.08-3.4q.09-3.46.19-6.86c0-1.35.08-2.7.12-4,0-.28,0-.55,0-.83l.09-2.62h0c0-.27,0-.54,0-.81,0-.81.06-1.6.08-2.39s.05-1.34.07-2c.86-24.21,2.12-43.31,3.93-46,3.06-4.57,13.48-10.62,21.86-15.56,3-1.75,6.56-3.58,8.6-4.93,3,2.4,5.13,4.56,9.55,4.41,4.93-.17,6.15-3.13,8-5.68,1.15.75,4.07,3.14,5.59,4,1.3.77,2.7,1.58,4.17,2.42,2.27,1.3,4.68,2.68,7.07,4.09,3.54,2.08,7,4.23,9.93,6.28s5.19,4,6.32,5.72c1.64,2.46,2.7,18.39,3.38,39.35,0,.73.05,1.48.08,2.22v.28c0,.76.05,1.54.07,2.32.07,2.36.13,4.77.2,7.22l0,1.56,0,1.17.06,3c0,.2,0,.41,0,.61.05,2.69.1,5.42.15,8.17,0,.8,0,1.61,0,2.41C415.19,338.91,415,380.26,414.9,391.41Z"/><path class="cls-11" d="M414.56,301.17,402.8,313.1l-11-11.11L380.89,313.1l-11-11.15-11,11.15-11.07-11.22L336.74,313.1l-12-12.12c0-1.14.05-2.27.08-3.4q.09-3.46.19-6.86l11.69-11.85,11.07,11.23,11.07-11.23,11,11.15,11-11.15L391.84,290l11-11.1,11.57,11.72c.05,2.69.1,5.42.15,8.17C414.54,299.56,414.55,300.37,414.56,301.17Z"/><path class="cls-11" d="M394.26,362.67h0c-15.75-.07-29.2-7.24-37.7-13.24a86.34,86.34,0,0,1-14.83-13.13.75.75,0,0,1,.09-1.06.76.76,0,0,1,1.07.09,85.5,85.5,0,0,0,14.58,12.89c8.32,5.86,21.45,12.87,36.79,12.93a.77.77,0,0,1,.76.76A.76.76,0,0,1,394.26,362.67Z"/><path class="cls-11" d="M384.44,353.35c-13.41-2.63-25.29-12.9-25.82-13.37a.76.76,0,0,1-.08-1.07.75.75,0,0,1,1.07-.07c.14.12,14.11,12.2,28.35,13.5a.75.75,0,1,1-.14,1.5A31.62,31.62,0,0,1,384.44,353.35Z"/><path class="cls-11" d="M357.58,236.81a.76.76,0,0,1-.14-1.51c19.2-3.64,25-16,25-16.12a.77.77,0,0,1,1-.38.76.76,0,0,1,.37,1c-.24.53-6.17,13.19-26.14,17Z"/><path class="cls-11" d="M334.15,270.06h0a1,1,0,0,1-.1.24l-.89,1.43-.05.08c-1,1.55-2,3.25-3,5l0,0c-1.61,2.82-3.27,5.88-4.91,9l.09-2.62h0c0-.27,0-.54,0-.81,2.64-4.89,5.26-9.47,7.47-12.94a.76.76,0,0,1,1.38.57Z"/><path class="cls-9" d="M430.91,242s24.55-7.89,31.82-24c2.1-4.67-15.21-52.05-15.21-52.05l-8.36.4s2.38,16.44,3.83,25.75c1.18,7.65,3.1,16.8,3.75,19.81l.22,1-1.24.23c-11.47,2.33-26.12,9.8-26.12,9.8Z"/><path class="cls-7" d="M453.13,217.44a.78.78,0,0,0,1.09-.18.76.76,0,0,0-.17-1.09,60.47,60.47,0,0,0-7.31-4.29l.22,1-1.24.23A61.74,61.74,0,0,1,453.13,217.44Z"/><path class="cls-4" d="M393.34,220.29s-7.43,17.43,11.48,27.14c13.08,6.71,42.89-10.82,42.89-10.82l-10.62-22.56S409.81,225.3,393.34,220.29Z"/><path class="cls-9" d="M443.24,139.28c-.74.52-.59,3.72-.26,6.74l-.32,0c-.88-4-2.63-10.87-4.13-9.56-1,.85.34,6.75,1.23,10.28l-.56.18c-1.12-4.19-3.55-12.26-5.17-10.69-1.08,1,1,8.15,2.14,11.78l-.47.18c-1.1-3.52-3.45-10.17-5.06-8.61-1.46,1.42,2.72,11.48,2.72,11.48h0l1.1,3.95s-1.3.56-3.34-1.74-4.46-2.7-2.77.62c1.91,3.76,4.73,6.45,6,9.11s5.15,3.54,5.15,3.54l7.85-.38s1.52-13.26-1.41-19.59h0C445.41,142.87,444.53,138.38,443.24,139.28Z"/><path class="cls-5" d="M346.15,169.87c0,13.36,8.23,22.57,21.59,22.57s22.68-9.9,22.68-23.26A28.62,28.62,0,0,0,388.66,159q-.09-.27-.21-.54c-.14-.34-.28-.69-.44-1-.24-.52-.5-1-.77-1.51-3.48-6.26-9.72-10.24-18.1-10.24C353.11,145.69,346.15,156.5,346.15,169.87Z"/><path class="cls-7" d="M349.15,175.62s-3.71-5-6.47-.85,1.14,16.18,7.9,13.23Z"/><path class="cls-8" d="M349.1,184.26a.57.57,0,0,1-.55-.41c-1-3.74-4.91-5.25-4.95-5.26a.58.58,0,0,1-.33-.74.56.56,0,0,1,.73-.33,9.79,9.79,0,0,1,5.65,6,.56.56,0,0,1-.39.7A.44.44,0,0,1,349.1,184.26Z"/><path class="cls-8" d="M345.2,182.38a.59.59,0,0,1-.31-.09.57.57,0,0,1-.17-.79,5.24,5.24,0,0,1,2.14-1.73.58.58,0,0,1,.47,1,4,4,0,0,0-1.65,1.3A.56.56,0,0,1,345.2,182.38Z"/><path class="cls-7" d="M387.42,175.62s3.71-5,6.47-.85S392.75,191,386,188Z"/><path class="cls-8" d="M387.47,184.26a.56.56,0,0,0,.54-.41c1.05-3.74,4.92-5.25,5-5.26a.59.59,0,0,0,.33-.74.57.57,0,0,0-.74-.33,9.82,9.82,0,0,0-5.65,6,.58.58,0,0,0,.4.7A.41.41,0,0,0,387.47,184.26Z"/><path class="cls-8" d="M391.37,182.38a.59.59,0,0,0,.31-.09.58.58,0,0,0,.17-.79,5.22,5.22,0,0,0-2.15-1.73.57.57,0,0,0-.75.29.58.58,0,0,0,.29.76,4.09,4.09,0,0,1,1.65,1.3A.56.56,0,0,0,391.37,182.38Z"/><path class="cls-9" d="M377.42,198.26v12s-3.58,6.13-8.43,6.54-9.15-5.27-9.15-5.27V199.1Z"/><path class="cls-7" d="M377.42,198.26v5.33c-3.25,3.61-9,4.52-17.58,3.25V199.1Z"/><path class="cls-9" d="M390.1,167.37a116.56,116.56,0,0,1-1.56,15.19c-.22,1.17-.47,2.27-.75,3.25-2.53,8.86-8.86,24.05-26.58,17.73-7.83-2.8-11.46-11.52-13.07-20.38A85.54,85.54,0,0,1,347,166.71,12.58,12.58,0,0,1,353.32,156c10.46-5.93,21.5-3.72,28.77-.92A12.5,12.5,0,0,1,390.1,167.37Z"/><path class="cls-5" d="M360.69,177.19c0,1.29-.67,2.33-1.48,2.33s-1.48-1-1.48-2.33.66-2.32,1.48-2.32S360.69,175.91,360.69,177.19Z"/><path class="cls-5" d="M378.1,177.14c0,1.29-.66,2.33-1.48,2.33s-1.47-1-1.47-2.33.66-2.32,1.47-2.32S378.1,175.86,378.1,177.14Z"/><path class="cls-5" d="M381.44,169.16s-4.66-1.85-8.25-.29l.36,2s5.27-.44,7.92.63A3.45,3.45,0,0,0,381.44,169.16Z"/><path class="cls-5" d="M354.28,169.16s4.66-1.85,8.25-.29l-.36,2s-5.27-.44-7.92.63A3.4,3.4,0,0,1,354.28,169.16Z"/><path class="cls-7" d="M368.48,186.93a6.14,6.14,0,0,0,2.07-.43.57.57,0,0,0,.31-.75.57.57,0,0,0-.74-.31,3.44,3.44,0,0,1-2.29.22.62.62,0,0,1-.28-.54,87.15,87.15,0,0,1,.34-8.74.57.57,0,1,0-1.14-.1,84.85,84.85,0,0,0-.34,9,1.76,1.76,0,0,0,.83,1.4A2.39,2.39,0,0,0,368.48,186.93Z"/><path class="cls-10" d="M360.81,189.83c.95,3.3,3.65,6.59,7.37,6.63s6.41-3.33,7.36-6.63Z"/><path class="cls-7" d="M367.86,200a5.93,5.93,0,0,0,2.79-.78.57.57,0,1,0-.6-1,5,5,0,0,1-2.19.61,4.59,4.59,0,0,1-2.08-.61.57.57,0,0,0-.6,1A5.78,5.78,0,0,0,367.86,200Z"/><path class="cls-5" d="M389.5,175.72h-2.59c.29-2.59.7-7.17-1.44-7.83-6.75-2.07,2-6.84-1.05-9.21s-10.62-1.37-15.89-1.54-13.83-.09-15.9.39-.93,3.91-.17,6.58-2.55,5.61-3.1,8.37a12,12,0,0,0,0,3.24H347.2c-.25-3.35-.29-6.48-.25-9A12.58,12.58,0,0,1,353.32,156c10.46-5.93,21.5-3.72,28.77-.92a12.5,12.5,0,0,1,8,12.27C390,169.93,389.79,172.85,389.5,175.72Z"/><path class="cls-10" d="M359,183.92a6.47,6.47,0,1,1,6.46-6.46A6.47,6.47,0,0,1,359,183.92ZM359,172a5.46,5.46,0,1,0,5.46,5.46A5.47,5.47,0,0,0,359,172Z"/><path class="cls-10" d="M376.62,183.92a6.47,6.47,0,1,1,6.47-6.46A6.47,6.47,0,0,1,376.62,183.92Zm0-11.92a5.46,5.46,0,1,0,5.46,5.46A5.46,5.46,0,0,0,376.62,172Z"/><path class="cls-10" d="M353.57,175.37a.54.54,0,0,1-.35-.14h0a7.94,7.94,0,0,0-6.82-2,.51.51,0,1,1-.23-1,8.86,8.86,0,0,1,7.76,2.25.5.5,0,0,1,0,.71A.51.51,0,0,1,353.57,175.37Z"/><path class="cls-10" d="M382.12,175.37a.48.48,0,0,1-.42-.23.49.49,0,0,1,.14-.69c.19-.13,4.77-3.08,8.66-2.44a.51.51,0,0,1,.42.58.5.5,0,0,1-.58.41c-3.5-.57-7.9,2.26-7.95,2.29A.45.45,0,0,1,382.12,175.37Z"/><path class="cls-10" d="M370.51,176a4.1,4.1,0,0,0-2.78-1.63,3.69,3.69,0,0,0-2.65,1.63l-.85-.55a4.68,4.68,0,0,1,3.5-2.09,5.05,5.05,0,0,1,3.6,2Z"/><path class="cls-9" d="M332,269.11a183,183,0,0,1-14.84,23.64,61.25,61.25,0,0,1-7.27,8.12c-3.94,3.56-7.79,5.42-10.92,3.84-11.62-5.86-37.52-52.47-37.52-52.47l6.38-7.57s11.53,13.32,20,21.28c7.77,7.35,13.75,12.84,13.75,12.84,1.08-1.64,2.22-3.43,3.42-5.33s2.58-4.15,3.92-6.35c9.71-15.94,20.48-35.07,20.48-35.07Z"/><path class="cls-7" d="M317.18,292.75a61.25,61.25,0,0,1-7.27,8.12L305,273.46c1.26-2,2.58-4.15,3.92-6.35Z"/><path class="cls-4" d="M329.38,232l-23.29,36.62,7.82,32.21,19.27-31.38S335.51,248,329.38,232Z"/><path class="cls-4" d="M300.1,414c-1.66-9.22-3.3-19.61-4.79-29.71q-.49-3.35-1-6.62c-1.2-8.36-2.26-16.26-3.12-22.82-.33-2.49-.62-4.79-.89-6.84-.83-6.55-1.32-10.62-1.32-10.62l-36.77,1.4-36.88-1.4s-1,8-2.47,19.71c-.28,2.13-.57,4.37-.89,6.7-.82,6.13-1.75,12.89-2.76,19.81,0,.1,0,.2,0,.3q-.48,3.24-1,6.5s0,.06,0,.09h0c-.79,5.25-1.62,10.49-2.46,15.54q-.53,3.12-1.05,6.11l-.33,1.85Z"/><path class="cls-11" d="M223.85,348.4a3.47,3.47,0,1,1-3.47-3.47A3.46,3.46,0,0,1,223.85,348.4Z"/><path class="cls-11" d="M232.45,361.82a3.47,3.47,0,1,1-3.47-3.46A3.47,3.47,0,0,1,232.45,361.82Z"/><path class="cls-11" d="M249.37,354.89a3.47,3.47,0,1,1-3.47-3.46A3.47,3.47,0,0,1,249.37,354.89Z"/><path class="cls-11" d="M222.66,376.08a3.47,3.47,0,1,1-3.46-3.46A3.46,3.46,0,0,1,222.66,376.08Z"/><path class="cls-11" d="M243.81,374.6a3.47,3.47,0,1,1-3.47-3.47A3.48,3.48,0,0,1,243.81,374.6Z"/><path class="cls-11" d="M215.15,360.31a3.45,3.45,0,0,1-3.14,3.45c.32-2.33.61-4.57.89-6.7A3.47,3.47,0,0,1,215.15,360.31Z"/><path class="cls-11" d="M278.26,395a3.47,3.47,0,1,1-3.47-3.47A3.47,3.47,0,0,1,278.26,395Z"/><path class="cls-11" d="M276.62,376.08a3.47,3.47,0,1,1-3.46-3.46A3.46,3.46,0,0,1,276.62,376.08Z"/><path class="cls-11" d="M295.31,384.25A3.47,3.47,0,1,1,294,377.6a2.69,2.69,0,0,1,.4,0Q294.82,380.9,295.31,384.25Z"/><path class="cls-11" d="M280.09,408.8a3.47,3.47,0,1,1-3.47-3.47A3.47,3.47,0,0,1,280.09,408.8Z"/><path class="cls-11" d="M294.91,403.26a3.47,3.47,0,1,1-3.47-3.46A3.47,3.47,0,0,1,294.91,403.26Z"/><path class="cls-11" d="M264.06,414a3.45,3.45,0,0,0-5.71,0Z"/><path class="cls-11" d="M220.38,398a3.47,3.47,0,1,1-3.46-3.46A3.46,3.46,0,0,1,220.38,398Z"/><path class="cls-11" d="M211.24,387a3.46,3.46,0,0,1-3,3.43s0-.06,0-.09q.49-3.25,1-6.5A3.49,3.49,0,0,1,211.24,387Z"/><path class="cls-11" d="M207.19,408.79a3.47,3.47,0,0,1-2.47,3.32q.53-3,1.05-6.11A3.46,3.46,0,0,1,207.19,408.79Z"/><path class="cls-11" d="M229,410.26a3.47,3.47,0,1,1-3.46-3.47A3.46,3.46,0,0,1,229,410.26Z"/><path class="cls-11" d="M247.27,407.54a3.47,3.47,0,1,1-3.46-3.46A3.46,3.46,0,0,1,247.27,407.54Z"/><path class="cls-11" d="M234.22,390.51a3.47,3.47,0,1,1-3.46-3.47A3.46,3.46,0,0,1,234.22,390.51Z"/><path class="cls-11" d="M252.83,387a3.47,3.47,0,1,1-3.46-3.46A3.46,3.46,0,0,1,252.83,387Z"/><path class="cls-11" d="M261.21,368.76a3.47,3.47,0,1,1-3.47-3.47A3.46,3.46,0,0,1,261.21,368.76Z"/><path class="cls-11" d="M291.23,354.81a3.08,3.08,0,0,1-.75.08,3.46,3.46,0,0,1-.14-6.92C290.61,350,290.9,352.32,291.23,354.81Z"/><path class="cls-11" d="M273.16,354.89a3.47,3.47,0,1,1-3.47-3.46A3.47,3.47,0,0,1,273.16,354.89Z"/><path class="cls-11" d="M285.85,367.24a3.47,3.47,0,1,1-3.47-3.46A3.47,3.47,0,0,1,285.85,367.24Z"/><path class="cls-11" d="M264.67,398a3.47,3.47,0,1,1-3.46-3.46A3.46,3.46,0,0,1,264.67,398Z"/><path class="cls-3" d="M291.26,338.26c-19.4,12.67-55,11.68-77.39,0,2.13-13.31,4.95-26.65,4.34-44.37-.06-1.94-.15-3.87-.24-5.79-.09-1.66-.19-3.31-.29-5-1.93-29.49-7-53.6-4.49-56.71a23,23,0,0,1,5.1-4.34c.87-.6,1.8-1.2,2.78-1.8,2.33-1.42,4.91-2.85,7.5-4.24,6.15-3.28,12.4-6.33,15.53-8.41a20,20,0,0,0,8.24,2.08h.45a20.06,20.06,0,0,0,8.24-2.08c2.91,1.93,8.37,4.63,14,7.57a121.77,121.77,0,0,1,11.5,6.67,23.16,23.16,0,0,1,4.91,4.22c1.23,1.55.71,8.32-.33,18.35-1,9.87-2.59,22.91-3.53,37.24-.26,4-.48,8.05-.62,12.19C286.31,311.61,289.12,325,291.26,338.26Z"/><path class="cls-4" d="M279.4,323.54h0c-15.62-.07-28.95-7.18-37.38-13.13a86.6,86.6,0,0,1-14.71-13,.76.76,0,0,1,.1-1.06.74.74,0,0,1,1,.09,85.05,85.05,0,0,0,14.46,12.79C251.16,315,264.19,322,279.4,322a.76.76,0,0,1,0,1.51Z"/><path class="cls-4" d="M269.06,314.44c-13.3-2.61-25.08-12.8-25.61-13.26a.76.76,0,0,1-.07-1.06.75.75,0,0,1,1.06-.08c.14.13,14,12.11,28.11,13.39a.75.75,0,0,1-.14,1.5A31.81,31.81,0,0,1,269.06,314.44Z"/><path class="cls-4" d="M249.37,245.64a.75.75,0,0,1-.14-1.49c19-3.62,24.78-15.87,24.84-16a.75.75,0,1,1,1.36.62c-.24.53-6.12,13.09-25.92,16.84Z"/><path class="cls-9" d="M275,215.22c-3.78,8.62-13.07,17.55-25.15,15.46-11.7-2-17.25-8.21-21.26-14.62,6.15-3.28,12.4-6.33,15.53-8.41a20,20,0,0,0,8.24,2.08h.45a20,20,0,0,0,8.24-2.08C263.94,209.58,269.41,212.28,275,215.22Z"/><path class="cls-10" d="M264.88,208.28a.6.6,0,0,0-.6.6c0,.48-.2,11.88-10.43,12.76-9.49.83-13.42-8.26-14.63-12a.54.54,0,0,0-.51-.37h-.11a.54.54,0,0,0-.51.71c1.29,3.88,5.43,13.27,15.1,12.93l.76,0c11.32-1,11.52-13.82,11.53-14A.61.61,0,0,0,264.88,208.28Z"/><path class="cls-5" d="M272.11,147.71s9.15,14.16,8.14,28.91,1.35,31.78-11.85,31-36.74,5.29-44.22-6.2S272.11,147.71,272.11,147.71Z"/><path class="cls-6" d="M275.5,173.75s2.37,21.38-7.77,27.27-17.49-.69-17.49-.69S271.63,170.53,275.5,173.75Z"/><path class="cls-7" d="M233.36,173.65s-3.65-4.86-6.36-.84,1.13,15.88,7.76,13Z"/><path class="cls-8" d="M233.31,182.13a.58.58,0,0,1-.54-.41c-1-3.67-4.82-5.15-4.86-5.17a.56.56,0,1,1,.4-1,9.64,9.64,0,0,1,5.54,5.9.56.56,0,0,1-.39.69A.4.4,0,0,1,233.31,182.13Z"/><path class="cls-8" d="M229.48,180.28a.56.56,0,0,1-.47-.86,5.09,5.09,0,0,1,2.1-1.7.56.56,0,0,1,.46,1A4.19,4.19,0,0,0,230,180,.56.56,0,0,1,229.48,180.28Z"/><path class="cls-7" d="M270.9,173.65s3.65-4.86,6.35-.84-1.12,15.88-7.75,13Z"/><path class="cls-8" d="M271,182.13a.58.58,0,0,0,.54-.41c1-3.67,4.82-5.15,4.86-5.17a.56.56,0,1,0-.4-1,9.61,9.61,0,0,0-5.54,5.9.56.56,0,0,0,.39.69A.4.4,0,0,0,271,182.13Z"/><path class="cls-8" d="M274.78,180.28a.56.56,0,0,0,.47-.86,5.09,5.09,0,0,0-2.1-1.7.56.56,0,1,0-.46,1,4.29,4.29,0,0,1,1.62,1.28A.55.55,0,0,0,274.78,180.28Z"/><path class="cls-9" d="M261.1,195.85v11.8s-3.52,6-8.28,6.42-9-5.17-9-5.17V196.68Z"/><path class="cls-7" d="M261.1,195.85v5.24c-3.2,3.54-8.86,4.8-17.26,3.56v-8Z"/><path class="cls-9" d="M273.54,165.55A115.93,115.93,0,0,1,272,180.46c-.22,1.14-.47,2.22-.74,3.18-2.49,8.69-8.7,23.6-26.08,17.39-7.68-2.74-11.24-11.29-12.83-20a84.49,84.49,0,0,1-1.16-16.14,12.31,12.31,0,0,1,6.25-10.48c10.26-5.82,21.09-3.65,28.22-.91A12.28,12.28,0,0,1,273.54,165.55Z"/><path class="cls-5" d="M244.47,174.34c0,1.26-.65,2.28-1.45,2.28s-1.45-1-1.45-2.28.65-2.28,1.45-2.28S244.47,173.08,244.47,174.34Z"/><path class="cls-5" d="M262.38,174.34c0,1.26-.65,2.28-1.45,2.28s-1.45-1-1.45-2.28.65-2.28,1.45-2.28S262.38,173.08,262.38,174.34Z"/><path class="cls-5" d="M240.15,167.55a24.39,24.39,0,0,1,6.2-.93,1.08,1.08,0,0,1,1.08,1.27h0a1.07,1.07,0,0,1-1.11.88c-1.74-.08-6.32.17-8.49,1a1.64,1.64,0,0,1,.5-1.15A3.74,3.74,0,0,1,240.15,167.55Z"/><path class="cls-5" d="M263.58,167.6a24.41,24.41,0,0,0-6.21-.93,1.08,1.08,0,0,0-1.07,1.26v0a1.08,1.08,0,0,0,1.11.88c1.75-.08,6.33.16,8.49,1a1.55,1.55,0,0,0-.49-1.15A3.72,3.72,0,0,0,263.58,167.6Z"/><path class="cls-7" d="M252.32,184.74a2.28,2.28,0,0,1-1.21-.29,1.69,1.69,0,0,1-.82-1.36,82,82,0,0,1,.34-8.8.56.56,0,1,1,1.11.1,84.57,84.57,0,0,0-.33,8.58.59.59,0,0,0,.27.52c.53.32,1.74,0,2.25-.21a.56.56,0,1,1,.42,1A6,6,0,0,1,252.32,184.74Z"/><path class="cls-10" d="M245.21,188.28c.42,2.14,1.83,6.06,6.57,6.06s6.09-3.59,6.55-6.06Z"/><path class="cls-7" d="M251.71,197.61a5.6,5.6,0,0,1-2.62-.77.56.56,0,1,1,.58-1h0a4.63,4.63,0,0,0,2,.6,4.73,4.73,0,0,0,2.16-.61.56.56,0,1,1,.58,1A5.85,5.85,0,0,1,251.71,197.61Z"/><path class="cls-5" d="M275.79,164.64a1.83,1.83,0,0,1-1.35,1,35.7,35.7,0,0,1-.2,4.15c-.69,8.1-2.73,9.53-3.2,7.52a95.64,95.64,0,0,1-.14-11.44,26.32,26.32,0,0,1-3-.38l-1.88-7.86-.66,7.77c-2.82,1-9.4-.59-9.4-.59l-2.2-7.76-1.37,7.46c-4.22,2.06-9.51.69-9.51.69l-1.21-8-2.8,8s-9,3.24-9.12,0c-.06-1.88,1.32-7.18,2.49-11.29a17,17,0,0,1,8.19-10.4c11.18-6,23-2.81,27.07-.39C276.15,148.29,275.79,164.64,275.79,164.64Z"/><path class="cls-5" d="M234.76,148.31s-7.43,8.83-9.87,24.6-5.82,27.42,3.68,32.63c10.29,5.63,9.4-5.92,9.25-9.07s-8.9-11.73-3.06-35.91C236.64,152.75,234.76,148.31,234.76,148.31Z"/><path class="cls-6" d="M233,180.9v0c0,.11,0,.74.06,1.72,0,.61.06,1.35.12,2.19.35,5.31,1.38,14.49,4.41,17.67,1.2,1.26,3.51,1.89,6.23,2.15v-4.18a16.53,16.53,0,0,1-6.83-6.34,39,39,0,0,1-3.78-11.66Z"/><path class="cls-10" d="M273.67,186.06a1.32,1.32,0,1,1-1.31-1.32A1.31,1.31,0,0,1,273.67,186.06Z"/><path class="cls-3" d="M300.43,285c-3.72,10.65-20.38,9.87-39.35,4l-.08,0-.18-.06-2.61-.83-1.08-.36q-3.06-1-6.17-2.21a213.77,213.77,0,0,1-20.05-8.88l0-.11,1.94-5,.66-1.72s35.18,3.83,52.86.14l.88-.2a10.79,10.79,0,0,0-.2-1.16c-9.37-31.9.88-38,4.3-42.47C291.39,226.11,307.45,264.88,300.43,285Z"/><path class="cls-4" d="M294.7,275.11a.78.78,0,0,1-.33.07.73.73,0,0,1-.67-.42c-1.34-2.74-5.89-4.38-7.29-4.82l.88-.2c-.07-.39-.14-.78-.2-1.16,1.77.58,6.42,2.37,8,5.52A.75.75,0,0,1,294.7,275.11Z"/><path class="cls-4" d="M245.44,273.77c-7.18,0-13-.41-13.52-.45a.75.75,0,0,1-.69-.8.76.76,0,0,1,.8-.7c.27,0,26.65,1.89,37-2.33a.75.75,0,1,1,.57,1.39C263.89,273.22,253.76,273.77,245.44,273.77Z"/><path class="cls-4" d="M258.21,288.12h0c6-1.66,11.5-3.28,14.66-4.29,4.38-1.41,8-5.84,9.66-9.61a.75.75,0,1,1,1.38.6c-1.79,4.08-5.75,8.89-10.59,10.44-2.29.73-5.79,1.78-9.84,2.94a9.18,9.18,0,0,1-5.27-.08Z"/><path class="cls-3" d="M274.44,283c-54.36,18.31-71.08,6.33-71.08,6.33-3.66-33.09,9.82-62.85,9.82-62.85,4,6.57,8.49,18,8.49,18l1.19,25.37-.09.7,0,.34-.22,1.73v0l.35.07c16.44,3.47,46.51-.41,46.51-.41Z"/><path class="cls-4" d="M222.85,272.72a54.32,54.32,0,0,0-8.21,8.55.75.75,0,0,1-1.19-.9h0a55.3,55.3,0,0,1,9.28-9.48l-.22,1.73v0Z"/><path class="cls-9" d="M269.36,272.31s6-13.67,15.17-12.45l2.76,9.88c-5,2.13-5.74,10.72-12.85,13.22Z"/><path class="cls-9" d="M233.56,269.8a21.78,21.78,0,0,0-13.81-11.51c-10-2.59-16.37,2.13-17,3.9s3.77.08,3.77.08a8.63,8.63,0,0,0-4.55,3.54c-1.66,2.72,4-.21,4-.21s-4.09,1.79-4.61,3.45,4.87-1.15,5.89-1.09c0,0-4.82,1.91-4.79,3.63s5.53-1.09,9.64-.86a64.84,64.84,0,0,1,10.4,1.92,68.09,68.09,0,0,0,9.48,1.24Z"/><path class="cls-4" d="M330.14,131.11a6.72,6.72,0,1,1,6.71-6.72A6.72,6.72,0,0,1,330.14,131.11Zm0-11.32a4.61,4.61,0,1,0,4.6,4.6A4.6,4.6,0,0,0,330.14,119.79Z"/><path class="cls-3" d="M388.71,119.7a6.72,6.72,0,1,1,6.71-6.71A6.72,6.72,0,0,1,388.71,119.7Zm0-11.32a4.61,4.61,0,1,0,4.61,4.61A4.62,4.62,0,0,0,388.71,108.38Z"/><path class="cls-4" d="M397,141.52a1.05,1.05,0,0,1-1.06-1.05v-4.65a1.06,1.06,0,0,1,2.11,0v4.65A1,1,0,0,1,397,141.52Z"/><path class="cls-4" d="M397,149.65a1.06,1.06,0,0,1-1.06-1.06V144a1.06,1.06,0,0,1,2.11,0v4.64A1.06,1.06,0,0,1,397,149.65Z"/><path class="cls-4" d="M403.52,143.26h-4.17a1.06,1.06,0,0,1,0-2.11h4.17a1.06,1.06,0,1,1,0,2.11Z"/><path class="cls-4" d="M394.66,143.26h-4.17a1.06,1.06,0,1,1,0-2.11h4.17a1.06,1.06,0,0,1,0,2.11Z"/><path class="cls-2" d="M361.54,113.38a1,1,0,0,1-1.05-1v-4.64a1.06,1.06,0,1,1,2.11,0v4.64A1.05,1.05,0,0,1,361.54,113.38Z"/><path class="cls-2" d="M361.54,121.51a1,1,0,0,1-1.05-1.05v-4.65a1.06,1.06,0,0,1,2.11,0v4.65A1.05,1.05,0,0,1,361.54,121.51Z"/><path class="cls-2" d="M368.06,115.13h-4.17a1.06,1.06,0,0,1,0-2.11h4.17a1.06,1.06,0,1,1,0,2.11Z"/><path class="cls-2" d="M359.2,115.13H355a1.06,1.06,0,0,1,0-2.11h4.18a1.06,1.06,0,0,1,0,2.11Z"/><path class="cls-4" d="M90.17,107.36a6.72,6.72,0,1,1,6.71,6.71A6.73,6.73,0,0,1,90.17,107.36Zm2.1,0a4.61,4.61,0,1,0,4.61-4.61A4.62,4.62,0,0,0,92.27,107.36Z"/><path class="cls-3" d="M63.21,133a6.71,6.71,0,1,1,6.71,6.71A6.72,6.72,0,0,1,63.21,133Zm2.1,0a4.61,4.61,0,1,0,4.61-4.61A4.62,4.62,0,0,0,65.31,133Z"/><path class="cls-4" d="M49.25,142.37a1,1,0,0,0,1-1.05v-4.65a1,1,0,0,0-2.1,0v4.65A1,1,0,0,0,49.25,142.37Z"/><path class="cls-4" d="M49.25,150.5a1.05,1.05,0,0,0,1-1.06V144.8a1.05,1.05,0,1,0-2.1,0v4.64A1.05,1.05,0,0,0,49.25,150.5Z"/><path class="cls-4" d="M42.73,144.11H46.9a1.05,1.05,0,0,0,0-2.1H42.73a1,1,0,1,0,0,2.1Z"/><path class="cls-4" d="M51.6,144.11h4.17a1.05,1.05,0,0,0,0-2.1H51.6a1.05,1.05,0,1,0,0,2.1Z"/><path class="cls-2" d="M73.52,106.67a1,1,0,0,0,1-1V101a1.06,1.06,0,0,0-2.11,0v4.65A1.05,1.05,0,0,0,73.52,106.67Z"/><path class="cls-2" d="M73.52,114.8a1.05,1.05,0,0,0,1-1.06V109.1a1.06,1.06,0,0,0-2.11,0v4.64A1.05,1.05,0,0,0,73.52,114.8Z"/><path class="cls-2" d="M67,108.41h4.17a1,1,0,0,0,0-2.1H67a1.05,1.05,0,1,0,0,2.1Z"/><path class="cls-2" d="M75.86,108.41H80a1.05,1.05,0,1,0,0-2.1H75.86a1,1,0,0,0,0,2.1Z"/><path class="cls-1" d="M274.29,107.84a.79.79,0,0,1-.37,0c-1.28-.54-2-.79-2-.8a.75.75,0,0,1-.48-.94.76.76,0,0,1,.95-.48s.8.27,2.14.84a.75.75,0,0,1-.21,1.43Z"/><path class="cls-1" d="M312.4,148c.51,1.36,1,2.76,1.42,4.16a.73.73,0,0,0,.79.52.35.35,0,0,0,.14,0,.74.74,0,0,0,.49-.93c-.43-1.43-.92-2.86-1.44-4.25a.75.75,0,0,0-1.4.53Z"/><path class="cls-1" d="M315,156.35c.34,1.4.65,2.85.92,4.29a.75.75,0,0,0,.81.61h.06a.74.74,0,0,0,.6-.87c-.27-1.47-.59-3-.94-4.38a.74.74,0,0,0-.9-.55A.75.75,0,0,0,315,156.35Z"/><path class="cls-1" d="M318.13,178.93a.74.74,0,0,0,.67-.73c0-1.51,0-3,0-4.48A.74.74,0,0,0,318,173a.73.73,0,0,0-.72.77c0,1.44.05,2.92,0,4.4a.74.74,0,0,0,.73.76Z"/><path class="cls-1" d="M317.23,164.15a.75.75,0,0,0-.65.84c.09.67.17,1.36.24,2s.16,1.56.22,2.35a.73.73,0,0,0,.8.68h0a.75.75,0,0,0,.67-.8c-.06-.8-.14-1.6-.22-2.39s-.15-1.38-.24-2.06a.75.75,0,0,0-.82-.65Z"/><path class="cls-1" d="M310.73,143.89a.76.76,0,0,0,.76.44.62.62,0,0,0,.23-.07.74.74,0,0,0,.38-1c-.61-1.37-1.27-2.72-2-4a.75.75,0,0,0-1.33.7C309.49,141.22,310.13,142.55,310.73,143.89Z"/><path class="cls-1" d="M277.89,109.64c1.29.66,2.58,1.38,3.86,2.13a.8.8,0,0,0,.45.1.78.78,0,0,0,.57-.36.76.76,0,0,0-.26-1c-1.3-.77-2.62-1.5-3.94-2.17a.75.75,0,0,0-1,.33A.74.74,0,0,0,277.89,109.64Z"/><path class="cls-1" d="M289,116.69a.8.8,0,0,0,.53.15.78.78,0,0,0,.52-.29.75.75,0,0,0-.15-1c-1.18-.91-2.41-1.79-3.64-2.62a.75.75,0,1,0-.84,1.24C286.67,114.94,287.88,115.8,289,116.69Z"/><path class="cls-1" d="M301.6,128.93a.77.77,0,0,0,.67.28.8.8,0,0,0,.38-.16.75.75,0,0,0,.12-1.06c-.93-1.16-1.91-2.3-2.91-3.41a.76.76,0,0,0-1.06,0,.75.75,0,0,0-.05,1.06C299.73,126.67,300.69,127.79,301.6,128.93Z"/><path class="cls-1" d="M295.69,122.43a.74.74,0,0,0,.61.2.69.69,0,0,0,.45-.22.74.74,0,0,0,0-1c-1.07-1-2.18-2.06-3.31-3a.75.75,0,1,0-1,1.14C293.56,120.41,294.65,121.41,295.69,122.43Z"/><path class="cls-1" d="M306.65,136.12a.73.73,0,0,0,.71.35.67.67,0,0,0,.31-.1.74.74,0,0,0,.25-1c-.77-1.27-1.6-2.54-2.46-3.76a.75.75,0,0,0-1.22.86C305.08,133.64,305.89,134.87,306.65,136.12Z"/><polygon class="cls-3" points="274.28 102.72 277.55 90.61 237.45 90.95 274.28 102.72"/><polygon class="cls-4" points="237.45 90.95 272.33 105.65 272.42 105.69 273.92 108.18 274.28 102.72 237.45 90.95"/><polygon class="cls-4" points="273.92 108.18 270.67 107.66 272.42 105.69 273.92 108.18"/><polygon class="cls-3" points="268.03 103.84 272.42 105.69 263.38 115.88 237.45 90.95 268.03 103.84"/><rect class="cls-2" x="47.44" y="413.96" width="411.21" height="15.99" rx="7.63"/><path class="cls-4" d="M458.66,421.59V422H47.44v-.37A7.64,7.64,0,0,1,55.07,414H451A7.64,7.64,0,0,1,458.66,421.59Z"/><rect class="cls-5" x="183.88" y="314.11" width="135.15" height="75.84" rx="5.38"/><rect class="cls-6" x="240.99" y="389.86" width="20.93" height="23.86"/><circle class="cls-13" cx="251.22" cy="352.96" r="10.39"/><path class="cls-5" d="M230.77,405.26h40.7a6.65,6.65,0,0,1,6.65,6.65v1.82a0,0,0,0,1,0,0h-54a0,0,0,0,1,0,0V411.9A6.65,6.65,0,0,1,230.77,405.26Z"/></svg>