<?xml version="1.0" encoding="utf-8"?>
<!-- Generator: Adobe Illustrator 24.3.0, SVG Export Plug-In . SVG Version: 6.00 Build 0)  -->
<svg version="1.1" xmlns="http://www.w3.org/2000/svg" xmlns:xlink="http://www.w3.org/1999/xlink" x="0px" y="0px"
	 viewBox="0 0 750 500" style="enable-background:new 0 0 750 500;" xml:space="preserve">
<style type="text/css">
	.st0{fill:#92E3A9;}
	.st1{opacity:0.7;fill:#FFFFFF;}
	.st2{fill:none;stroke:#263238;stroke-linecap:round;stroke-linejoin:round;stroke-miterlimit:10;}
	.st3{fill:none;stroke:#5E5E5E;stroke-width:4;stroke-miterlimit:10;}
	.st4{fill:#FFFFFF;stroke:#263238;stroke-miterlimit:10;}
	.st5{fill:#263238;stroke:#263238;stroke-miterlimit:10;}
	.st6{fill:#FFFFFF;stroke:#263238;stroke-linecap:round;stroke-linejoin:round;stroke-miterlimit:10;}
	.st7{fill:#263238;stroke:#263238;stroke-linecap:round;stroke-linejoin:round;stroke-miterlimit:10;}
	.st8{fill:none;stroke:#FFFFFF;stroke-linecap:round;stroke-linejoin:round;stroke-miterlimit:10;}
	.st9{fill:#92E3A9;stroke:#263238;stroke-linecap:round;stroke-linejoin:round;stroke-miterlimit:10;}
	.st10{fill:#263238;}
	.st11{opacity:0.5;}
	.st12{fill:#FFFFFF;}
	.st13{fill:none;stroke:#263238;stroke-miterlimit:10;}
</style>
<g id="Background_Simple">
	<g>
		<path class="st0" d="M706.09,254.02c-1.35-15.45-4.81-30.65-10.37-45.13c-11.18-29.1-36.16-81.49-83.01-124.32
			c-68.83-62.93-213.37-62.93-294.99-3.93c-81.61,59-73.75,82.6-133.73,85.55c-59.98,2.95-109.14-2.95-141.59,36.38
			s-58.17,126.95,5.9,171.09c64.06,44.15,117.93,32.33,178.96,33.43c61.03,1.1,103.24,26.55,202.56,26.55s191.74,6.88,242.87-43.26
			C709.17,354.59,709.11,288.8,706.09,254.02z"/>
		<path class="st1" d="M706.09,254.02c-1.35-15.45-4.81-30.65-10.37-45.13c-11.18-29.1-36.16-81.49-83.01-124.32
			c-68.83-62.93-213.37-62.93-294.99-3.93c-81.61,59-73.75,82.6-133.73,85.55c-59.98,2.95-109.14-2.95-141.59,36.38
			s-58.17,126.95,5.9,171.09c64.06,44.15,117.93,32.33,178.96,33.43c61.03,1.1,103.24,26.55,202.56,26.55s191.74,6.88,242.87-43.26
			C709.17,354.59,709.11,288.8,706.09,254.02z"/>
	</g>
</g>
<g id="Columns">
	<path class="st2" d="M559.28,85.69h-0.54h-79.36h-1.09h-79.36h-0.54h-80.45l0,0h-80.45h-0.54h-80.45v346.75h7.61V240.08h4.89
		v-10.33l9.3-12.45c-4.9-10.09-7.67-21.48-7.67-33.54c0-39.34,29.32-71.57,66.59-74.64c37.26,3.07,66.59,35.3,66.59,74.64
		c0,12.06-2.77,23.45-7.67,33.54l9.3,12.45v10.33h4.89v192.36h7.61l0,0h7.61V240.08h4.89v-10.33l9.3-12.45
		c-4.9-10.09-7.67-21.48-7.67-33.54c0-39.34,29.32-71.57,66.59-74.64c37.26,3.07,66.59,35.3,66.59,74.64
		c0,12.06-2.77,23.45-7.67,33.54l9.3,12.45v10.33h4.89v192.36h6.52h1.09h6.52V240.08h4.89v-10.33l9.3-12.45
		c-4.9-10.09-7.67-21.48-7.67-33.54c0-39.34,29.32-71.57,66.59-74.64c37.26,3.07,66.59,35.3,66.59,74.64
		c0,12.06-2.77,23.45-7.67,33.54l9.3,12.45v10.33h4.89v192.36h7.61V85.69H559.28z"/>
</g>
<g id="Plants">
	<g>
		<line class="st3" x1="114.76" y1="347.57" x2="114.76" y2="244.75"/>
		<line class="st3" x1="101.97" y1="349.65" x2="101.97" y2="207.64"/>
		<line class="st3" x1="130.98" y1="350.35" x2="130.98" y2="300.47"/>
		<path class="st0" d="M97,221.64c0,0-2.57-4.71-11.12-14.98c-8.56-10.27-44.07-38.08-44.07-38.08s20.11,10.7,26.53,16.26
			c6.42,5.56,14.98,12.41,14.98,12.41s-23.96-26.1-26.53-27.81c-2.57-1.71,24.39,20.54,24.39,20.54s-10.27-20.54-15.4-27.38
			c-5.13-6.85-14.98-23.1-14.98-23.1s27.81,37.22,29.1,39.36c1.28,2.14,6.85,11.55,6.85,11.55l-9.84-25.67l11.98,20.97
			c0,0-17.11-35.51-17.97-37.22c-0.86-1.71,11.98,16.69,11.98,16.69l-11.12-33.37l25.67,52.63l-1.71-20.54l4.71,21.39l1.28-52.63
			l3,52.2c0,0,4.71-33.37,5.56-40.22c0.86-6.85,1.28-14.12,1.28-14.12s-0.86,45.35-0.86,46.64c0,1.28-0.86,11.55-0.86,11.55
			s6.42-19.25,8.13-24.39c1.71-5.13,3.42-22.68,4.28-25.24c0.86-2.57-4.28,39.36-4.71,41.08c-0.43,1.71-1.71,5.56-3,8.13
			c-1.28,2.57,9.41-15.4,13.26-23.1c3.85-7.7,11.12-22.25,11.12-22.25s-6.42,21.39-8.13,25.24c-1.71,3.85-12.84,24.39-12.84,24.39
			s16.69-19.68,23.96-24.82c7.27-5.13,20.54-14.98,20.54-14.98s-21.39,23.1-25.67,27.38c-4.28,4.28-16.69,19.25-16.69,19.25
			s21.39-13.69,22.68-14.98c1.28-1.28,16.69-11.12,16.69-11.12s-31.06,24.54-32.52,26.1c-12.41,13.26-16.69,19.68-19.25,22.25
			C105.13,224.21,100.85,225.49,97,221.64z"/>
		<path class="st0" d="M111.77,259.15c0,0-1.82-3.33-7.87-10.59c-6.05-7.26-31.17-26.94-31.17-26.94s14.22,7.57,18.76,11.5
			c4.54,3.93,10.59,8.78,10.59,8.78s-16.95-18.46-18.76-19.67c-1.82-1.21,17.25,14.53,17.25,14.53s-7.26-14.53-10.9-19.37
			c-3.63-4.84-10.59-16.34-10.59-16.34s19.67,26.33,20.58,27.84c0.91,1.51,4.84,8.17,4.84,8.17l-6.96-18.16l8.47,14.83
			c0,0-12.11-25.12-12.71-26.33c-0.61-1.21,8.47,11.8,8.47,11.8l-7.87-23.61l18.16,37.23l-1.21-14.53l3.33,15.13l0.91-37.23
			l2.12,36.92c0,0,3.33-23.61,3.93-28.45c0.61-4.84,0.91-9.99,0.91-9.99s-0.61,32.08-0.61,32.99c0,0.91-0.61,8.17-0.61,8.17
			s4.54-13.62,5.75-17.25c1.21-3.63,2.42-16.04,3.03-17.86s-3.03,27.84-3.33,29.05c-0.3,1.21-1.21,3.93-2.12,5.75
			c-0.91,1.82,6.66-10.9,9.38-16.34c2.72-5.45,7.87-15.74,7.87-15.74s-4.54,15.13-5.75,17.86c-1.21,2.72-9.08,17.25-9.08,17.25
			s11.8-13.92,16.95-17.55c5.15-3.63,14.53-10.59,14.53-10.59s-15.13,16.34-18.16,19.37c-3.03,3.03-11.8,13.62-11.8,13.62
			s15.13-9.68,16.04-10.59c0.91-0.91,11.8-7.87,11.8-7.87s-21.97,17.36-23,18.46c-8.78,9.38-11.8,13.92-13.62,15.74
			C117.52,260.97,114.49,261.87,111.77,259.15z"/>
		<path class="st0" d="M127.17,302.37c0,0-1.82-3.33-7.87-10.59c-6.05-7.26-31.17-26.94-31.17-26.94s14.22,7.57,18.76,11.5
			c4.54,3.93,10.59,8.78,10.59,8.78s-16.95-18.46-18.76-19.67c-1.82-1.21,17.25,14.53,17.25,14.53s-7.26-14.53-10.9-19.37
			c-3.63-4.84-10.59-16.34-10.59-16.34s19.67,26.33,20.58,27.84c0.91,1.51,4.84,8.17,4.84,8.17l-6.96-18.16l8.47,14.83
			c0,0-12.11-25.12-12.71-26.33s8.47,11.8,8.47,11.8l-7.87-23.61l18.16,37.23l-1.21-14.53l3.33,15.13l0.91-37.23l2.12,36.92
			c0,0,3.33-23.61,3.93-28.45c0.61-4.84,0.91-9.99,0.91-9.99s-0.61,32.08-0.61,32.99c0,0.91-0.61,8.17-0.61,8.17
			s4.54-13.62,5.75-17.25c1.21-3.63,2.42-16.04,3.03-17.86c0.61-1.82-3.03,27.84-3.33,29.05c-0.3,1.21-1.21,3.93-2.12,5.75
			c-0.91,1.82,6.66-10.9,9.38-16.34c2.72-5.45,7.87-15.74,7.87-15.74s-4.54,15.13-5.75,17.86c-1.21,2.72-9.08,17.25-9.08,17.25
			s11.8-13.92,16.95-17.55c5.14-3.63,14.53-10.59,14.53-10.59s-15.13,16.34-18.16,19.37c-3.03,3.03-11.8,13.62-11.8,13.62
			s15.13-9.68,16.04-10.59c0.91-0.91,11.8-7.87,11.8-7.87s-21.97,17.36-23,18.46c-8.78,9.38-11.8,13.92-13.62,15.74
			C132.92,304.18,129.89,305.09,127.17,302.37z"/>
		<g>
			<path class="st4" d="M146.32,383.62c0,20.2-5.31,38.04-13.43,48.81H96.88c-8.12-10.77-13.43-28.61-13.43-48.81
				c0-1.76,0.04-3.51,0.12-5.24c0.2-4.51,0.68-8.88,1.39-13.05c0.27-1.58,0.57-3.14,0.9-4.66c0.28-1.27,0.58-2.51,0.9-3.73
				c1.53-5.77,3.53-11.01,5.93-15.52h44.38c2.39,4.51,4.4,9.75,5.93,15.52c0.33,1.22,0.62,2.46,0.9,3.73
				c0.34,1.52,0.63,3.08,0.9,4.66c0.71,4.17,1.18,8.54,1.39,13.05C146.28,380.11,146.32,381.86,146.32,383.62z"/>
			<path class="st5" d="M143,356.95H86.77c-0.33,1.22-0.62,2.46-0.9,3.73h58.04C143.63,359.41,143.33,358.17,143,356.95z
				 M144.81,365.34H84.96c-0.71,4.17-1.18,8.54-1.39,13.05h62.63C145.99,373.88,145.52,369.51,144.81,365.34z"/>
		</g>
	</g>
	<g>
		<line class="st3" x1="672.29" y1="347.57" x2="672.29" y2="244.75"/>
		<line class="st3" x1="659.49" y1="349.65" x2="659.49" y2="207.64"/>
		<line class="st3" x1="688.5" y1="350.35" x2="688.5" y2="300.47"/>
		<path class="st0" d="M654.52,221.64c0,0-2.57-4.71-11.12-14.98c-8.56-10.27-44.07-38.08-44.07-38.08s20.11,10.7,26.53,16.26
			c6.42,5.56,14.98,12.41,14.98,12.41s-23.96-26.1-26.53-27.81c-2.57-1.71,24.39,20.54,24.39,20.54s-10.27-20.54-15.4-27.38
			s-14.98-23.1-14.98-23.1s27.81,37.22,29.09,39.36c1.28,2.14,6.85,11.55,6.85,11.55l-9.84-25.67l11.98,20.97
			c0,0-17.11-35.51-17.97-37.22c-0.86-1.71,11.98,16.69,11.98,16.69l-11.12-33.37l25.67,52.63l-1.71-20.54l4.71,21.39l1.28-52.63
			l3,52.2c0,0,4.71-33.37,5.56-40.22c0.86-6.85,1.28-14.12,1.28-14.12s-0.86,45.35-0.86,46.64c0,1.28-0.86,11.55-0.86,11.55
			s6.42-19.25,8.13-24.39c1.71-5.13,3.42-22.68,4.28-25.24c0.86-2.57-4.28,39.36-4.71,41.08c-0.43,1.71-1.71,5.56-2.99,8.13
			c-1.28,2.57,9.41-15.4,13.26-23.1c3.85-7.7,11.12-22.25,11.12-22.25s-6.42,21.39-8.13,25.24c-1.71,3.85-12.84,24.39-12.84,24.39
			s16.69-19.68,23.96-24.82c7.27-5.13,20.54-14.98,20.54-14.98s-21.39,23.1-25.67,27.38c-4.28,4.28-16.69,19.25-16.69,19.25
			s21.39-13.69,22.68-14.98c1.28-1.28,16.69-11.12,16.69-11.12s-31.06,24.54-32.52,26.1c-12.41,13.26-16.69,19.68-19.25,22.25
			S658.37,225.49,654.52,221.64z"/>
		<path class="st0" d="M669.29,259.15c0,0-1.82-3.33-7.87-10.59c-6.05-7.26-31.17-26.94-31.17-26.94s14.22,7.57,18.76,11.5
			c4.54,3.93,10.59,8.78,10.59,8.78s-16.95-18.46-18.76-19.67c-1.82-1.21,17.25,14.53,17.25,14.53s-7.26-14.53-10.9-19.37
			c-3.63-4.84-10.59-16.34-10.59-16.34s19.67,26.33,20.58,27.84c0.91,1.51,4.84,8.17,4.84,8.17l-6.96-18.16l8.47,14.83
			c0,0-12.11-25.12-12.71-26.33c-0.61-1.21,8.47,11.8,8.47,11.8l-7.87-23.61l18.16,37.23l-1.21-14.53l3.33,15.13l0.91-37.23
			l2.12,36.92c0,0,3.33-23.61,3.93-28.45s0.91-9.99,0.91-9.99s-0.61,32.08-0.61,32.99c0,0.91-0.61,8.17-0.61,8.17
			s4.54-13.62,5.75-17.25c1.21-3.63,2.42-16.04,3.03-17.86s-3.03,27.84-3.33,29.05c-0.3,1.21-1.21,3.93-2.12,5.75
			c-0.91,1.82,6.66-10.9,9.38-16.34c2.72-5.45,7.87-15.74,7.87-15.74s-4.54,15.13-5.75,17.86c-1.21,2.72-9.08,17.25-9.08,17.25
			s11.8-13.92,16.95-17.55c5.14-3.63,14.53-10.59,14.53-10.59s-15.13,16.34-18.16,19.37c-3.03,3.03-11.8,13.62-11.8,13.62
			s15.13-9.68,16.04-10.59c0.91-0.91,11.8-7.87,11.8-7.87s-21.97,17.36-23,18.46c-8.78,9.38-11.8,13.92-13.62,15.74
			C675.04,260.97,672.01,261.87,669.29,259.15z"/>
		<path class="st0" d="M684.69,302.37c0,0-1.82-3.33-7.87-10.59c-6.05-7.26-31.17-26.94-31.17-26.94s14.22,7.57,18.76,11.5
			c4.54,3.93,10.59,8.78,10.59,8.78s-16.95-18.46-18.76-19.67c-1.82-1.21,17.25,14.53,17.25,14.53s-7.26-14.53-10.9-19.37
			c-3.63-4.84-10.59-16.34-10.59-16.34s19.67,26.33,20.58,27.84c0.91,1.51,4.84,8.17,4.84,8.17l-6.96-18.16l8.47,14.83
			c0,0-12.11-25.12-12.71-26.33s8.47,11.8,8.47,11.8l-7.87-23.61l18.16,37.23l-1.21-14.53l3.33,15.13l0.91-37.23l2.12,36.92
			c0,0,3.33-23.61,3.93-28.45s0.91-9.99,0.91-9.99s-0.61,32.08-0.61,32.99c0,0.91-0.61,8.17-0.61,8.17s4.54-13.62,5.75-17.25
			c1.21-3.63,2.42-16.04,3.03-17.86c0.61-1.82-3.03,27.84-3.33,29.05c-0.3,1.21-1.21,3.93-2.12,5.75
			c-0.91,1.82,6.66-10.9,9.38-16.34c2.72-5.45,7.87-15.74,7.87-15.74s-4.54,15.13-5.75,17.86c-1.21,2.72-9.08,17.25-9.08,17.25
			s11.8-13.92,16.95-17.55c5.15-3.63,14.53-10.59,14.53-10.59s-15.13,16.34-18.16,19.37c-3.03,3.03-11.8,13.62-11.8,13.62
			s15.13-9.68,16.04-10.59c0.91-0.91,11.8-7.87,11.8-7.87s-21.97,17.36-23,18.46c-8.78,9.38-11.8,13.92-13.62,15.74
			C690.44,304.18,687.41,305.09,684.69,302.37z"/>
		<g>
			<path class="st4" d="M703.84,383.62c0,20.2-5.31,38.04-13.43,48.81H654.4c-8.12-10.77-13.43-28.61-13.43-48.81
				c0-1.76,0.04-3.51,0.12-5.24c0.21-4.51,0.68-8.88,1.39-13.05c0.27-1.58,0.57-3.14,0.9-4.66c0.28-1.27,0.58-2.51,0.9-3.73
				c1.53-5.77,3.53-11.01,5.93-15.52h44.38c2.39,4.51,4.4,9.75,5.93,15.52c0.33,1.22,0.62,2.46,0.9,3.73
				c0.34,1.52,0.63,3.08,0.9,4.66c0.71,4.17,1.18,8.54,1.39,13.05C703.81,380.11,703.84,381.86,703.84,383.62z"/>
			<path class="st5" d="M700.52,356.95h-56.23c-0.33,1.22-0.62,2.46-0.9,3.73h58.04C701.15,359.41,700.85,358.17,700.52,356.95z
				 M702.33,365.34h-59.85c-0.71,4.17-1.18,8.54-1.39,13.05h62.63C703.52,373.88,703.04,369.51,702.33,365.34z"/>
		</g>
	</g>
</g>
<g id="Character_4">
	<g>
		<g>
			<path class="st6" d="M577.91,279.45l28.86,5.74l-1.38,12.65l-27.36-6.52C578.04,291.32,574.94,285.04,577.91,279.45z"/>
			<path class="st6" d="M580.95,280.17c0,0,1.8,3.01,0.82,5.8c-0.98,2.79-3.24,3.66-6.28,3.35c-3.03-0.3-7.33-0.68-7.61-2.44
				c-0.27-1.77,3.21-6.6,5.48-7.13C575.63,279.22,580.95,280.17,580.95,280.17z"/>
			<g>
				<g>
					<path class="st6" d="M573.43,266.9l0.43,16.07l1.96-0.22l0.62-16.02C576.44,266.72,575.11,265.48,573.43,266.9z"/>
					<path class="st6" d="M573.86,282.96l0.06,4.83c0,0-1.06,0.61-1.47,1.24c-0.4,0.63,0.11,4.72,0.11,4.72l5.99,0.04
						c0,0-0.38-4.7-0.7-5.51c-0.32-0.81-1.9-0.55-1.9-0.55l-0.12-4.99L573.86,282.96z"/>
					<path class="st6" d="M543.61,295.8c0,0,0-4.83,1.93-5.63c1.93-0.8,3.38,1.45,4.51,1.77c1.13,0.32,0.32-2.9,3.86-2.25
						c3.54,0.64,2.57,1.77,4.02,1.93c1.45,0.16,2.57-2.57,4.18-0.97c1.61,1.61,1.45,2.57,2.74,2.09c1.29-0.48,3.06-2.09,4.02-0.8
						c0.97,1.29,1.45,2.09,2.74,1.45c1.29-0.64,1.77-2.09,3.06-0.64c1.29,1.45,1.45,1.29,2.9,0.8c1.45-0.48,3.38-0.64,4.18,0.64
						c0.8,1.29,1.38,2.22,1.82,2.08c0.44-0.15,1.88,1.14,1.88,1.14l-38.46-1.45L543.61,295.8z"/>
					<polygon class="st6" points="584.56,299.32 549.14,299.32 539.82,295.28 593.87,295.28 					"/>
				</g>
				<path class="st6" d="M565.95,288.44c0,0-0.14,2.45,1.1,3.34c1.23,0.88,3.77,1.1,4.41,0.2c0.64-0.91,0.14-2.04-0.76-2.2
					C569.8,289.62,565.95,288.44,565.95,288.44z"/>
				<path class="st6" d="M566.84,284.37c0,0-2.5,2.55-1.47,4.06c1.03,1.5,3.31,2.74,4.57,2.22c1.26-0.52,0.98-2.54,0.98-2.54
					L566.84,284.37z"/>
				<path class="st6" d="M569.58,280.55c0,0-4.27,2.07-4.01,3.33c0.27,1.26,1.83,5.28,4.1,5.26c2.27-0.03,2.51-1.8,2.51-1.8
					L569.58,280.55z"/>
				<path class="st6" d="M573.08,277.48c0,0-3.52,1.55-3.5,3.07c0.02,1.52,1.09,6.81,2.6,6.79c1.52-0.02,1.75-1.79,1.73-3.56
					C573.89,282.02,573.08,277.48,573.08,277.48z"/>
				<path class="st6" d="M577.39,278.45c0,0-4.24,4.85-3.48,5.34c0.76,0.5,2.03,0.99,2.03,0.99s5.01-3.84,5-4.6
					C580.94,279.42,578.63,276.41,577.39,278.45z"/>
			</g>
			<g>
				<path class="st6" d="M563.59,414.57c0,0-7.14,6.83-9.63,8.39c-2.49,1.55-10.87,3.11-11.49,6.21
					c-0.62,3.11,19.26,3.11,25.78,3.11s17.09,0.31,18.33-2.17c1.24-2.49-2.17-16.15-2.17-16.15L563.59,414.57z"/>
				<path class="st6" d="M586.58,430.1c0.24-0.48,0.3-1.38,0.26-2.51c-17.92,3.52-36.3,1.39-43.58,0.27c-0.4,0.4-0.69,0.83-0.78,1.3
					c-0.62,3.11,19.26,3.11,25.78,3.11C574.78,432.27,585.34,432.58,586.58,430.1z"/>
			</g>
			<g>
				<path class="st7" d="M588.45,321.37c0,0-44.11,5.59-47.84,13.36c-3.73,7.77,14.6,58.09,18.95,67.72l1.24,3.73l-0.93,3.42
					l0.93,6.52c0,0,8.39,0,14.29,0.62c5.9,0.62,10.56-1.55,10.56-1.55s-3.11-10.87-3.11-12.74c0-1.86-4.04-6.83-4.66-8.39
					c-0.62-1.55-8.08-41.94-8.08-41.94l34.17,5.28c0,0,3.73-13.05,0.93-22.68C602.11,325.1,588.45,321.37,588.45,321.37z"/>
				<path class="st8" d="M569.81,352.13c0,0-3.11-7.46-8.39-12.74"/>
				<path class="st8" d="M561.73,336.28c0,0,4.35,1.86,5.9,5.59"/>
			</g>
			<g>
				<path class="st6" d="M611.98,234.84c0,0-11.87,24.75-10.1,34.86c1.77,10.1,3.03,24.25,3.28,25.01s-2.13,14.82-2.13,14.82
					s-3.93,1.56-3.93,3.58c0,2.02-0.76,4.8-0.76,4.8l-11.11,3.28c0,0,4.55,7.33,6.82,13.89c2.27,6.57,3.79,13.39,3.79,13.39
					l0.76,11.87c0,0,38.65-0.57,40.67-0.82c2.02-0.25,7.83-2.97,11.62-9.54c3.79-6.57,5.56-13.39,4.8-20.46s-1.26-24.46-1.26-24.46
					s2.78-51.28-1.77-62.65c-4.55-11.37-15.41-22.99-15.41-22.99l-11.62,3.54L611.98,234.84z"/>
				<path class="st2" d="M601.29,318.78c0,0,8.9,2.74,17.45,15.74"/>
				<path class="st2" d="M601.29,317.41c0,0,13,2.05,24.98,12.32"/>
				<path class="st2" d="M617.37,253.06c0,0,9.58,11.98,17.11,16.08"/>
				<path class="st2" d="M619.08,263.67c0,0,10.26,7.19,18.13,8.21"/>
			</g>
			<g>
				<path class="st6" d="M633.96,215.9l0.25,1.76l-21.47,14.91l-5.05-5.56l-0.01,0.01c-0.33,0.1-7.63,2.47-10.1,0.49
					c-2.53-2.01-0.75-13.89-0.75-13.89s-2.53-0.76-3.79-2.53c-1.26-1.77,3.54-8.34,3.54-8.34s0.5-2.27-0.5-4.3
					c-1.02-2.02,6.06-14.15,6.06-14.15s4.55-9.09,9.85-10.61c5.31-1.52,22.74,4.55,24.76,8.84c1.11,2.35,1.01,7.79,0.68,12.25
					c-0.27,3.68-0.68,6.69-0.68,6.69s3.28,3.53,3.28,7.58C640.01,213.12,633.96,215.9,633.96,215.9z"/>
				<path class="st7" d="M640.01,209.08c0,4.04-6.06,6.82-6.06,6.82l-6.82-3.29c0,0,3.28-6.82,3.28-11.11c0-4.3-4.04-4.8-5.05-4.8
					c-1.01,0-4.8,5.3-4.8,5.3s-1.27,15.66-3.03,19.45c-1.77,3.79-9.85,5.55-9.85,5.55l-0.01,0.01c-0.33,0.1-7.63,2.47-10.1,0.49
					c-2.53-2.01-0.75-13.89-0.75-13.89s5.81,0,7.07,0.75c1.26,0.75,5.55,1.77,7.07,1.01c1.52-0.75,7.58-14.15,7.58-14.15
					s-1.77-3.53-3.28-5.3c-1.52-1.77,1.51-4.04,1.51-4.04l1.27-1.77l19.37,4.68c-0.27,3.68-0.68,6.69-0.68,6.69
					S640.01,205.04,640.01,209.08z"/>
				<path class="st9" d="M636.78,201.13c0.3-2.3,1.78-14.69-0.05-18.58c-2.02-4.29-19.45-10.36-24.76-8.84
					c-5.3,1.52-9.85,10.61-9.85,10.61s-0.69,1.18-1.6,2.86L636.78,201.13z"/>
				<path class="st2" d="M599.6,198.22c0,0,2.02-1.26,4.55,1.01"/>
				<ellipse class="st10" cx="602.5" cy="203.27" rx="0.88" ry="1.77"/>
				<path class="st2" d="M599.85,205.79c0,0,2.53,3.28,5.81,4.04"/>
				<path class="st6" d="M629.15,206.8c0,0-1.52,4.04-2.78,4.8c-1.26,0.76-4.29-1.52-4.29-1.52"/>
				<path class="st8" d="M598.84,217.67c0,0,1.52,0,4.29-1.26"/>
			</g>
			<polygon class="st6" points="633.96,215.9 610.21,231.81 611.47,237.12 637.24,219.43 			"/>
			<g>
				<path class="st6" d="M605.29,290.21c0,0-10.36,0-13.14-0.25s-7.33,0.51-8.84,1.26c-1.52,0.76-7.07,2.27-8.34,3.03
					c-1.26,0.76-2.53,2.27-2.53,3.03s2.27,1.52,2.27,1.52l2.78-2.02l6.06-0.51c0,0,4.29,1.77,7.07,2.02
					c2.78,0.25,6.82-1.52,6.82-1.52l6.57,1.26L605.29,290.21z"/>
				<g>
					<path class="st6" d="M633.08,241.45c0,0-9.35,7.58-7.33,13.39c2.02,5.81,3.54,33.34,3.54,33.34l-3.79,2.27v1.01l-21.98-2.53
						l-3.54,14.65c0,0,13.39,3.79,22.48,6.82c9.09,3.03,27.28,5.56,29.05,3.28c1.77-2.27,2.78-18.95,2.78-22.23
						s-0.76-38.65-1.52-43.7c-0.76-5.05-9.85-8.84-11.37-9.35"/>
					<path class="st2" d="M627.78,291.98c0,0,0,1.77,7.33,3.03"/>
					<path class="st2" d="M641.67,289.95c0,0-10.61-0.76-11.37-0.76"/>
				</g>
			</g>
		</g>
		<g>
			<g>
				<polygon class="st6" points="583.46,363.34 579.39,432.3 583.46,432.3 591.02,363.05 				"/>
				<polygon class="st6" points="655.4,363.34 659.47,432.3 655.4,432.3 647.83,363.05 				"/>
				<polygon class="st6" points="662.22,276.8 650.67,359.68 656.26,359.68 668.75,276.8 				"/>
			</g>
			<rect x="581.15" y="359.74" class="st6" width="76.78" height="4.66"/>
		</g>
	</g>
</g>
<g id="Character_2">
	<g>
		<g>
			<polygon class="st6" points="302.51,363.34 298.43,432.3 302.51,432.3 310.07,363.05 			"/>
			<polygon class="st6" points="371.17,363.34 375.25,432.3 371.17,432.3 363.61,363.05 			"/>
			<rect x="299.89" y="358.98" class="st6" width="76.23" height="5.24"/>
			<g>
				<g>
					<path class="st7" d="M308.62,372.52c0,0,2.86,22.64,2.86,28.68c0,6.04,5.4,8.26,5.4,8.26l1.27,5.72l9.85-0.64l0.32-5.09
						c0,0,2.23-1.59,2.54-7.63c0.32-6.04,1.27-28.68,1.27-28.68L308.62,372.52z"/>
					<g>
						<path class="st6" d="M318.15,415.19c0,0-4.77,10.49-5.72,13.35c-0.95,2.86,2.54,3.18,4.13,3.18c1.59,0,10.81,0,10.81,0
							s2.23-0.95,2.23-4.45c0-3.5-1.59-12.72-1.59-12.72L318.15,415.19z"/>
						<path class="st7" d="M329.6,427.27c0-1.29-0.21-3.34-0.49-5.43c-4.53-0.1-10.34,0.23-14.13,0.5c-1.1,2.52-2.15,5.02-2.54,6.21
							c-0.95,2.86,2.54,3.18,4.13,3.18c1.59,0,10.81,0,10.81,0S329.6,430.76,329.6,427.27z"/>
					</g>
				</g>
				<g>
					<path class="st7" d="M369.65,372.52c0,0-2.86,22.64-2.86,28.68c0,6.04-5.4,8.26-5.4,8.26l-1.27,5.72l-9.85-0.64l-0.32-5.09
						c0,0-2.23-1.59-2.54-7.63c-0.32-6.04-1.27-28.68-1.27-28.68L369.65,372.52z"/>
					<g>
						<path class="st6" d="M360.11,415.19c0,0,4.77,10.49,5.72,13.35c0.95,2.86-2.54,3.18-4.13,3.18c-1.59,0-10.81,0-10.81,0
							s-2.23-0.95-2.23-4.45c0-3.5,1.59-12.72,1.59-12.72L360.11,415.19z"/>
						<path class="st7" d="M365.84,428.54c-0.4-1.2-1.47-3.73-2.57-6.27c-4.57-0.34-9.62-0.07-14.2,0.25
							c-0.23,1.85-0.4,3.6-0.4,4.75c0,3.5,2.23,4.45,2.23,4.45s9.22,0,10.81,0C363.29,431.72,366.79,431.4,365.84,428.54z"/>
					</g>
				</g>
				<g>
					<path class="st7" d="M291.09,254.41c0,0-10.72,9.91-14.68,12.24c-3.96,2.33-3.49,7.46,2.33,8.62c5.82,1.16,22.6-3.73,22.6-3.73
						l1.86,2.33c0,0,0.7,6.06,0.23,10.25c-0.47,4.19-4.19,43.23-5.82,52.78c-1.63,9.55-2.33,14.21,2.33,19.1s4.66,4.89,4.66,4.89
						l-2.56,12.85c0,0,10.02,3.03,19.34,3.73c9.32,0.7,18.17-2.1,26.56-2.33s14.91,0.23,19.1,0.23c4.19,0,6.29-0.23,6.29-0.23
						l-3.96-17.74c0,0,3.26-2.56,4.19-11.42c0.93-8.85-1.55-17.25-3.18-21.91c-1.63-4.66-4.74-25.98-4.74-28.54
						s-0.93-20.27-0.93-20.27l6.71,27.66c0,0,2.8,3.03,7.46,1.86c4.66-1.16,7.03-12.37,6.33-16.33
						c-0.7-3.96-14.67-39.99-14.67-39.99l-72.69,1.4L291.09,254.41z"/>
					<path class="st2" d="M302.44,328.88c0,0,3.18-4.77,6.68-6.04c3.5-1.27,8.82-2.62,8.82-2.62"/>
					<line class="st2" x1="369.37" y1="357.41" x2="367.74" y2="342.36"/>
					<line class="st2" x1="304.6" y1="360.9" x2="306.07" y2="343.63"/>
					<path class="st2" d="M344.29,359.15c7.68,8.84,9.46,9.6,9.46,9.6"/>
					<path class="st2" d="M340.22,354.34c0.37,0.45,0.75,0.91,1.14,1.38c0.36,0.43,0.71,0.84,1.05,1.24"/>
					<path class="st2" d="M328.01,335.05c0,0,2.56,6.9,10.42,17.04"/>
					<path class="st2" d="M336.96,365.22c0.65,1.3,1.27,2.49,1.85,3.52"/>
					<path class="st2" d="M327.05,343c0,0,4.65,11.31,8.79,19.93"/>
				</g>
				<g>
					<g>
						<path class="st9" d="M332.16,191.69c0,0-10.51,4.78-12.74,10.19c-2.23,5.41-2.55,14.01-2.55,14.01s-7.32,23.88-7.64,24.84
							s-12.1,7-14.65,9.23c-2.55,2.23-3.5,4.46-3.5,4.46s11.78,10.19,19.42,18.15c7.64,7.96,11.78,14.33,24.52,15.92
							c12.74,1.59,24.84-10.19,29.61-16.24c4.78-6.05,8.3-15.47,8.3-15.47c3.05,1.99-4.11-12.87-10.21-18.6
							c-3.63-3.4-8.92-18.15-9.87-22.92s-2.87-13.05-6.37-17.51C342.99,193.28,338.21,190.73,332.16,191.69z"/>
						<path class="st2" d="M329.93,255.8c1.56,2.4,2.23,3.07,2.23,3.07"/>
						<path class="st2" d="M317.52,217.8c0,0,0.96,17.19,6.69,28.02c1.54,2.9,2.82,5.18,3.88,6.97"/>
						<path class="st2" d="M351.34,230.54c-1.02,8.88-3.17,20.56-7.72,26.74"/>
						<path class="st2" d="M352.22,218.75c0,0-0.06,2.51-0.36,6.32"/>
						<path class="st2" d="M359.46,249.31c-0.02,1.43-0.09,2.83-0.23,4.15c-0.96,8.6-7.96,12.1-13.05,14.01"/>
						<path class="st2" d="M357.95,232.76c0,0,1.2,6.51,1.46,13.37"/>
						<path class="st2" d="M356.66,273.24c-1.74,0.89-3.57,1.63-5.4,2.18"/>
						<path class="st2" d="M364.32,241.36c0,0,4.14,14.01,2.87,20.38c-0.72,3.58-3.35,6.76-6.81,9.25"/>
					</g>
					<g>
						<path class="st6" d="M347.13,228.63c-1.91,3.18-7.64,13.05-11.79,12.41c-4.14-0.63-11.45-8.59-12.73-11.78
							c-1.03-2.57-2.05-8.24-1.58-14.68c0.11-1.55,0.31-3.14,0.62-4.74c1.59-8.28,11.15-12.42,11.15-12.42
							c5.1-3.5,14.65,7.64,15.6,12.11c0.32,1.49,0.49,3.76,0.51,6.25C348.97,220.72,348.4,226.5,347.13,228.63z"/>
						<path class="st7" d="M348.91,215.78c-2.67-5.74-7.2-12.31-13.57-12.31c-6.78,0-13.87,10.46-14.3,11.12
							c0.11-1.55,0.31-3.14,0.62-4.74c1.59-8.28,11.15-12.42,11.15-12.42c5.1-3.5,14.65,7.64,15.6,12.11
							C348.71,211.01,348.89,213.28,348.91,215.78z"/>
						<path class="st2" d="M325.79,221.3c0,0,2.23,2.87,5.41,0.64"/>
						<path class="st2" d="M338.21,221.62c0,0,2.55,1.91,4.78,0"/>
						<path class="st2" d="M325.79,216.84c0,0,3.5-2.23,6.69,0"/>
						<path class="st2" d="M337.58,216.21c0,0,4.46-2.23,6.37,1.27"/>
						<path class="st2" d="M332.8,227.99c0,0,2.55,1.59,4.14-0.32"/>
						<path class="st2" d="M329.3,229.9c0,0,3.5,2.55,6.69,2.23c3.18-0.32,5.09-3.5,5.09-3.5"/>
					</g>
				</g>
				<g>
					<g>
						<path class="st7" d="M310.74,276.89c0,0-21.32-9.92-25.01-11.03c-3.69-1.11-12.29,1.06-13.68,6.39
							c-1.39,5.33,1.78,8.05,7.23,10.19c5.45,2.14,24.75,5.42,26.68,5.5c1.92,0.08,6.57-3,8.27-7.31
							C315.93,276.31,310.74,276.89,310.74,276.89z"/>
						<path class="st6" d="M310.74,276.89c0,0-6.24,5.09-6.18,10.89c0.68,0.09,1.16,0.15,1.39,0.16c1.92,0.08,6.57-3,8.27-7.31
							C315.93,276.31,310.74,276.89,310.74,276.89z"/>
					</g>
					<g>
						<g>
							<path class="st6" d="M321.8,267.75l4.5,16.62l1.99-0.73l-3.4-16.84C324.89,266.81,323.19,265.85,321.8,267.75z"/>
							<path class="st6" d="M326.31,284.37l1.28,5.02c0,0-0.95,0.9-1.21,1.66c-0.26,0.76,1.3,4.89,1.3,4.89l6.25-1.47
								c0,0-1.58-4.8-2.12-5.56c-0.54-0.76-2.12-0.09-2.12-0.09l-1.39-5.17L326.31,284.37z"/>
						</g>
						<path class="st6" d="M317.42,271.61c0,0,2.57-1.82,3.83-1.61c1.26,0.21,3.17,6.03,3.96,7.13c0.78,1.1,0.2,2.62-1.42,2.67
							c-1.62,0.05-4.9-5.35-4.9-5.35L317.42,271.61z"/>
						<path class="st6" d="M314.49,273.7c0,0,1.42-2.66,2.94-2.08c1.52,0.58,3.75,6.45,4.48,7.87c0.73,1.42-2.58,3.76-4.88,4.01
							c-2.3,0.25-3.56,0.04-3.56,0.04s-0.37,2.2-2.57,1.82c-2.2-0.37-5.65-0.96-3.55-3.83C309.44,278.66,314.49,273.7,314.49,273.7z
							"/>
						<line class="st6" x1="320.44" y1="282.04" x2="314.49" y2="273.7"/>
						<line class="st6" x1="311.64" y1="276.55" x2="317.5" y2="282.88"/>
						<path class="st6" d="M313.33,283.1c0,0-1.23,0.19-1.75,0.1c-0.52-0.09-1.18-1.67-0.41-1.53c0.78,0.13,1.55,0.26,1.55,0.26"/>
						<path class="st6" d="M325.8,272.43c0,0-0.53,4.71,0.13,5.49c0.67,0.78,2.29,0.66,2.49-0.51c0.2-1.17,0.85-3.45,0.64-4.56
							C328.85,271.75,326.41,270.4,325.8,272.43z"/>
					</g>
				</g>
				<g>
					<path class="st7" d="M376.73,291.37c0,0-11.36,6.89-21.86,10.89c-10.5,4-14.91,5.58-14.91,5.58l2.32,6.31l-0.08,1.01
						c0,0,0.36,1.28,16.53-0.18c16.17-1.46,27.63-10.95,28.62-14.45c0.99-3.5-3.48-12.95-3.48-12.95"/>
					<path class="st6" d="M339.96,307.84c0,0-10.46,2.6-11.77,3.35c-1.31,0.75-7.39,5.04-8.85,6.2c-1.46,1.16-0.02,1.6,0.97,1.48
						c0.98-0.11,16.43-2.69,17.81-2.85c1.38-0.16,4.08-0.87,4.08-0.87S342.88,310.69,339.96,307.84z"/>
				</g>
			</g>
		</g>
		<g>
			<path class="st6" d="M341.17,293.54c0,0,11.86-3.39,14.48-2.77c2.62,0.62,3.08,3.54,2,4.78c-1.08,1.23-14.64,1.39-16.95,1.23
				C338.4,296.62,336.55,294.16,341.17,293.54z"/>
			<path class="st6" d="M316.06,295.7c0,0-0.92-5.24,1.23-5.24c2.16,0,2.62,2.62,3.7,1.08c1.08-1.54,1.39-4.31,3.24-2.77
				c1.85,1.54,2.77,3.39,4.01,2.47c1.23-0.92,2.62-2.47,3.24-0.92c0.62,1.54-0.15,3.08,1.23,2.16c1.39-0.92,2.93-1.85,3.7-0.62
				c0.77,1.23,0.46,1.23,2.31,0.92c1.85-0.31,3.24,0.31,3.39,1.08c0.15,0.77,1.08,0.46,1.08,0.46l1.85,1.39l0.15,0.62h-29.12"/>
			<polygon class="st6" points="351.87,299.32 316.45,299.32 307.13,295.28 361.19,295.28 			"/>
		</g>
	</g>
</g>
<g id="Character_1">
	<g>
		<path class="st6" d="M196.55,212.96c0,0,2.8,15.53,2.8,21.12c0,5.59,1.55,12.74,1.55,12.74l7.77,4.97l3.11,0.93
			c0,0-5.9,14.29-8.08,14.6c-2.17,0.31-13.05,1.24-15.84,0c-2.8-1.24-5.59-4.04-5.59-4.04s4.35-20.5,6.21-27.65
			C190.33,228.49,196.55,212.96,196.55,212.96z"/>
		<path class="st6" d="M210.52,252.72c0,0-9.01,9.01-9.01,12.74c0,3.73,2.17,1.86,2.17,1.86S211.46,261.42,210.52,252.72z"/>
		<path class="st6" d="M204,260.49c0,0,3.73-0.31,7.46-0.31c3.73,0,8.39,1.55,10.87,0.93c2.49-0.62,8.39-4.35,8.39-4.35l-23.3-2.49
			L204,260.49z"/>
		<g>
			<path class="st6" d="M162.25,401.83l-1.86,18.95c0,0,6.83,4.35,12.12,6.52s2.8,3.73,1.55,4.04c-1.24,0.31-8.7,1.55-11.18,0.93
				c-2.49-0.62-4.35-0.62-7.14-0.93c-2.8-0.31-8.08-1.24-8.08-3.42c0-2.17,1.86-7.77,1.86-7.77l-0.93-20.81L162.25,401.83z"/>
			<path class="st7" d="M172.5,427.3c-1.92-0.79-4.05-1.87-5.98-2.93l-2.1,3.55c0,0-9.36-1.81-15.91-4.47
				c-0.44,1.62-0.87,3.43-0.87,4.47c0,2.17,5.28,3.11,8.08,3.42c2.8,0.31,4.66,0.31,7.14,0.93c2.49,0.62,9.94-0.62,11.18-0.93
				C175.29,431.03,177.78,429.48,172.5,427.3z"/>
		</g>
		<g>
			<path class="st6" d="M136.69,400.29l0.66,18.69c0,0-1.76,10.8-0.54,11.17c3.81,1.15,10.8,1.76,14.21,1.93
				c3.41,0.16,7.43,0.67,10.85,0.83c3.41,0.16,5.05-1.62,0.55-4.95c-4.51-3.33-13.07-6.22-13.92-8.13
				c-0.84-1.91,1.9-20.12,1.9-20.12L136.69,400.29z"/>
			<path class="st7" d="M162.42,427.96c-2.08-1.53-5.02-2.98-7.67-4.27c-0.18,0.15-0.36,0.29-0.55,0.46
				c-1.95,1.77-2.66,3.6-2.66,3.6s-9.31-2.37-14.89-3.6c-0.31,2.83-0.47,5.81,0.16,6c3.81,1.15,10.8,1.76,14.21,1.93
				c3.41,0.16,7.43,0.67,10.85,0.83C165.28,433.07,166.93,431.28,162.42,427.96z"/>
		</g>
		<path class="st7" d="M117.95,309.26c0,0,0.03,0.57,0.1,1.61c0.32,5.2,1.4,22.25,2.7,39.09c1.55,20.19-1.24,55.92-1.24,55.92
			s11.05,2.17,25.03,4.35c13.98,2.17,41.13-3.73,41.13-3.73s0.31-65.86,0.31-75.17c0-9.32,0-19.57,0-19.57s-10.25,5.9-26.4,0.62
			c-16.15-5.28-32.31-8.7-35.41-8.39C121.06,304.29,117.95,309.26,117.95,309.26z"/>
		<path class="st6" d="M158.65,185.31c0,0-15.53,4.35-20.81,11.8c-5.28,7.46-11.18,41-11.18,48.15c0,7.14-9.63,31.37-10.56,41
			c-0.93,9.63,0.31,26.4,0.31,26.4l8.39,3.11l3.42-6.52l2.17,7.77c0,0,18.64,6.21,27.03,6.21s24.23-2.17,25.47-2.49
			c1.24-0.31,5.9-1.86,5.9-1.86s-1.24-12.74-1.24-17.71c0-4.97,0-35.41,0-38.83c0-3.42,3.42-20.19,4.04-21.12
			c0.62-0.93,4.35-9.01,5.28-16.15s0.93-8.39,0.93-9.94c0-1.55,0-4.04,0-4.04s-9.01-18.95-16.15-24.54
			C174.49,180.96,158.65,185.31,158.65,185.31z"/>
		<g>
			<path class="st9" d="M158.34,176.62c0,0-3.42,5.9-3.42,8.08s0,12.43,0,19.88c0,7.46,5.28,11.18,7.77,15.84
				c2.49,4.66,5.28,16.15,5.28,16.15l12.43-0.93c0,0-1.55-13.98-4.66-20.5c-3.11-6.52-5.28-16.77-7.46-22.06s-7.46-16.77-7.46-16.77
				S159.89,172.89,158.34,176.62z"/>
			<path class="st9" d="M206.06,163.28c0,0,3.22-2.51-2.06-8.72s-15.84-18.02-27.34-13.36c-11.49,4.66-15.22,20.5-16.46,25.16
				c-1.24,4.66-3.11,11.8-1.24,13.98c1.86,2.17,6.83,12.74,9.01,18.02c2.17,5.28,0,16.15,5.59,20.19c5.59,4.04,15.84,4.66,20.5,1.55
				s8.7-9.32,5.59-15.84c-3.11-6.52-4.97-10.87-5.9-11.18c-0.93-0.31-2.17-0.93-2.17-0.93s-8.08-1.24-9.94-5.59
				c-1.86-4.35,5.9-19.88,11.49-23.61c5.59-3.73,11.18,0.62,11.18,0.62L206.06,163.28z"/>
			<g>
				<path class="st6" d="M201.03,156.18c0,0-8.28,0.3-13.91,7.69c-5.62,7.4-10.36,14.5-9.47,18.94c0.89,4.44,3.85,11.24,8.28,12.13
					c4.44,0.89,12.72-8.58,14.2-11.54c1.48-2.96,2.96-9.47,3.85-10.36c0.89-0.89,2.96-5.92,2.07-9.76
					C205.18,159.43,201.03,156.18,201.03,156.18z"/>
				<path class="st6" d="M194.82,182.51c0,0,2.66,2.66,5.33,0.89c2.66-1.78-0.3-2.96-0.3-5.33s2.66-6.81,2.66-6.81
					s0.93-0.73,2.3,0.13"/>
				<path class="st2" d="M194.82,185.77c0,0-4.44-0.89-6.51-5.33"/>
				<path class="st10" d="M195.01,172.05c-0.47,1.04-1.34,1.67-1.93,1.4c-0.6-0.27-0.69-1.33-0.22-2.38
					c0.47-1.04,1.34-1.67,1.93-1.4C195.38,169.95,195.48,171.01,195.01,172.05z"/>
				<path class="st2" d="M192.17,165.93c0,0,4.27-1.37,6.49,1.88"/>
			</g>
			<path class="st2" d="M188.78,161.7c0,0-12.43,8.08-17.09,13.67c-4.66,5.59-7.14,11.18-6.83,13.36"/>
			<path class="st2" d="M167.04,182.52c0,0,3.73,16.77,8.7,24.54c4.97,7.77,6.52,9.32,14.91,8.39c8.39-0.93,9.94-6.52,9.94-6.52"/>
			<path class="st9" d="M194.99,195.25c3.4-1,0,11.8-2.8,13.98c-2.8,2.17-9.32,0.31-12.43-4.66c-3.11-4.97-9.32-27.96-9.32-27.96
				s5.28,9.94,8.08,13.67c2.8,3.73,7.41,4.65,7.41,4.65S190.77,196.5,194.99,195.25z"/>
		</g>
		<g>
			<g>
				<path class="st6" d="M185.05,248.99c0,0,5.9,1.86,7.77,1.86c1.86,0,5.9-0.31,7.14-0.31s3.11,1.24,5.59,1.86
					c2.49,0.62,5.28-0.31,3.42,0.93c-1.86,1.24-5.28,0.93-7.46,0.62c-2.17-0.31-5.59-0.31-5.59-0.31l5.9,3.42h13.36
					c0,0-5.28,2.17-7.46,3.42c-2.17,1.24-7.14,2.17-9.01,2.17c-1.86,0-14.29-5.28-14.29-5.28L185.05,248.99z"/>
				<path class="st6" d="M135.97,203.02c0,0-0.4,38.63,0.93,46.29c0.77,4.44,2.02,9.96,2.86,13.51c0.48,2.04,2.41,3.4,4.5,3.16
					c9.9-1.15,36.67-4.24,37.69-4.24c1.24,0,3.11,0,3.11,0l2.49-12.12l-22.06-0.93l-2.17-4.04c0,0-2.8-1.55-2.8-2.49
					c0-0.93,0.62-20.19-0.31-21.74c-0.93-1.55-0.93-12.74-1.86-18.33c-0.93-5.59-10.25-9.32-13.98-7.77"/>
				<path class="st2" d="M147.17,246.81c-0.99,0.47-1.86,0.99-2.5,1.57"/>
				<path class="st2" d="M158.34,243.71c0,0-5.12,0.78-9.33,2.33"/>
				<path class="st2" d="M150.88,248.99c0,0,7.46-3.42,10.87-3.11"/>
			</g>
			<g>
				<path class="st6" d="M201.52,253.96c0,0,8.26-11.49,20.68-11.18c12.43,0.31,20.32,11.49,20.32,11.49L201.52,253.96z"/>
				<g>
					<path class="st2" d="M213.01,231.87c1.29,2.58,3.09,4.38,2.32,6.45c-0.77,2.06-1.55,3.35-1.55,3.35"/>
					<path class="st2" d="M213.27,227.48c0,0-0.6,0.7-0.74,1.84"/>
					<path class="st2" d="M221.78,224.65c0,0-2.06,3.09-0.52,5.16c1.55,2.06,3.87,5.93,2.58,7.99"/>
					<path class="st2" d="M232.61,239.61c-0.08-0.58-0.24-1.19-0.51-1.81c-1.29-2.84-1.81-5.42-1.03-6.96"/>
					<path class="st2" d="M232.1,243.47c0,0,0.28-0.62,0.45-1.56"/>
				</g>
				<polygon class="st6" points="239.41,257.38 204,257.38 194.68,253.34 248.73,253.34 				"/>
			</g>
		</g>
	</g>
	<g>
		<path class="st6" d="M458.52,293.54c0,0,11.86-3.39,14.48-2.77c2.62,0.62,3.08,3.54,2,4.78c-1.08,1.23-14.64,1.39-16.95,1.23
			C455.75,296.62,453.9,294.16,458.52,293.54z"/>
		<path class="st6" d="M433.41,295.7c0,0-0.92-5.24,1.23-5.24s2.62,2.62,3.7,1.08c1.08-1.54,1.39-4.31,3.24-2.77
			c1.85,1.54,2.77,3.39,4.01,2.47c1.23-0.92,2.62-2.47,3.24-0.92c0.62,1.54-0.15,3.08,1.23,2.16c1.39-0.92,2.93-1.85,3.7-0.62
			c0.77,1.23,0.46,1.23,2.31,0.92c1.85-0.31,3.24,0.31,3.39,1.08c0.15,0.77,1.08,0.46,1.08,0.46l1.85,1.39l0.15,0.62h-29.12"/>
		<polygon class="st6" points="469.22,299.32 433.8,299.32 424.48,295.28 478.54,295.28 		"/>
	</g>
	<g>
		<path class="st6" d="M502.24,272.14h-14.95l1.56,8.89c0.23,1.32,0.35,2.65,0.35,3.99v0.31c0,2.1,1.7,3.8,3.8,3.8h3.62
			c2.14,0,3.86-1.76,3.8-3.9l0,0c-0.04-1.55,0.07-3.09,0.34-4.62L502.24,272.14z"/>
		<path class="st6" d="M500.41,274.27h-11.29l1.18,7.16c0.17,1.06,0.26,2.14,0.26,3.21v0.25c0,1.69,1.28,3.06,2.87,3.06h2.73
			c1.62,0,2.91-1.42,2.87-3.14l0,0c-0.03-1.25,0.05-2.49,0.26-3.72L500.41,274.27z"/>
		<path class="st6" d="M499.21,297.5h-2.88l-0.75-2.1c0.95-0.21,1.63-0.77,1.63-1.42c0-0.64-0.65-1.19-1.56-1.41l0.67-3.31
			l-3.18,0.08c0,0,0.99,1.92,0.75,3.22c-0.95,0.21-1.64,0.77-1.64,1.43c0,0.66,0.7,1.22,1.67,1.43l-1.19,2.09h-2.8l-0.72,1.12
			l-0.21,0.32h10.87L499.21,297.5z"/>
	</g>
</g>
<g id="Table">
	<g>
		<path class="st6" d="M404.76,252.71h-13.25c0.4,1.52,1.7,7.05,1.04,11.84c-0.77,5.61-6.16,11.21-6.16,21.19
			c0,6.37,4.24,11.96,10.01,13.15v0.14h3.46v-0.14c5.77-1.19,10.01-6.79,10.01-13.15c0-9.98-5.39-15.58-6.16-21.19
			C403.06,259.77,404.36,254.23,404.76,252.71z"/>
		<path class="st9" d="M390.72,273.91c-1.41,3.14-2.86,6.8-2.86,11.64c0,5.57,3.71,10.46,8.75,11.5v0.13h3.03v-0.13
			c5.04-1.04,8.75-5.93,8.75-11.5c0-4.84-1.45-8.5-2.86-11.64H390.72z"/>
	</g>
	<g>
		<path class="st6" d="M286.1,294.99c0,1.62-1.68,2.93-3.76,2.93s-3.76-1.31-3.76-2.93c0-1.62,1.68-2.93,3.76-2.93
			S286.1,293.37,286.1,294.99z"/>
		<path class="st6" d="M294.22,294.09c0,2.2-2.02,3.98-4.51,3.98c-2.49,0-4.51-1.78-4.51-3.98c0-2.2,2.02-3.98,4.51-3.98
			C292.2,290.11,294.22,291.89,294.22,294.09z"/>
		<ellipse class="st6" cx="295.42" cy="294.62" rx="3.91" ry="3.31"/>
		<polygon class="st6" points="297.94,299.32 280.27,299.32 275.62,295.28 302.6,295.28 		"/>
	</g>
	<g>
		<path class="st4" d="M251.73,280.57c0,1.73-1.67,3.13-3.73,3.13c-2.06,0-3.73-1.4-3.73-3.13c0-1.73,1.67-3.13,3.73-3.13
			C250.06,277.44,251.73,278.84,251.73,280.57z"/>
		<path class="st4" d="M262.15,280.57c0,1.73-1.67,3.13-3.73,3.13c-2.06,0-3.73-1.4-3.73-3.13c0-1.73,1.67-3.13,3.73-3.13
			C260.48,277.44,262.15,278.84,262.15,280.57z"/>
		<path class="st4" d="M272.22,280.57c0,1.73-1.67,3.13-3.73,3.13c-2.06,0-3.73-1.4-3.73-3.13c0-1.73,1.67-3.13,3.73-3.13
			C270.55,277.44,272.22,278.84,272.22,280.57z"/>
		<path class="st4" d="M280.91,280.57c0,1.73-1.67,3.13-3.73,3.13c-2.06,0-3.73-1.4-3.73-3.13c0-1.73,1.67-3.13,3.73-3.13
			C279.24,277.44,280.91,278.84,280.91,280.57z"/>
		<path class="st4" d="M258.33,282.48c0,1.73-1.67,3.13-3.73,3.13c-2.06,0-3.73-1.4-3.73-3.13c0-1.73,1.67-3.13,3.73-3.13
			C256.66,279.35,258.33,280.75,258.33,282.48z"/>
		<path class="st4" d="M267.54,282.48c0,1.73-1.67,3.13-3.73,3.13c-2.06,0-3.73-1.4-3.73-3.13c0-1.73,1.67-3.13,3.73-3.13
			C265.86,279.35,267.54,280.75,267.54,282.48z"/>
		<path class="st4" d="M277.61,282.48c0,1.73-1.67,3.13-3.73,3.13c-2.06,0-3.73-1.4-3.73-3.13c0-1.73,1.67-3.13,3.73-3.13
			C275.94,279.35,277.61,280.75,277.61,282.48z"/>
		<g>
			<path class="st4" d="M240.97,281.6c2.97,8.56,11.1,14.71,20.68,14.71c9.57,0,17.71-6.15,20.68-14.71H240.97z"/>
			<polygon class="st4" points="270.79,298.98 252.47,298.98 254.34,295.33 268.93,295.33 			"/>
		</g>
	</g>
	<g>
		<path class="st6" d="M384.84,272.14H369.9l1.56,8.89c0.23,1.32,0.35,2.65,0.35,3.99v0.31c0,2.1,1.7,3.8,3.8,3.8h3.62
			c2.14,0,3.86-1.76,3.8-3.9l0,0c-0.04-1.55,0.07-3.09,0.34-4.62L384.84,272.14z"/>
		<path class="st9" d="M383.02,274.27h-11.29l1.18,7.16c0.17,1.06,0.26,2.14,0.26,3.21v0.25c0,1.69,1.28,3.06,2.87,3.06h2.73
			c1.62,0,2.91-1.42,2.87-3.14l0,0c-0.03-1.25,0.05-2.49,0.26-3.72L383.02,274.27z"/>
		<path class="st6" d="M381.81,297.5h-2.88l-0.75-2.1c0.95-0.21,1.63-0.77,1.63-1.42c0-0.64-0.65-1.19-1.56-1.41l0.67-3.31
			l-3.18,0.08c0,0,0.99,1.92,0.75,3.22c-0.95,0.21-1.64,0.77-1.64,1.43c0,0.66,0.7,1.22,1.67,1.43l-1.19,2.09h-2.8l-0.72,1.12
			l-0.21,0.32h10.87L381.81,297.5z"/>
	</g>
	<g>
		<path class="st6" d="M545.68,272.14h-14.95l1.56,8.89c0.23,1.32,0.35,2.65,0.35,3.99v0.31c0,2.1,1.7,3.8,3.8,3.8h3.62
			c2.14,0,3.86-1.76,3.8-3.9l0,0c-0.04-1.55,0.07-3.09,0.34-4.62L545.68,272.14z"/>
		<path class="st9" d="M543.85,274.27h-11.29l1.18,7.16c0.17,1.06,0.26,2.14,0.26,3.21v0.25c0,1.69,1.28,3.06,2.87,3.06h2.73
			c1.62,0,2.91-1.42,2.87-3.14l0,0c-0.03-1.25,0.05-2.49,0.26-3.72L543.85,274.27z"/>
		<path class="st6" d="M542.65,297.5h-2.88l-0.75-2.1c0.95-0.21,1.63-0.77,1.63-1.42c0-0.64-0.65-1.19-1.56-1.41l0.67-3.31
			l-3.18,0.08c0,0,0.99,1.92,0.75,3.22c-0.95,0.21-1.64,0.77-1.64,1.43c0,0.66,0.7,1.22,1.67,1.43l-1.19,2.09h-2.8l-0.72,1.12
			l-0.21,0.32h10.87L542.65,297.5z"/>
	</g>
	<g>
		<rect x="193.31" y="302.73" class="st6" width="386.44" height="24.85"/>
		<polygon class="st6" points="191.16,303.02 185.98,432.27 191.16,432.27 200.77,302.48 		"/>
		<polygon class="st6" points="583.89,303.02 589.07,432.27 583.89,432.27 574.28,302.48 		"/>
		<rect x="182.13" y="299.01" class="st6" width="419.24" height="5.59"/>
		<g>
			<path class="st0" d="M182.13,299.01c0,0,178.31,103.76,214.34,105c36.03,1.24,204.9-105,204.9-105H182.13z"/>
			<g class="st11">
				<path class="st12" d="M335.16,381.2v-4.07c0-0.26-0.21-0.47-0.47-0.47h-8.93c0.64,0.31,1.28,0.62,1.91,0.93h6.55v3.16
					C334.54,380.9,334.85,381.05,335.16,381.2z"/>
				<path class="st12" d="M260.28,340.94h-3.29c0.57,0.31,1.15,0.62,1.72,0.93h1.1v0.6c0.31,0.17,0.62,0.34,0.93,0.5v-1.57
					C260.75,341.15,260.54,340.94,260.28,340.94z"/>
				<path class="st12" d="M454.55,377.13v5.77c0.31-0.15,0.62-0.31,0.93-0.46v-4.85h7.8c-0.16,0.09-0.26,0.25-0.25,0.43l0.04,0.61
					c0.37-0.19,0.75-0.38,1.12-0.57l-0.36-0.38c-0.04-0.04-0.1-0.06-0.15-0.08h1.42c0.6-0.31,1.21-0.62,1.82-0.93h-11.91
					C454.75,376.66,454.55,376.87,454.55,377.13z"/>
				<path class="st12" d="M581.34,302.99v-0.35v-3.63h-0.93v3.63v0.35v2.23h-13.78c-0.26,0-0.47,0.21-0.47,0.47v14.02h-3.87
					c-0.07,0-0.13,0.02-0.19,0.04c-0.06-0.03-0.12-0.04-0.19-0.04h-3.53v-14.02c0-0.26-0.21-0.47-0.47-0.47h-13.79v-2.23v-0.35
					v-3.63h-0.93v3.63v0.35v2.23h-13.79c-0.26,0-0.47,0.21-0.47,0.47v14.02h-3.87c-0.07,0-0.13,0.02-0.19,0.04
					c-0.06-0.03-0.12-0.04-0.19-0.04h-3.53v-14.02c0-0.26-0.21-0.47-0.47-0.47h-13.79v-2.23v-0.35v-3.63H506v3.63v0.35v2.23h-13.79
					c-0.26,0-0.47,0.21-0.47,0.47v14.02h-3.87c-0.07,0-0.13,0.02-0.19,0.04c-0.06-0.03-0.12-0.04-0.19-0.04h-3.53v-14.02
					c0-0.26-0.21-0.47-0.47-0.47h-13.78v-2.23v-0.35v-3.63h-0.93v3.63v0.35v2.23h-13.79c-0.26,0-0.47,0.21-0.47,0.47v14.02h-3.87
					c-0.07,0-0.13,0.02-0.19,0.04c-0.06-0.03-0.12-0.04-0.19-0.04h-3.53v-14.02c0-0.26-0.21-0.47-0.47-0.47h-13.79v-2.23v-0.35
					v-3.63h-0.93v3.63v0.35v2.23h-13.79c-0.26,0-0.47,0.21-0.47,0.47v14.02h-3.87c-0.07,0-0.13,0.02-0.19,0.04
					c-0.06-0.03-0.12-0.04-0.19-0.04h-3.53v-14.02c0-0.26-0.21-0.47-0.47-0.47h-13.79v-2.23v-0.35v-3.63h-0.93v3.63v0.35v2.23H380.6
					c-0.26,0-0.47,0.21-0.47,0.47v14.02h-3.87c-0.07,0-0.13,0.02-0.19,0.04c-0.06-0.03-0.12-0.04-0.19-0.04h-3.53v-14.02
					c0-0.26-0.21-0.47-0.47-0.47h-13.79v-2.23v-0.35v-3.63h-0.93v3.63v0.35v2.23H343.4c-0.26,0-0.47,0.21-0.47,0.47v14.02h-3.87
					c-0.07,0-0.13,0.02-0.19,0.04c-0.06-0.03-0.12-0.04-0.19-0.04h-3.53v-14.02c0-0.26-0.21-0.47-0.47-0.47h-13.79v-2.23v-0.35
					v-3.63h-0.93v3.63v0.35v2.23h-13.79c-0.26,0-0.47,0.21-0.47,0.47v14.02h-3.87c-0.07,0-0.13,0.02-0.19,0.04
					c-0.06-0.03-0.12-0.04-0.19-0.04h-3.53v-14.02c0-0.26-0.21-0.47-0.47-0.47H283.7v-2.23v-0.35v-3.63h-0.93v3.63v0.35v2.23h-13.79
					c-0.26,0-0.47,0.21-0.47,0.47v14.02h-3.87c-0.07,0-0.13,0.02-0.19,0.04c-0.06-0.03-0.12-0.04-0.19-0.04h-3.53v-14.02
					c0-0.26-0.21-0.47-0.47-0.47H246.5v-2.23v-0.35v-3.63h-0.93v3.63v0.35v2.23h-13.79c-0.26,0-0.47,0.21-0.47,0.47v14.02h-3.87
					c-0.07,0-0.13,0.02-0.19,0.04c-0.06-0.03-0.12-0.04-0.19-0.04h-3.53v-14.02c0-0.26-0.21-0.47-0.47-0.47h-13.79v-2.23v-0.35
					v-3.63h-0.93v3.63v0.35v2.23h-13.79c-0.26,0-0.47,0.21-0.47,0.47v0.21c0.31,0.17,0.62,0.35,0.93,0.53v-0.27h7.8
					c-0.16,0.09-0.26,0.25-0.25,0.43l0.28,4.3c0.32,0.18,0.65,0.37,0.97,0.55l-0.24-3.6l4.76,5.12V314
					c0.31,0.17,0.62,0.35,0.93,0.53v-1.81l4.4-5.02l-0.26,7.01c-0.01,0.13,0.05,0.26,0.14,0.35c0.09,0.09,0.23,0.14,0.36,0.13
					l7-0.46l-4.26,3.96c0.28,0.16,0.57,0.32,0.85,0.48l5-4.65c0.04-0.04,0.06-0.1,0.08-0.15v5.35h-4.09
					c0.55,0.31,1.1,0.62,1.66,0.93h2.43v1.36c0.31,0.17,0.62,0.35,0.93,0.52v-1.88h3.53c0.07,0,0.13-0.02,0.19-0.04
					c0.06,0.03,0.12,0.04,0.19,0.04h3.87v6.2c0.31,0.17,0.62,0.34,0.93,0.52v-1.44c0.09,0.16,0.25,0.27,0.43,0.25l7.79-0.51
					l-0.22,6.12c0.56,0.31,1.13,0.62,1.7,0.93l3.62-4.13v5.14h-1.79c0.56,0.31,1.13,0.62,1.7,0.93h0.09v0.05
					c0.31,0.17,0.62,0.34,0.93,0.51v-0.56h13.79c0.26,0,0.47-0.21,0.47-0.47v-13.55h3.53c0.07,0,0.13-0.02,0.19-0.04
					c0.06,0.03,0.12,0.04,0.19,0.04h3.87v13.55c0,0.26,0.21,0.47,0.47,0.47h13.79v3.7v0.35v2.23h-13.79c-0.26,0-0.47,0.21-0.47,0.47
					v5.75c0.31,0.17,0.62,0.33,0.93,0.5v-5.78h7.8c-0.16,0.09-0.26,0.25-0.25,0.43l0.51,7.79l-3.75-0.14c0.63,0.33,1.25,0.67,1.88,1
					l2.35,0.09c0.13,0.01,0.26-0.05,0.35-0.14c0.09-0.09,0.14-0.22,0.13-0.36l-0.46-7l4.76,5.12v6.07c0.31,0.16,0.62,0.33,0.93,0.49
					v-6.8l4.4-5.02l-0.26,7.01c0,0.13,0.05,0.26,0.14,0.35c0.09,0.09,0.22,0.14,0.35,0.13l7-0.46l-5.14,4.78
					c-0.06,0.06-0.1,0.14-0.12,0.22h-5.99c0.59,0.31,1.18,0.62,1.77,0.93h4.87l4.75,4.16l-1.78-0.07c0.65,0.34,1.29,0.67,1.93,1
					l1.12,0.04c0.1,0.01,0.18-0.02,0.26-0.07v0.74c0.31,0.16,0.62,0.32,0.93,0.48v-6.29h3.53c0.07,0,0.13-0.02,0.19-0.04
					c0.06,0.03,0.12,0.04,0.19,0.04h3.87v10.28c0.31,0.16,0.62,0.32,0.93,0.47v-5.47c0.09,0.16,0.25,0.27,0.43,0.25l7.79-0.51
					l-0.28,7.8c0,0.09,0.03,0.18,0.07,0.26h-3.42c0.62,0.31,1.23,0.62,1.85,0.93h6.88v3.43c0.31,0.15,0.62,0.31,0.93,0.46v-0.2v-3.7
					h13.79c0.26,0,0.47-0.21,0.47-0.47v-13.55h3.53c0.07,0,0.13-0.02,0.19-0.04c0.06,0.03,0.12,0.04,0.19,0.04h3.87v13.55
					c0,0.26,0.21,0.47,0.47,0.47h13.79v3.7v0.35v2.23H343.4c-0.26,0-0.47,0.21-0.47,0.47v7.72c0.31,0.14,0.62,0.29,0.93,0.43v-7.69
					h7.8c-0.16,0.09-0.26,0.25-0.25,0.43l0.51,7.79l-7.49-0.27c0.74,0.34,1.48,0.68,2.21,1.01l5.76,0.21c0.14,0,0.26-0.05,0.35-0.14
					c0.09-0.09,0.14-0.22,0.13-0.36l-0.46-7l4.76,5.12v6.76h-0.23c0.73,0.32,1.45,0.63,2.16,0.93h6.04l4.75,4.16l-0.75-0.03
					c1.09,0.43,2.16,0.84,3.21,1.24v-5.38h3.53c0.07,0,0.13-0.02,0.19-0.04c0.06,0.03,0.12,0.04,0.19,0.04h3.87v8.16
					c0.31,0.1,0.62,0.21,0.93,0.31v-3.19c0.09,0.16,0.25,0.26,0.43,0.25l7.79-0.51l-0.21,5.75c0.31,0.07,0.62,0.14,0.92,0.21
					l0.24-6.44c0.01-0.13-0.05-0.26-0.14-0.35c-0.09-0.08-0.2-0.13-0.32-0.13c-0.01,0-0.02,0-0.03,0l-7,0.46l4.86-4.52h6.78v6.53
					l-3.98,4.54c0.36,0.08,0.71,0.15,1.05,0.22l2.93-3.34v3.81c0.32,0.04,0.63,0.07,0.93,0.1v-4.19l3.89,4.18
					c0.58-0.05,1.19-0.12,1.82-0.21l-0.44-6.77l7.8,0.29c0.11,0,0.19-0.03,0.26-0.07v4.88c0.31-0.09,0.62-0.17,0.93-0.27v-9.69h3.53
					c0.07,0,0.13-0.02,0.19-0.04c0.06,0.03,0.12,0.04,0.19,0.04h3.87v7.16c0.31-0.11,0.62-0.22,0.93-0.34v-1.54
					c0.08,0.16,0.24,0.26,0.43,0.25l3.62-0.24c0.93-0.36,1.87-0.73,2.83-1.12l-5.2,0.34l4.86-4.52h6.78v1.49
					c0.31-0.13,0.62-0.27,0.93-0.4v-1.09H435c0.69-0.31,1.39-0.62,2.09-0.93h-4.56v-7.01l4.4-5.02l-0.26,7.01
					c0,0.13,0.05,0.26,0.14,0.35c0.09,0.09,0.21,0.14,0.36,0.13l7-0.46l-3.75,3.48c0.9-0.41,1.81-0.84,2.73-1.26l2.61-2.43
					c0.04-0.04,0.06-0.1,0.08-0.15v1.31c0.31-0.15,0.62-0.3,0.93-0.44v-9.54c0-0.26-0.21-0.47-0.47-0.47h-13.79v-2.23v-0.35v-3.7
					h13.79c0.26,0,0.47-0.21,0.47-0.47v-13.55h3.53c0.07,0,0.13-0.02,0.19-0.04c0.06,0.03,0.12,0.04,0.19,0.04h3.87v13.55
					c0,0.26,0.21,0.47,0.47,0.47h13.79v3.7v0.35v1.26c0.31-0.16,0.62-0.32,0.93-0.48v-0.78v-0.35v-3.7h9.2
					c0.58-0.31,1.17-0.62,1.75-0.93h-5.43c0.16-0.09,0.26-0.25,0.25-0.43l-0.51-7.79l7.8,0.29c0.1,0.01,0.19-0.02,0.26-0.07v6.73
					c0.31-0.17,0.62-0.33,0.93-0.5v-11.31h3.53c0.07,0,0.13-0.02,0.19-0.04c0.06,0.03,0.12,0.04,0.19,0.04h3.87v7.1
					c0.31-0.17,0.62-0.34,0.93-0.51v-1.31c0.08,0.16,0.23,0.26,0.43,0.25l1.71-0.11c0.64-0.35,1.29-0.71,1.93-1.06l-2.39,0.16
					l4.86-4.52h5.39c0.78-0.43,1.55-0.87,2.33-1.3v-6.64l4.4-5.02l-0.26,7.01c0,0.13,0.05,0.26,0.14,0.35
					c0.09,0.09,0.22,0.14,0.36,0.13l3.11-0.2c0.62-0.35,1.24-0.7,1.86-1.06l-4.52,0.3l0.29-7.8c0-0.09-0.03-0.18-0.07-0.26h8.01
					v5.65c0.31-0.18,0.62-0.36,0.93-0.53v-5.58c0-0.26-0.21-0.47-0.47-0.47h-13.79v-2.23v-0.35v-3.7h13.79
					c0.26,0,0.47-0.21,0.47-0.47v-13.55h3.53c0.07,0,0.13-0.02,0.19-0.04c0.06,0.03,0.12,0.04,0.19,0.04h3.87v13.55
					c0,0.26,0.21,0.47,0.47,0.47h13.03c0.56-0.33,1.12-0.66,1.68-0.99v-5.37l3.23,3.47c0.27-0.16,0.55-0.32,0.82-0.49l-4.05-4.35
					v-6.28h7.04l4.75,4.16l-7.01-0.26c-0.15,0.01-0.26,0.05-0.35,0.14c-0.09,0.09-0.14,0.22-0.13,0.36l0.39,5.86
					c0.3-0.18,0.6-0.35,0.9-0.53l-0.32-4.88l7.8,0.29c0.11,0,0.19-0.03,0.26-0.07v0.06c0.31-0.19,0.62-0.37,0.93-0.56v-4.58h3.53
					c0.07,0,0.13-0.02,0.19-0.04c0.06,0.03,0.12,0.04,0.19,0.04h3.74c0.52-0.31,1.04-0.62,1.55-0.93h-0.49v-4.74l3.41,2.99
					c0.28-0.17,0.56-0.34,0.84-0.51l-2.71-2.38l6.26,0.23c0.41-0.25,0.81-0.49,1.21-0.74l-0.44-6.73l4.16,4.47
					c1.41-0.86,2.77-1.69,4.06-2.48l1.87-2.14l-0.04,1.01c0.32-0.2,0.64-0.39,0.95-0.59l0.06-1.7c0-0.09-0.03-0.18-0.07-0.26h3.19
					c0.52-0.32,1.02-0.63,1.51-0.93h-10.01V302.99z M208.36,311.59l-4.97-5.34c-0.04-0.04-0.1-0.06-0.15-0.08h5.12V311.59z
					 M209.29,311.3v-5.14h4.51L209.29,311.3z M222.61,313.96c-0.09-0.16-0.25-0.26-0.43-0.25l-7.79,0.51l0.28-7.8
					c0-0.09-0.03-0.18-0.07-0.26h8.01V313.96z M232.25,306.16h7.8c-0.16,0.09-0.26,0.25-0.25,0.43l0.51,7.79l-7.8-0.28
					c-0.09,0-0.18,0.03-0.26,0.08V306.16z M232.25,314.97l5.41,4.74h-5.41V314.97z M232.33,325.38c-0.04,0.04-0.06,0.1-0.09,0.15
					v-4.88h5.17L232.33,325.38z M245.57,327.18l-4.4,5.02l0.26-7.01c0.01-0.13-0.05-0.26-0.14-0.35c-0.09-0.08-0.2-0.13-0.32-0.13
					c-0.01,0-0.02,0-0.03,0l-7,0.46l4.86-4.52h6.78V327.18z M245.57,319.72h-6.5c-0.01-0.01-0.01-0.01-0.01-0.02l-5.27-4.62
					l7.01,0.26c0.14,0,0.26-0.05,0.35-0.14c0.09-0.09,0.14-0.22,0.13-0.36l-0.46-7l4.76,5.12V319.72z M245.57,311.59l-4.97-5.34
					c-0.04-0.04-0.1-0.06-0.15-0.08h5.12V311.59z M246.5,306.16H251l-4.51,5.14V306.16z M246.5,312.71l4.4-5.02l-0.26,7.01
					c-0.01,0.13,0.05,0.26,0.14,0.35c0.09,0.09,0.22,0.14,0.35,0.13l7-0.46L253,319.5c-0.06,0.06-0.1,0.14-0.12,0.22h-6.38V312.71z
					 M246.5,320.65h7.04l4.75,4.16l-7.01-0.26c-0.13,0.01-0.26,0.05-0.35,0.14c-0.09,0.09-0.14,0.22-0.13,0.36l0.46,7l-4.76-5.12
					V320.65z M246.5,333.73v-5.43l4.97,5.34c0.04,0.04,0.1,0.06,0.15,0.08H246.5z M259.82,333.73h-7.8
					c0.16-0.09,0.26-0.25,0.25-0.43l-0.51-7.79l7.8,0.29c0.09,0,0.18-0.03,0.26-0.07V333.73z M259.82,324.92l-4.87-4.27h4.87V324.92
					z M259.82,319.72h-5.68l5.6-5.2c0.04-0.04,0.06-0.1,0.08-0.15V319.72z M259.82,313.96c-0.09-0.16-0.25-0.26-0.43-0.25
					l-7.79,0.51l0.28-7.8c0-0.09-0.03-0.18-0.07-0.26h8.01V313.96z M282.77,347.3l-4.97-5.34c-0.04-0.04-0.1-0.06-0.15-0.08h5.12
					V347.3z M269.45,306.16h7.8c-0.16,0.09-0.26,0.25-0.25,0.43l0.51,7.79l-7.8-0.28c-0.09,0-0.18,0.03-0.26,0.08V306.16z
					 M269.45,314.97l5.41,4.74h-5.41V314.97z M269.45,320.65h5.17l-5.09,4.73c-0.04,0.04-0.06,0.1-0.08,0.15V320.65z M277.46,333.73
					h-8.01v-7.8c0.09,0.16,0.25,0.27,0.43,0.25l7.79-0.51l-0.28,7.8C277.39,333.57,277.42,333.65,277.46,333.73z M282.77,333.73
					h-4.51l4.51-5.14V333.73z M282.77,327.18l-4.4,5.02l0.26-7.01c0.01-0.13-0.05-0.26-0.14-0.35c-0.09-0.08-0.2-0.13-0.32-0.13
					c-0.01,0-0.02,0-0.03,0l-7,0.46l4.86-4.52h6.78V327.18z M282.77,319.72h-6.5c-0.01-0.01-0.01-0.01-0.01-0.02l-5.27-4.62
					l7.01,0.26c0.13,0,0.26-0.05,0.35-0.14c0.09-0.09,0.14-0.22,0.13-0.36l-0.46-7l4.76,5.12V319.72z M282.77,311.59l-4.97-5.34
					c-0.04-0.04-0.1-0.06-0.15-0.08h5.12V311.59z M306.66,306.16h7.8c-0.16,0.09-0.26,0.25-0.25,0.43l0.51,7.79l-7.8-0.28
					c-0.09,0-0.18,0.03-0.26,0.08V306.16z M306.66,314.97l5.41,4.74h-5.41V314.97z M306.66,320.65h5.17l-5.09,4.73
					c-0.04,0.04-0.06,0.1-0.08,0.15V320.65z M306.66,325.93c0.09,0.16,0.25,0.27,0.43,0.25l7.79-0.51l-0.28,7.8
					c0,0.09,0.03,0.18,0.07,0.26h-8.01V325.93z M289.01,306.16h8.01v7.8c-0.09-0.16-0.25-0.27-0.43-0.25l-7.79,0.51l0.28-7.8
					C289.09,306.32,289.06,306.23,289.01,306.16z M288.96,325.51l7.8,0.29c0.1,0,0.18-0.03,0.26-0.07v8.01h-7.8
					c0.16-0.09,0.26-0.25,0.25-0.43L288.96,325.51z M292.16,320.65h4.87v4.27L292.16,320.65z M291.34,319.72l5.6-5.2
					c0.04-0.04,0.06-0.1,0.09-0.15v5.36H291.34z M283.7,306.16h4.51l-4.51,5.14V306.16z M283.7,312.71l4.4-5.02l-0.26,7.01
					c0,0.13,0.05,0.26,0.14,0.35c0.09,0.09,0.22,0.14,0.35,0.13l7-0.46l-5.14,4.78c-0.06,0.06-0.1,0.14-0.12,0.22h-6.38V312.71z
					 M283.7,320.65h7.04l4.75,4.16l-7.01-0.26c-0.13,0.01-0.26,0.05-0.35,0.14c-0.09,0.09-0.14,0.22-0.13,0.36l0.46,7l-4.76-5.12
					V320.65z M283.7,328.3l4.97,5.34c0.04,0.04,0.1,0.06,0.15,0.08h-5.12V328.3z M283.7,347.01v-5.14h4.51L283.7,347.01z
					 M297.02,360.63l-4.87-4.27h4.87V360.63z M297.02,355.43h-5.68l5.6-5.2c0.04-0.04,0.06-0.1,0.09-0.15V355.43z M297.02,349.67
					c-0.09-0.16-0.25-0.27-0.43-0.25l-7.79,0.51l0.28-7.8c0-0.09-0.03-0.18-0.07-0.26h8.01V349.67z M306.74,361.09
					c-0.04,0.04-0.06,0.1-0.08,0.15v-4.88h5.17L306.74,361.09z M314.72,350.1l-7.8-0.28c-0.09,0-0.18,0.03-0.26,0.08v-8.01h7.8
					c-0.16,0.09-0.26,0.25-0.25,0.43L314.72,350.1z M312.07,355.43h-5.41v-4.74L312.07,355.43z M319.98,369.45h-4.51l4.51-5.14
					V369.45z M319.98,362.89l-4.4,5.02l0.26-7.01c0.01-0.13-0.05-0.26-0.14-0.35c-0.09-0.08-0.2-0.13-0.32-0.13
					c-0.01,0-0.02,0-0.03,0l-7,0.46l4.86-4.52h6.78V362.89z M319.98,355.43h-6.5c-0.01,0-0.01-0.01-0.01-0.02l-5.27-4.62l7.01,0.26
					c0.13,0.01,0.26-0.05,0.35-0.14c0.09-0.09,0.14-0.22,0.13-0.36l-0.46-7l4.76,5.12V355.43z M319.98,347.3l-4.97-5.34
					c-0.04-0.04-0.1-0.06-0.15-0.08h5.12V347.3z M319.98,338.36v0.35v2.23h-13.79c-0.26,0-0.47,0.21-0.47,0.47v14.02h-3.87
					c-0.07,0-0.13,0.02-0.19,0.04c-0.06-0.03-0.12-0.04-0.19-0.04h-3.53v-14.02c0-0.26-0.21-0.47-0.47-0.47H283.7v-2.23v-0.35v-3.7
					h13.79c0.26,0,0.47-0.21,0.47-0.47v-13.55h3.53c0.07,0,0.13-0.02,0.19-0.04c0.06,0.03,0.12,0.04,0.19,0.04h3.87v13.55
					c0,0.26,0.21,0.47,0.47,0.47h13.79V338.36z M319.98,333.73h-4.51l4.51-5.14V333.73z M319.98,327.18l-4.4,5.02l0.26-7.01
					c0.01-0.13-0.05-0.26-0.14-0.35c-0.09-0.08-0.2-0.13-0.32-0.13c-0.01,0-0.02,0-0.03,0l-7,0.46l4.86-4.52h6.78V327.18z
					 M319.98,319.72h-6.5c-0.01-0.01-0.01-0.01-0.01-0.02l-5.27-4.62l7.01,0.26c0.13,0,0.26-0.05,0.35-0.14
					c0.09-0.09,0.14-0.22,0.13-0.36l-0.46-7l4.76,5.12V319.72z M319.98,311.59l-4.97-5.34c-0.04-0.04-0.1-0.06-0.15-0.08h5.12
					V311.59z M357.18,383.02l-4.97-5.34c-0.04-0.04-0.1-0.06-0.15-0.08h5.12V383.02z M343.86,306.16h7.8
					c-0.16,0.09-0.26,0.25-0.25,0.43l0.51,7.79l-7.8-0.28c-0.09,0-0.18,0.03-0.26,0.08V306.16z M343.86,314.97l5.41,4.74h-5.41
					V314.97z M343.86,320.65h5.17l-5.09,4.73c-0.04,0.04-0.06,0.1-0.08,0.15V320.65z M343.86,325.93c0.09,0.16,0.25,0.27,0.43,0.25
					l7.79-0.51l-0.28,7.8c0,0.09,0.02,0.18,0.07,0.26h-8.01V325.93z M326.22,306.16h8.01v7.8c-0.09-0.16-0.25-0.26-0.43-0.25
					l-7.79,0.51l0.28-7.8C326.29,306.32,326.26,306.23,326.22,306.16z M326.17,325.51l7.8,0.29c0.1,0,0.18-0.03,0.26-0.07v8.01h-7.8
					c0.16-0.09,0.26-0.25,0.25-0.43L326.17,325.51z M329.36,320.65h4.87v4.27L329.36,320.65z M328.54,319.72l5.6-5.2
					c0.04-0.04,0.06-0.1,0.08-0.15v5.35H328.54z M320.91,306.16h4.51l-4.51,5.14V306.16z M320.91,312.71l4.4-5.02l-0.26,7.01
					c-0.01,0.13,0.05,0.26,0.14,0.35c0.09,0.09,0.22,0.14,0.35,0.13l7-0.46l-5.14,4.78c-0.06,0.06-0.1,0.14-0.12,0.22h-6.38V312.71z
					 M320.91,320.65h7.04l4.75,4.16l-7.01-0.26c-0.12,0.01-0.26,0.05-0.35,0.14c-0.09,0.09-0.14,0.22-0.13,0.36l0.46,7l-4.76-5.12
					V320.65z M320.91,328.3l4.97,5.34c0.04,0.04,0.1,0.06,0.15,0.08h-5.12V328.3z M320.91,341.88h4.51l-4.51,5.14V341.88z
					 M320.91,348.43l4.4-5.02l-0.26,7.01c-0.01,0.13,0.05,0.26,0.14,0.35c0.09,0.09,0.22,0.14,0.35,0.13l7-0.46l-5.14,4.78
					c-0.06,0.06-0.1,0.14-0.12,0.22h-6.38V348.43z M320.91,356.37h7.04l4.75,4.16l-7.01-0.26c-0.12,0-0.26,0.05-0.35,0.14
					c-0.09,0.09-0.14,0.22-0.13,0.36l0.46,7l-4.76-5.12V356.37z M320.91,369.45v-5.43l4.97,5.34c0.04,0.04,0.1,0.06,0.15,0.08
					H320.91z M334.23,369.45h-7.8c0.16-0.09,0.26-0.25,0.25-0.43l-0.51-7.79l7.8,0.29c0.1,0.01,0.18-0.02,0.26-0.07V369.45z
					 M334.23,360.63l-4.87-4.27h4.87V360.63z M334.23,355.43h-5.68l5.6-5.2c0.04-0.04,0.06-0.1,0.08-0.15V355.43z M334.23,349.67
					c-0.09-0.16-0.25-0.27-0.43-0.25l-7.79,0.51l0.28-7.8c0-0.09-0.03-0.18-0.07-0.26h8.01V349.67z M351.87,369.45h-8.01v-7.8
					c0.09,0.16,0.25,0.27,0.43,0.25l7.79-0.51l-0.28,7.8C351.8,369.28,351.83,369.37,351.87,369.45z M351.92,350.1l-7.8-0.28
					c-0.09,0-0.18,0.03-0.26,0.08v-8.01h7.8c-0.16,0.09-0.26,0.25-0.25,0.43L351.92,350.1z M349.27,355.43h-5.41v-4.74
					L349.27,355.43z M349.03,356.37l-5.08,4.73c-0.04,0.04-0.06,0.1-0.08,0.15v-4.88H349.03z M357.18,369.45h-4.51l4.51-5.14V369.45
					z M357.18,362.89l-4.4,5.02l0.26-7.01c0.01-0.13-0.05-0.26-0.14-0.35c-0.09-0.08-0.2-0.13-0.32-0.13c-0.01,0-0.02,0-0.03,0
					l-7,0.46l4.86-4.52h6.78V362.89z M357.18,355.43h-6.5c-0.01,0-0.01-0.01-0.01-0.02l-5.27-4.62l7.01,0.26
					c0.14,0.01,0.26-0.05,0.35-0.14c0.09-0.09,0.14-0.22,0.13-0.36l-0.46-7l4.76,5.12V355.43z M357.18,347.3l-4.97-5.34
					c-0.04-0.04-0.1-0.06-0.15-0.08h5.12V347.3z M357.18,338.36v0.35v2.23H343.4c-0.26,0-0.47,0.21-0.47,0.47v14.02h-3.87
					c-0.07,0-0.13,0.02-0.19,0.04c-0.06-0.03-0.12-0.04-0.19-0.04h-3.53v-14.02c0-0.26-0.21-0.47-0.47-0.47h-13.79v-2.23v-0.35v-3.7
					h13.79c0.26,0,0.47-0.21,0.47-0.47v-13.55h3.53c0.07,0,0.13-0.02,0.19-0.04c0.06,0.03,0.12,0.04,0.19,0.04h3.87v13.55
					c0,0.26,0.21,0.47,0.47,0.47h13.79V338.36z M357.18,333.73h-4.51l4.51-5.14V333.73z M357.18,327.18l-4.4,5.02l0.26-7.01
					c0.01-0.13-0.05-0.26-0.14-0.35c-0.09-0.08-0.2-0.13-0.32-0.13c-0.01,0-0.02,0-0.03,0l-7,0.46l4.86-4.52h6.78V327.18z
					 M357.18,319.72h-6.5c-0.01-0.01-0.01-0.01-0.01-0.02l-5.27-4.62l7.01,0.26c0.14,0,0.26-0.05,0.35-0.14
					c0.09-0.09,0.14-0.22,0.13-0.36l-0.46-7l4.76,5.12V319.72z M357.18,311.59l-4.97-5.34c-0.04-0.04-0.1-0.06-0.15-0.08h5.12
					V311.59z M381.07,306.16h7.8c-0.16,0.09-0.26,0.25-0.25,0.43l0.51,7.79l-7.8-0.28c-0.09,0-0.18,0.03-0.26,0.08V306.16z
					 M381.07,314.97l5.41,4.74h-5.41V314.97z M381.07,320.65h5.17l-5.09,4.73c-0.04,0.04-0.06,0.1-0.08,0.15V320.65z M381.07,325.93
					c0.09,0.16,0.25,0.27,0.43,0.25l7.79-0.51l-0.28,7.8c0,0.09,0.03,0.18,0.07,0.26h-8.01V325.93z M363.42,306.16h8.01v7.8
					c-0.09-0.16-0.25-0.27-0.43-0.25l-7.79,0.51l0.28-7.8C363.5,306.32,363.47,306.23,363.42,306.16z M363.37,325.51l7.8,0.29
					c0.09,0,0.18-0.03,0.26-0.07v8.01h-7.8c0.16-0.09,0.26-0.25,0.25-0.43L363.37,325.51z M366.57,320.65h4.87v4.27L366.57,320.65z
					 M365.75,319.72l5.6-5.2c0.04-0.04,0.06-0.1,0.09-0.15v5.36H365.75z M358.11,306.16h4.51l-4.51,5.14V306.16z M358.11,312.71
					l4.4-5.02l-0.26,7.01c-0.01,0.13,0.05,0.26,0.14,0.35c0.09,0.09,0.23,0.14,0.35,0.13l7-0.46l-5.14,4.78
					c-0.06,0.06-0.1,0.14-0.12,0.22h-6.38V312.71z M358.11,320.65h7.04l4.75,4.16l-7.01-0.26c-0.13,0.01-0.26,0.05-0.35,0.14
					c-0.09,0.09-0.14,0.22-0.13,0.36l0.46,7l-4.76-5.12V320.65z M358.11,328.3l4.97,5.34c0.04,0.04,0.1,0.06,0.15,0.08h-5.12V328.3z
					 M358.11,341.88h4.51l-4.51,5.14V341.88z M358.11,348.43l4.4-5.02l-0.26,7.01c-0.01,0.13,0.05,0.26,0.14,0.35
					c0.09,0.09,0.23,0.14,0.35,0.13l7-0.46l-5.14,4.78c-0.06,0.06-0.1,0.14-0.12,0.22h-6.38V348.43z M363.42,341.88h8.01v7.8
					c-0.09-0.16-0.25-0.27-0.43-0.25l-7.79,0.51l0.28-7.8C363.5,342.04,363.47,341.95,363.42,341.88z M363.37,361.22l7.8,0.29
					c0.09,0.01,0.18-0.02,0.26-0.07v8.01h-7.8c0.16-0.09,0.26-0.25,0.25-0.43L363.37,361.22z M366.57,356.37h4.87v4.27
					L366.57,356.37z M365.75,355.43l5.6-5.2c0.04-0.04,0.06-0.1,0.09-0.15v5.35H365.75z M358.11,356.37h7.04l4.75,4.16l-7.01-0.26
					c-0.13,0-0.26,0.05-0.35,0.14c-0.09,0.09-0.14,0.22-0.13,0.36l0.46,7l-4.76-5.12V356.37z M358.11,364.02l4.97,5.34
					c0.04,0.04,0.1,0.06,0.15,0.08h-5.12V364.02z M358.11,377.59h4.51l-4.51,5.14V377.59z M364.62,390.93
					c-0.06,0.06-0.1,0.14-0.12,0.22h-6.38v-7.01l4.4-5.02l-0.26,7.01c-0.01,0.13,0.05,0.26,0.14,0.35c0.09,0.09,0.23,0.14,0.35,0.13
					l7-0.46L364.62,390.93z M371.43,396.35l-4.87-4.27h4.87V396.35z M371.43,391.15h-5.68l5.6-5.2c0.04-0.04,0.06-0.1,0.09-0.15
					V391.15z M371.43,385.39c-0.09-0.16-0.25-0.27-0.43-0.25l-7.79,0.51l0.28-7.8c0-0.09-0.03-0.18-0.07-0.26h8.01V385.39z
					 M381.15,396.81c-0.04,0.04-0.06,0.1-0.08,0.15v-4.88h5.17L381.15,396.81z M381.07,391.15v-4.74l5.41,4.74H381.07z
					 M389.13,385.82l-7.8-0.28c-0.09,0-0.18,0.03-0.26,0.08v-8.02h7.8c-0.16,0.09-0.26,0.25-0.25,0.43L389.13,385.82z
					 M394.39,391.15h-6.5c-0.01-0.01-0.01-0.01-0.01-0.02l-5.27-4.62l7.01,0.26c0.14,0,0.26-0.05,0.35-0.14
					c0.09-0.09,0.14-0.22,0.13-0.36l-0.46-7l4.76,5.12V391.15z M394.39,383.02l-4.97-5.34c-0.04-0.04-0.1-0.06-0.15-0.08h5.12
					V383.02z M394.39,374.07v0.35v2.23H380.6c-0.26,0-0.47,0.21-0.47,0.47v14.02h-3.87c-0.07,0-0.13,0.02-0.19,0.04
					c-0.06-0.03-0.12-0.04-0.19-0.04h-3.53v-14.02c0-0.26-0.21-0.47-0.47-0.47h-13.79v-2.23v-0.35v-3.7h13.79
					c0.26,0,0.47-0.21,0.47-0.47v-13.55h3.53c0.07,0,0.13-0.02,0.19-0.04c0.06,0.03,0.12,0.04,0.19,0.04h3.87v13.55
					c0,0.26,0.21,0.47,0.47,0.47h13.79V374.07z M389.13,350.1l-7.8-0.28c-0.09,0-0.18,0.03-0.26,0.08v-8.02h7.8
					c-0.16,0.09-0.26,0.25-0.25,0.43L389.13,350.1z M386.48,355.43h-5.41v-4.74L386.48,355.43z M386.24,356.37l-5.09,4.73
					c-0.04,0.04-0.06,0.1-0.08,0.15v-4.88H386.24z M381.5,361.9l7.79-0.51l-0.28,7.8c0,0.09,0.03,0.18,0.07,0.26h-8.01v-7.8
					C381.15,361.81,381.32,361.92,381.5,361.9z M394.39,369.45h-4.51l4.51-5.14V369.45z M394.39,362.89l-4.4,5.02l0.26-7.01
					c0.01-0.13-0.05-0.26-0.14-0.35c-0.09-0.08-0.2-0.13-0.32-0.13c-0.01,0-0.02,0-0.03,0l-7,0.46l4.86-4.52h6.78V362.89z
					 M394.39,355.43h-6.5c-0.01,0-0.01-0.01-0.01-0.02l-5.27-4.62l7.01,0.26c0.14,0.01,0.26-0.05,0.35-0.14
					c0.09-0.09,0.14-0.22,0.13-0.36l-0.46-7l4.76,5.12V355.43z M394.39,347.3l-4.97-5.34c-0.04-0.04-0.1-0.06-0.15-0.08h5.12V347.3z
					 M394.39,338.36v0.35v2.23H380.6c-0.26,0-0.47,0.21-0.47,0.47v14.02h-3.87c-0.07,0-0.13,0.02-0.19,0.04
					c-0.06-0.03-0.12-0.04-0.19-0.04h-3.53v-14.02c0-0.26-0.21-0.47-0.47-0.47h-13.79v-2.23v-0.35v-3.7h13.79
					c0.26,0,0.47-0.21,0.47-0.47v-13.55h3.53c0.07,0,0.13-0.02,0.19-0.04c0.06,0.03,0.12,0.04,0.19,0.04h3.87v13.55
					c0,0.26,0.21,0.47,0.47,0.47h13.79V338.36z M394.39,333.73h-4.51l4.51-5.14V333.73z M394.39,327.18l-4.4,5.02l0.26-7.01
					c0.01-0.13-0.05-0.26-0.14-0.35c-0.09-0.08-0.2-0.13-0.32-0.13c-0.01,0-0.02,0-0.03,0l-7,0.46l4.86-4.52h6.78V327.18z
					 M394.39,319.72h-6.5c-0.01-0.01-0.01-0.01-0.01-0.02l-5.27-4.62l7.01,0.26c0.14,0,0.26-0.05,0.35-0.14
					c0.09-0.09,0.14-0.22,0.13-0.36l-0.46-7l4.76,5.12V319.72z M394.39,311.59l-4.97-5.34c-0.04-0.04-0.1-0.06-0.15-0.08h5.12
					V311.59z M418.27,306.16h7.8c-0.16,0.09-0.26,0.25-0.25,0.43l0.51,7.79l-7.8-0.28c-0.1,0-0.19,0.03-0.26,0.07V306.16z
					 M418.27,314.97l5.41,4.74h-5.41V314.97z M418.27,320.65h5.17l-5.09,4.73c-0.04,0.04-0.06,0.1-0.08,0.15V320.65z M418.27,325.93
					c0.08,0.16,0.24,0.26,0.43,0.25l7.79-0.51l-0.29,7.8c0,0.09,0.03,0.18,0.07,0.26h-8.01V325.93z M400.63,306.16h8.01v7.8
					c-0.08-0.16-0.23-0.27-0.43-0.25l-7.79,0.51l0.28-7.8C400.7,306.32,400.67,306.23,400.63,306.16z M400.58,325.51l7.8,0.29
					c0.11,0,0.19-0.03,0.26-0.07v8.01h-7.8c0.16-0.09,0.26-0.25,0.25-0.43L400.58,325.51z M403.77,320.65h4.87v4.27L403.77,320.65z
					 M402.95,319.72l5.6-5.2c0.04-0.04,0.06-0.1,0.08-0.15v5.35H402.95z M395.32,306.16h4.51l-4.51,5.14V306.16z M395.32,312.71
					l4.4-5.02l-0.26,7.01c-0.01,0.13,0.05,0.26,0.14,0.35c0.09,0.09,0.22,0.14,0.36,0.13l7-0.46l-5.14,4.78
					c-0.06,0.06-0.1,0.14-0.12,0.22h-6.38V312.71z M395.32,320.65h7.04l4.75,4.16l-7.01-0.26c-0.15,0.01-0.26,0.05-0.35,0.14
					c-0.09,0.09-0.14,0.22-0.13,0.36l0.46,7l-4.76-5.12V320.65z M395.32,328.3l4.97,5.34c0.04,0.04,0.1,0.06,0.15,0.08h-5.11V328.3z
					 M395.32,341.88h4.51l-4.51,5.14V341.88z M395.32,348.43l4.4-5.02l-0.26,7.01c-0.01,0.13,0.05,0.26,0.14,0.35
					c0.09,0.09,0.22,0.14,0.36,0.13l7-0.46l-5.14,4.78c-0.06,0.06-0.1,0.14-0.12,0.22h-6.38V348.43z M400.63,341.88h8.01v7.8
					c-0.08-0.16-0.23-0.26-0.43-0.25l-7.79,0.51l0.28-7.8C400.7,342.04,400.67,341.95,400.63,341.88z M400.58,361.22l7.8,0.29
					c0.11,0.01,0.19-0.02,0.26-0.07v8h-7.8c0.16-0.09,0.26-0.25,0.25-0.43L400.58,361.22z M403.77,356.37h4.87v4.27L403.77,356.37z
					 M402.95,355.43l5.6-5.2c0.04-0.04,0.06-0.1,0.08-0.15v5.35H402.95z M395.32,356.37h7.04l4.75,4.16l-7.01-0.26
					c-0.15,0-0.26,0.05-0.35,0.14c-0.09,0.09-0.14,0.22-0.13,0.36l0.46,7l-4.76-5.12V356.37z M395.32,364.02l4.97,5.34
					c0.04,0.04,0.1,0.06,0.15,0.08h-5.11V364.02z M395.32,377.59h4.51l-4.51,5.14V377.59z M395.32,384.15l4.4-5.02l-0.26,7.01
					c-0.01,0.13,0.05,0.26,0.14,0.35c0.09,0.09,0.22,0.14,0.36,0.13l7-0.46l-5.14,4.78c-0.06,0.06-0.1,0.14-0.12,0.22h-6.38V384.15z
					 M400.1,395.99c-0.15,0.01-0.26,0.05-0.35,0.14c-0.09,0.09-0.14,0.22-0.13,0.36l0.46,7l-4.76-5.12v-6.28h7.04l4.75,4.16
					L400.1,395.99z M408.64,396.35l-4.87-4.27h4.87V396.35z M408.64,391.15h-5.68l5.6-5.2c0.04-0.04,0.06-0.1,0.08-0.15V391.15z
					 M408.64,385.38c-0.09-0.16-0.24-0.26-0.43-0.24l-7.79,0.51l0.28-7.8c0-0.09-0.03-0.18-0.07-0.26h8.01V385.38z M418.36,396.81
					c-0.04,0.04-0.06,0.1-0.08,0.15v-4.88h5.17L418.36,396.81z M418.27,391.15v-4.74l5.41,4.74H418.27z M426.33,385.82l-7.8-0.28
					c-0.1,0-0.19,0.03-0.26,0.07v-8.01h7.8c-0.16,0.09-0.26,0.25-0.25,0.43L426.33,385.82z M431.59,391.15h-6.5
					c-0.01-0.01-0.01-0.01-0.01-0.02l-5.27-4.62l7.01,0.26c0.16,0,0.26-0.05,0.35-0.14c0.09-0.09,0.14-0.22,0.13-0.36l-0.46-7
					l4.76,5.12V391.15z M431.59,383.02l-4.97-5.34c-0.04-0.04-0.1-0.06-0.15-0.08h5.12V383.02z M431.59,374.07v0.35v2.23h-13.79
					c-0.26,0-0.47,0.21-0.47,0.47v14.02h-3.87c-0.07,0-0.13,0.02-0.19,0.04c-0.06-0.03-0.12-0.04-0.19-0.04h-3.53v-14.02
					c0-0.26-0.21-0.47-0.47-0.47h-13.79v-2.23v-0.35v-3.7h13.79c0.26,0,0.47-0.21,0.47-0.47v-13.55h3.53c0.07,0,0.13-0.02,0.19-0.04
					c0.06,0.03,0.12,0.04,0.19,0.04h3.87v13.55c0,0.26,0.21,0.47,0.47,0.47h13.79V374.07z M426.33,350.1l-7.8-0.28
					c-0.1,0-0.19,0.03-0.26,0.07v-8.01h7.8c-0.16,0.09-0.26,0.25-0.25,0.43L426.33,350.1z M423.68,355.43h-5.41v-4.74L423.68,355.43
					z M423.44,356.37l-5.09,4.73c-0.04,0.04-0.06,0.1-0.08,0.15v-4.88H423.44z M418.7,361.9l7.79-0.51l-0.29,7.8
					c0,0.09,0.03,0.18,0.07,0.26h-8.01v-7.8C418.36,361.81,418.51,361.91,418.7,361.9z M431.59,369.45h-4.51l4.51-5.14V369.45z
					 M431.59,362.89l-4.4,5.02l0.26-7.01c0-0.13-0.05-0.26-0.14-0.35c-0.09-0.08-0.2-0.13-0.32-0.13c-0.01,0-0.02,0-0.03,0l-7,0.46
					l4.86-4.52h6.78V362.89z M431.59,355.43h-6.5c-0.01,0-0.01-0.01-0.01-0.02l-5.27-4.62l7.01,0.26c0.16,0.01,0.26-0.05,0.35-0.14
					c0.09-0.09,0.14-0.22,0.13-0.36l-0.46-7l4.76,5.12V355.43z M431.59,347.3l-4.97-5.34c-0.04-0.04-0.1-0.06-0.15-0.08h5.12V347.3z
					 M431.59,338.36v0.35v2.23h-13.79c-0.26,0-0.47,0.21-0.47,0.47v14.02h-3.87c-0.07,0-0.13,0.02-0.19,0.04
					c-0.06-0.03-0.12-0.04-0.19-0.04h-3.53v-14.02c0-0.26-0.21-0.47-0.47-0.47h-13.79v-2.23v-0.35v-3.7h13.79
					c0.26,0,0.47-0.21,0.47-0.47v-13.55h3.53c0.07,0,0.13-0.02,0.19-0.04c0.06,0.03,0.12,0.04,0.19,0.04h3.87v13.55
					c0,0.26,0.21,0.47,0.47,0.47h13.79V338.36z M431.59,333.73h-4.51l4.51-5.14V333.73z M431.59,327.18l-4.4,5.02l0.26-7.01
					c0-0.13-0.05-0.26-0.14-0.35c-0.09-0.08-0.2-0.13-0.32-0.13c-0.01,0-0.02,0-0.03,0l-7,0.46l4.86-4.52h6.78V327.18z
					 M431.59,319.72h-6.5c-0.01-0.01-0.01-0.01-0.01-0.02l-5.27-4.62l7.01,0.26c0.16,0,0.26-0.05,0.35-0.14
					c0.09-0.09,0.14-0.22,0.13-0.36l-0.46-7l4.76,5.12V319.72z M431.59,311.58l-4.97-5.34c-0.04-0.04-0.1-0.06-0.15-0.08h5.12
					V311.58z M437.83,377.59h8.01v7.78c-0.09-0.15-0.24-0.26-0.43-0.24l-7.79,0.51l0.28-7.8
					C437.91,377.76,437.88,377.67,437.83,377.59z M437.03,377.59l-4.51,5.14v-5.14H437.03z M455.48,306.16h7.8
					c-0.16,0.09-0.26,0.25-0.25,0.43l0.51,7.79l-7.8-0.28c-0.1,0-0.18,0.03-0.26,0.07V306.16z M455.48,314.97l5.41,4.74h-5.41
					V314.97z M455.48,320.65h5.17l-5.08,4.73c-0.04,0.04-0.06,0.1-0.08,0.15V320.65z M455.48,325.93c0.08,0.16,0.23,0.26,0.43,0.25
					l7.79-0.51l-0.28,7.8c0,0.09,0.03,0.18,0.07,0.26h-8.01V325.93z M437.83,306.16h8.01v7.8c-0.08-0.16-0.24-0.27-0.43-0.25
					l-7.79,0.51l0.28-7.8C437.91,306.32,437.88,306.23,437.83,306.16z M437.78,325.51l7.8,0.29c0.11,0,0.19-0.03,0.26-0.07v8.01
					h-7.8c0.16-0.09,0.26-0.25,0.25-0.43L437.78,325.51z M440.98,320.65h4.87v4.27L440.98,320.65z M440.16,319.72l5.6-5.2
					c0.04-0.04,0.06-0.1,0.08-0.15v5.35H440.16z M432.52,306.16h4.51l-4.51,5.14V306.16z M432.52,312.71l4.4-5.02l-0.26,7.01
					c0,0.13,0.05,0.26,0.14,0.35c0.09,0.09,0.21,0.14,0.36,0.13l7-0.46l-5.14,4.78c-0.06,0.06-0.1,0.14-0.12,0.22h-6.38V312.71z
					 M432.52,320.65h7.04l4.75,4.16l-7.01-0.26c-0.15,0.01-0.26,0.05-0.35,0.14c-0.09,0.09-0.14,0.22-0.13,0.36l0.46,7l-4.76-5.12
					V320.65z M432.52,328.3l4.97,5.34c0.04,0.04,0.1,0.06,0.15,0.08h-5.11V328.3z M432.52,341.88h4.51l-4.51,5.14V341.88z
					 M432.52,348.43l4.4-5.02l-0.26,7.01c0,0.13,0.05,0.26,0.14,0.35c0.09,0.09,0.21,0.14,0.36,0.13l7-0.46l-5.14,4.78
					c-0.06,0.06-0.1,0.14-0.12,0.22h-6.38V348.43z M432.52,356.37h7.04l4.75,4.16l-7.01-0.26c-0.15,0-0.26,0.05-0.35,0.14
					c-0.09,0.09-0.14,0.22-0.13,0.36l0.46,7l-4.76-5.12V356.37z M432.52,369.45v-5.43l4.97,5.34c0.04,0.04,0.1,0.06,0.15,0.08
					H432.52z M445.84,369.45h-7.8c0.16-0.09,0.26-0.25,0.25-0.43l-0.51-7.79l7.8,0.29c0.11,0.01,0.19-0.02,0.26-0.06V369.45z
					 M445.84,360.63l-4.87-4.27h4.87V360.63z M445.84,355.43h-5.68l5.6-5.2c0.04-0.04,0.06-0.1,0.08-0.15V355.43z M445.84,349.67
					c-0.08-0.16-0.24-0.26-0.43-0.25l-7.79,0.51l0.28-7.8c0-0.09-0.03-0.18-0.07-0.26h8.01V349.67z M463.49,369.45h-8.01v-7.8
					c0.08,0.16,0.23,0.26,0.43,0.25l7.79-0.51l-0.28,7.8C463.41,369.28,463.44,369.37,463.49,369.45z M463.54,350.1l-7.8-0.28
					c-0.1,0-0.18,0.03-0.26,0.07v-8.01h7.8c-0.16,0.09-0.26,0.25-0.25,0.43L463.54,350.1z M460.89,355.43h-5.41v-4.74L460.89,355.43
					z M460.65,356.37l-5.08,4.73c-0.04,0.04-0.06,0.1-0.08,0.15v-4.88H460.65z M468.8,369.45h-4.51l4.51-5.14V369.45z M468.8,362.89
					l-4.4,5.02l0.26-7.01c0-0.13-0.05-0.26-0.14-0.35c-0.09-0.08-0.2-0.13-0.32-0.13c-0.01,0-0.02,0-0.03,0l-7,0.46l4.86-4.52h6.78
					V362.89z M468.8,355.43h-6.5c-0.01,0-0.01-0.01-0.01-0.02l-5.27-4.62l7.01,0.26c0.15,0.01,0.26-0.05,0.35-0.14
					c0.09-0.09,0.14-0.22,0.13-0.36l-0.46-7l4.76,5.12V355.43z M468.8,347.3l-4.97-5.34c-0.04-0.04-0.1-0.06-0.15-0.08h5.12V347.3z
					 M468.8,338.36v0.35v2.23h-13.79c-0.26,0-0.47,0.21-0.47,0.47v14.02h-3.87c-0.07,0-0.13,0.02-0.19,0.04
					c-0.06-0.03-0.12-0.04-0.19-0.04h-3.53v-14.02c0-0.26-0.21-0.47-0.47-0.47h-13.79v-2.23v-0.35v-3.7h13.79
					c0.26,0,0.47-0.21,0.47-0.47v-13.55h3.53c0.07,0,0.13-0.02,0.19-0.04c0.06,0.03,0.12,0.04,0.19,0.04h3.87v13.55
					c0,0.26,0.21,0.47,0.47,0.47h13.79V338.36z M468.8,333.73h-4.51l4.51-5.14V333.73z M468.8,327.18l-4.4,5.02l0.26-7.01
					c0-0.13-0.05-0.26-0.14-0.35c-0.09-0.08-0.2-0.13-0.32-0.13c-0.01,0-0.02,0-0.03,0l-7,0.46l4.86-4.52h6.78V327.18z
					 M468.8,319.72h-6.5c-0.01-0.01-0.01-0.01-0.01-0.02l-5.27-4.62l7.01,0.26c0.15,0,0.26-0.05,0.35-0.14
					c0.09-0.09,0.14-0.22,0.13-0.36l-0.46-7l4.76,5.12V319.72z M468.8,311.59l-4.97-5.34c-0.04-0.04-0.1-0.06-0.15-0.08h5.12V311.59
					z M492.68,306.16h7.8c-0.16,0.09-0.26,0.25-0.25,0.43l0.51,7.79l-7.8-0.28c-0.1,0-0.18,0.03-0.26,0.08V306.16z M492.68,314.97
					l5.41,4.74h-5.41V314.97z M492.68,320.65h5.17l-5.09,4.73c-0.04,0.04-0.06,0.1-0.08,0.15V320.65z M492.68,325.93
					c0.08,0.16,0.23,0.26,0.43,0.25l7.79-0.51l-0.28,7.8c0,0.09,0.03,0.18,0.07,0.26h-8.01V325.93z M475.04,306.16h8.01v7.8
					c-0.08-0.16-0.24-0.27-0.43-0.25l-7.79,0.51l0.29-7.8C475.11,306.32,475.08,306.23,475.04,306.16z M474.99,325.51l7.8,0.29
					c0.1,0,0.19-0.03,0.26-0.07v8.01h-7.8c0.16-0.09,0.26-0.25,0.25-0.43L474.99,325.51z M478.18,320.65h4.87v4.27L478.18,320.65z
					 M477.36,319.72l5.6-5.2c0.04-0.04,0.06-0.1,0.08-0.15v5.35H477.36z M469.73,306.16h4.51l-4.51,5.14V306.16z M469.73,312.71
					l4.4-5.02l-0.26,7.01c0,0.13,0.05,0.26,0.14,0.35c0.09,0.09,0.21,0.14,0.36,0.13l7-0.46l-5.14,4.78
					c-0.06,0.06-0.1,0.14-0.12,0.22h-6.38V312.71z M469.73,320.65h7.04l4.75,4.16l-7.01-0.26c-0.15,0.01-0.26,0.05-0.35,0.14
					c-0.09,0.09-0.14,0.22-0.13,0.36l0.46,7l-4.76-5.12V320.65z M469.73,328.3l4.97,5.34c0.04,0.04,0.1,0.06,0.15,0.08h-5.11V328.3z
					 M469.73,341.88h4.51l-4.51,5.14V341.88z M469.73,348.43l4.4-5.02l-0.26,7.01c0,0.13,0.05,0.26,0.14,0.35
					c0.09,0.09,0.21,0.14,0.36,0.13l7-0.46l-5.14,4.78c-0.06,0.06-0.1,0.14-0.12,0.22h-6.38V348.43z M469.73,369.45v-5.43l4.97,5.34
					c0.04,0.04,0.1,0.06,0.15,0.08H469.73z M474.51,360.27c-0.15,0-0.26,0.05-0.35,0.14c-0.09,0.09-0.14,0.22-0.13,0.36l0.46,7
					l-4.76-5.12v-6.29h7.04l4.75,4.16L474.51,360.27z M483.05,360.63l-4.87-4.27h4.87V360.63z M483.05,355.43h-5.68l5.6-5.2
					c0.04-0.04,0.06-0.1,0.08-0.15V355.43z M483.05,349.67c-0.08-0.16-0.24-0.26-0.43-0.25l-7.79,0.51l0.29-7.8
					c0-0.09-0.03-0.18-0.07-0.26h8.01V349.67z M492.77,361.09c-0.04,0.04-0.06,0.1-0.08,0.15v-4.88h5.17L492.77,361.09z
					 M492.68,355.43v-4.74l5.41,4.74H492.68z M500.74,350.1l-7.8-0.28c-0.1,0-0.18,0.03-0.26,0.07v-8.01h7.8
					c-0.16,0.09-0.26,0.25-0.25,0.43L500.74,350.1z M506,355.43h-6.5c-0.01,0-0.01-0.01-0.01-0.02l-5.27-4.62l7.01,0.26
					c0.16,0.01,0.26-0.05,0.35-0.14c0.09-0.09,0.14-0.22,0.13-0.36l-0.46-7l4.76,5.12V355.43z M506,347.3l-4.97-5.34
					c-0.04-0.04-0.1-0.06-0.15-0.08H506V347.3z M506,338.36v0.35v2.23h-13.79c-0.26,0-0.47,0.21-0.47,0.47v14.02h-3.87
					c-0.07,0-0.13,0.02-0.19,0.04c-0.06-0.03-0.12-0.04-0.19-0.04h-3.53v-14.02c0-0.26-0.21-0.47-0.47-0.47h-13.78v-2.23v-0.35v-3.7
					h13.78c0.26,0,0.47-0.21,0.47-0.47v-13.55h3.53c0.07,0,0.13-0.02,0.19-0.04c0.06,0.03,0.12,0.04,0.19,0.04h3.87v13.55
					c0,0.26,0.21,0.47,0.47,0.47H506V338.36z M506,333.73h-4.51l4.51-5.14V333.73z M506,327.18l-4.4,5.02l0.26-7.01
					c0-0.13-0.05-0.26-0.14-0.35c-0.09-0.08-0.2-0.13-0.32-0.13c-0.01,0-0.02,0-0.03,0l-7,0.46l4.86-4.52H506V327.18z M506,319.72
					h-6.5c-0.01-0.01-0.01-0.01-0.01-0.02l-5.27-4.62l7.01,0.26c0.16,0,0.26-0.05,0.35-0.14c0.09-0.09,0.14-0.22,0.13-0.36l-0.46-7
					l4.76,5.12V319.72z M506,311.59l-4.97-5.34c-0.04-0.04-0.1-0.06-0.15-0.08H506V311.59z M511.44,341.88l-4.51,5.14v-5.14H511.44z
					 M506.93,306.16h4.51l-4.51,5.14V306.16z M506.93,312.71l4.4-5.02l-0.26,7.01c0,0.13,0.05,0.26,0.14,0.35
					c0.09,0.09,0.22,0.14,0.36,0.13l7-0.46l-5.14,4.78c-0.06,0.06-0.1,0.14-0.12,0.22h-6.38V312.71z M506.93,320.65h7.04l4.75,4.16
					l-7.01-0.26c-0.14,0.01-0.26,0.05-0.35,0.14c-0.09,0.09-0.14,0.22-0.13,0.36l0.46,7l-4.76-5.12V320.65z M506.93,333.73v-5.43
					l4.97,5.34c0.04,0.04,0.1,0.06,0.15,0.08H506.93z M520.25,333.73h-7.8c0.16-0.09,0.26-0.25,0.25-0.43l-0.51-7.79l7.8,0.29
					c0.11,0,0.19-0.03,0.26-0.07V333.73z M520.25,324.92l-4.87-4.27h4.87V324.92z M520.25,319.72h-5.68l5.6-5.2
					c0.04-0.04,0.06-0.1,0.08-0.15V319.72z M520.25,313.96c-0.08-0.16-0.24-0.27-0.43-0.25l-7.79,0.51l0.29-7.8
					c0-0.09-0.03-0.18-0.07-0.26h8.01V313.96z M529.89,306.16h7.8c-0.16,0.09-0.26,0.25-0.25,0.43l0.51,7.79l-7.8-0.28
					c-0.1,0-0.18,0.03-0.26,0.08V306.16z M529.89,314.97l5.41,4.74h-5.41V314.97z M529.89,320.65h5.17l-5.09,4.73
					c-0.04,0.04-0.06,0.1-0.08,0.15V320.65z M537.9,333.73h-8.01v-7.8c0.08,0.16,0.23,0.26,0.43,0.25l7.79-0.51l-0.29,7.8
					C537.82,333.57,537.85,333.65,537.9,333.73z M543.21,333.73h-4.51l4.51-5.14V333.73z M543.21,327.18l-4.4,5.02l0.26-7.01
					c0-0.13-0.05-0.26-0.14-0.35c-0.09-0.08-0.2-0.13-0.32-0.13c-0.01,0-0.02,0-0.03,0l-7,0.46l4.86-4.52h6.78V327.18z
					 M543.21,319.72h-6.5c-0.01-0.01-0.01-0.01-0.01-0.02l-5.27-4.62l7.01,0.26c0.16,0,0.26-0.05,0.35-0.14
					c0.09-0.09,0.14-0.22,0.13-0.36l-0.46-7l4.76,5.12V319.72z M543.21,311.59l-4.97-5.34c-0.04-0.04-0.1-0.06-0.15-0.08h5.12
					V311.59z M544.14,306.16h4.51l-4.51,5.14V306.16z M550.64,319.5c-0.06,0.06-0.1,0.14-0.12,0.22h-6.38v-7.01l4.4-5.02l-0.26,7.01
					c0,0.13,0.05,0.26,0.14,0.35c0.09,0.09,0.22,0.14,0.36,0.13l7-0.46L550.64,319.5z M557.46,324.92l-4.87-4.27h4.87V324.92z
					 M557.46,319.72h-5.68l5.6-5.2c0.04-0.04,0.06-0.1,0.08-0.15V319.72z M557.46,313.96c-0.08-0.16-0.23-0.27-0.43-0.25l-7.79,0.51
					l0.28-7.8c0-0.09-0.03-0.18-0.07-0.26h8.01V313.96z M567.35,314.1c-0.1,0-0.19,0.03-0.26,0.07v-8.01h7.8
					c-0.16,0.09-0.26,0.25-0.25,0.43l0.51,7.79L567.35,314.1z M580.41,311.59l-4.97-5.34c-0.04-0.04-0.1-0.06-0.15-0.08h5.12V311.59
					z M585.85,306.16l-4.51,5.14v-5.14H585.85z"/>
				<path class="st12" d="M528.96,341.41v1.12c0.31-0.18,0.62-0.36,0.93-0.54v-0.11h0.19c0.54-0.31,1.07-0.62,1.61-0.93h-2.27
					C529.16,340.94,528.96,341.15,528.96,341.41z"/>
			</g>
			<path class="st13" d="M182.13,299.01c0,0,178.31,103.76,214.34,105c36.03,1.24,204.9-105,204.9-105H182.13z"/>
		</g>
	</g>
</g>
<g id="Character_3">
	<g>
		<g>
			<g>
				<g>
					<path class="st6" d="M453.3,174.8c0,0-8.73,2.91-11.64,5.82s-4.95,11.35-4.95,13.38c0,2.04,0.58,6.69,0.58,6.69
						s-4.95,4.36-4.95,6.4c0,2.04,2.91,5.53,2.91,5.53s-0.29,3.49,0.29,4.66c0.58,1.16,1.75,2.91,1.75,2.91s0,4.36,2.33,5.53
						c2.33,1.16,5.82-1.16,5.82-1.16l2.33,3.78l26.77-6.4c0,0,0.87-9.6,1.16-11.64c0.29-2.04,8.73-12.22,2.04-24.44
						C471.05,173.63,457.96,171.89,453.3,174.8z"/>
					<path class="st7" d="M480.31,196.13c-3.16-1.6-7.62-3.42-10.42-4.16c-4.36-1.16-10.18-3.49-14.55-2.62
						c-4.36,0.87-9.6,4.07-9.6,4.07l-2.91,1.75c0,0-1.16,3.78-0.87,4.66c0.29,0.87,0.87,3.49,1.45,5.53
						c0.58,2.04,1.45,1.16,2.04-0.29c0.58-1.45,1.45-2.91,2.91-3.2c1.45-0.29,4.36,4.07,4.36,7.86c0,3.78-2.62,4.66-2.62,4.66
						s5.53,5.53,9.02,8.15c1.81,1.36,4.26,1.69,7.05,1.42l8.37-2c0,0,0.87-9.6,1.16-11.64C475.91,208.87,480.1,203.45,480.31,196.13
						z"/>
					<g>
						<path class="st9" d="M478.47,204.37c-0.98,2.4-2.07,4.21-2.53,5.27c-7.31,2.44-16.09,1.34-24.67-3.7
							c-8.06-4.75-11.87-15.11-13.01-18.76c0.5-1.5,1.11-3,1.8-4.26c0.49-0.92,1.04-1.72,1.61-2.3c2.91-2.91,11.64-5.82,11.64-5.82
							c4.65-2.91,17.74-1.16,24.44,11.05C481.77,193.2,480.32,199.82,478.47,204.37z"/>
						<path class="st6" d="M478.47,204.37c-0.98,2.4-2.07,4.21-2.53,5.27c-7.31,2.44-16.09,1.34-24.67-3.7
							c-8.06-4.75-11.87-15.11-13.01-18.76c0.5-1.5,1.11-3,1.8-4.26C443.78,191.34,454.73,209.47,478.47,204.37z"/>
					</g>
				</g>
				<path class="st6" d="M445.16,232.41l0.87-6.11c0,0,8.73-4.66,18.62-5.82c9.89-1.16,13.38,0.87,13.38,0.87l3.78,8.15
					C481.82,229.5,467.56,225.43,445.16,232.41z"/>
			</g>
			<path class="st6" d="M411.11,265.87c0,0-3.2-3.2-4.36-1.45c-1.16,1.75-1.75,4.36-1.75,4.36s-3.2,0.87-3.49,2.33
				c-0.29,1.45-0.29,1.45-0.29,1.45s-3.2,2.04-3.2,3.49s-0.29,3.49,0.29,4.95c0.58,1.45,2.91,3.78,2.91,3.78l0.87,5.53l9.6-3.78
				l4.95-14.55c0,0,0.58-2.04,0-2.91c-0.58-0.87-3.78-1.75-3.78-1.75L411.11,265.87z"/>
			<g>
				<path class="st7" d="M424.79,330.75c0,0-4.66,8.15-4.07,14.84c0.58,6.69,23.86,62.27,23.86,62.27s-0.58,4.36,0,5.24
					c0.58,0.87,1.16,2.91,1.16,2.91h13.97c0,0,0.87-6.69,0.29-8.73c-0.58-2.04-1.75-2.91-2.04-3.78
					c-0.29-0.87-7.86-52.37-7.86-52.37h31.13l-4.66,52.96c0,0-3.2,3.78-3.2,5.82c0,2.04,0,6.69,0,6.69h11.64c0,0,3.2-3.78,3.78-6.98
					c0.58-3.2,1.16-6.98,1.16-6.98s11.64-39.86,13.38-43.64c1.75-3.78,5.24-11.93,2.04-21.24c-3.2-9.31-5.24-10.77-6.11-11.64
					c-0.87-0.87-71.29,3.2-71.29,3.2L424.79,330.75z"/>
				<g>
					<path class="st6" d="M445.74,416.01c0,0-0.97,8.73-0.69,13.36c0.08,1.33,1.2,2.36,2.53,2.36h13.29c0,0,1.45-1.45,1.45-2.91
						s-2.62-12.8-2.62-12.8H445.74z"/>
					<path class="st6" d="M462.32,428.81c0-0.83-0.84-4.83-1.57-8.15h-15.44c-0.22,2.81-0.41,6.3-0.26,8.7
						c0.08,1.33,1.2,2.36,2.53,2.36h13.29C460.87,431.72,462.32,430.26,462.32,428.81z"/>
				</g>
				<g>
					<path class="st6" d="M485.65,416.01c0,0,0.86,8.73,0.61,13.36c-0.07,1.33-1.06,2.36-2.24,2.36h-11.78c0,0-1.29-1.45-1.29-2.91
						s2.32-12.8,2.32-12.8H485.65z"/>
					<path class="st6" d="M470.95,428.81c0-0.83,0.75-4.83,1.39-8.15h13.69c0.19,2.81,0.36,6.3,0.23,8.7
						c-0.07,1.33-1.06,2.36-2.24,2.36h-11.78C472.24,431.72,470.95,430.26,470.95,428.81z"/>
				</g>
			</g>
			<g>
				<path class="st6" d="M447.19,230.66c0,0-28.81,19.2-29.39,21.24c-0.58,2.04-5.24,29.68-5.24,29.68s-4.07-1.16-7.86,2.04
					c-3.78,3.2-4.07,6.11-4.07,6.11s3.78,20.08,7.27,23.28c3.49,3.2,11.64,2.33,15.13-0.29c3.49-2.62,7.57-18.91,7.57-18.91
					l2.33-6.4l-1.16,28.81c0,0-2.62,6.11-3.2,7.27c-0.58,1.16-6.69,7.86-5.24,10.47c1.45,2.62,1.45,2.62,1.45,2.62l3.78-1.45
					l-3.49,4.66c0,0,2.91,9.89,4.36,11.64c1.45,1.75,6.69,4.66,9.89,5.53c3.2,0.87,51.94,1.89,53.83,0
					c1.89-1.89,9.89-7.86,11.64-10.77c1.75-2.91,2.33-10.18,2.33-11.06s-1.75-4.95-1.75-4.95l2.91,0.29c0,0-0.29-3.49-1.75-7.57
					c-1.45-4.07-3.49-7.57-3.49-7.57l1.75-22.11c0,0,0.87,11.35,2.91,13.09c2.04,1.75,8.15,2.04,11.64,0.29
					c3.49-1.75,6.4-8.44,6.98-11.06c0.58-2.62-2.04-9.31-3.78-11.35c-1.75-2.04-4.66-5.24-4.95-7.27
					c-0.29-2.04-7.86-27.93-7.86-27.93s1.45-2.04-0.58-4.07c-2.04-2.04-11.64-5.82-13.09-6.69c-1.45-0.87-6.4-3.78-7.27-4.36
					c-0.87-0.58-6.98-4.36-6.98-4.36S460.29,224.55,447.19,230.66z"/>
				<path class="st2" d="M412.57,281.58c0,0-5.82,16.58-5.24,18.62c0.58,2.04,3.49,5.24,3.49,5.24"/>
				<line class="st2" x1="504.8" y1="293.22" x2="507.13" y2="261.21"/>
				<line class="st2" x1="432.94" y1="287.4" x2="432.65" y2="263.25"/>
				<path class="st2" d="M485.31,255.69c0,0-15.71,15.42-17.17,16.88"/>
				<line class="st2" x1="473.96" y1="262.67" x2="465.23" y2="274.6"/>
				<line class="st2" x1="465.81" y1="268.49" x2="462.03" y2="274.6"/>
			</g>
		</g>
		<g>
			<polygon class="st6" points="432.35,363.34 428.28,432.3 432.35,432.3 439.92,363.05 			"/>
			<polygon class="st6" points="501.02,363.34 505.09,432.3 501.02,432.3 493.46,363.05 			"/>
			<rect x="442.48" y="292.35" class="st6" width="4.36" height="68.38"/>
			<rect x="458.19" y="292.35" class="st6" width="4.36" height="68.38"/>
			<rect x="473.9" y="292.35" class="st6" width="4.36" height="68.38"/>
			<rect x="489.61" y="292.35" class="st6" width="4.36" height="68.38"/>
			<polygon class="st6" points="502.71,294.97 432.12,294.97 431.19,274.31 503.64,274.31 			"/>
			
				<rect x="430.03" y="272.56" transform="matrix(0.999 -0.0442 0.0442 0.999 -13.583 19.4022)" class="st6" width="4.07" height="88.74"/>
			
				<rect x="501.6" y="272.56" transform="matrix(-0.999 -0.0442 0.0442 -0.999 992.7828 655.8122)" class="st6" width="4.07" height="88.74"/>
			<rect x="429.74" y="358.98" class="st6" width="76.23" height="5.24"/>
		</g>
	</g>
</g>
<g id="Floor">
	<line class="st2" x1="58.55" y1="432.44" x2="728.17" y2="432.44"/>
</g>
</svg>
