<?xml version="1.0" encoding="utf-8"?>
<!-- Generator: Adobe Illustrator 24.3.0, SVG Export Plug-In . SVG Version: 6.00 Build 0)  -->
<svg version="1.1" id="Layer_1" xmlns="http://www.w3.org/2000/svg" xmlns:xlink="http://www.w3.org/1999/xlink" x="0px" y="0px"
	 viewBox="0 0 4000 4000" style="enable-background:new 0 0 4000 4000;" xml:space="preserve">
<style type="text/css">
	.st0{fill:#FFEC5E;}
	.st1{fill:#F9A332;}
	.st2{opacity:0.3;}
	.st3{fill:#6D184E;}
	.st4{fill:#48C75A;}
	.st5{opacity:0.6;}
	.st6{fill:#FFFFFF;}
	.st7{fill:#DB2839;}
	.st8{opacity:0.45;}
	.st9{fill:#FCAF15;}
	.st10{fill:#F8CE36;}
	.st11{opacity:0.5;}
	.st12{fill:#FCE69F;}
	.st13{opacity:0.39;}
	.st14{fill:#E5525F;}
</style>
<g>
	<g>
		<g>
			<rect class="st0" width="4000" height="4000"/>
		</g>
	</g>
	<g>
		<g>
			<g>
				<path class="st1" d="M3000.37,1854.78c0,0,211.13,275.35-332.64,635.69S1365.84,2970.05,1214.98,2582
					s-10.01-273.15,569.62-339.58S2750.15,1573.3,2843.39,1639C2936.62,1704.71,3000.37,1854.78,3000.37,1854.78z"/>
			</g>
		</g>
		<g>
			<g class="st2">
				<g>
					<path class="st3" d="M1160.9,2355c5.88,42.67,24.27,99.68,54.08,176.36c150.86,388.06,908.97,268.82,1452.75-91.52
						c284.3-188.4,362.22-353.53,371.87-468.25c0.15,1.7,0.28,3.41,0.4,5.14c-1.05-15.22-3.21-29.2-6.04-41.8
						c-23.14,111.79-112.47,261.43-366.23,429.59c-202.42,134.14-433.03,234.75-652.47,288.33c-66.32,15.72-235.8,49.62-282.35,1.66
						c-58.42-60.19,41.39-132,132.76-74.35c184.98,116.73,296.74-15.02,338.1-63.73c41.36-48.7,92.05-72.58,212.42-86.74
						c120.37-14.16,177.02-84.97,240.74-185.87c63.73-100.9,176.13,4.43,248.71-126.57c72.58-130.99,10.62-149.58,119.49-172.59
						l-11.51-51.79c0,0-94.57,13.8-100.83,56.25c-6.26,42.45,24.71,154.85-73.53,190.26c-98.24,35.4-190.13-18.41-241.55,61.16
						c-51.41,79.57-99.21,172.49-273.57,188.87c-174.36,16.38-176.13,230.57-423.95,135.87c-247.82-94.7-226.05,122.69-323.23,108.7
						c-97.18-13.99-48.5-96.31-123.74-82.14c-44.19,8.32-81.27,40-104.36,64.72c-60.78-38.44-107.01-91.39-133.89-160.52
						c-19.69-50.64-34.35-92.65-43.78-127.68c-6.16,9.67-9.95,21.14-11.52,34.72C1160,2360.3,1160.39,2357.6,1160.9,2355z"/>
				</g>
			</g>
		</g>
		<g>
			<g>
				<path class="st3" d="M1683.53,2846.52c-87.67,0-167.11-10.96-236.33-32.93c-127.04-40.33-212.66-115.33-254.49-222.93
					c-53.52-137.65-75.95-222.37-41.32-275.8c37.51-57.86,128.43-62.38,293.49-70.6c89.64-4.46,201.2-10.01,336.99-25.58
					c360.5-41.31,643.82-293.79,831.3-460.85c125.37-111.72,194.43-173.28,243.98-138.35c92.03,64.86,154.9,202.43,164.12,223.46
					c10.59,15.21,58.3,91.69,38.65,209.2c-25.85,154.56-153.36,308.74-379,458.27c-196.29,130.08-426.45,232.5-648.06,288.41
					C1906.88,2830.59,1789.23,2846.52,1683.53,2846.52z M2826.41,1657.96c-5.5,0-19.15,3.14-49,24.1
					c-34.79,24.42-80.04,64.75-132.44,111.45c-191.98,171.08-482.1,429.62-857.65,472.65c-137.32,15.74-249.73,21.33-340.06,25.83
					c-139.44,6.94-231.56,11.53-255.76,48.87c-23.15,35.71,1.55,118.76,45.76,232.49c36.33,93.45,111.84,158.96,224.41,194.7
					c291.46,92.51,793.13-32.58,1192.86-297.49c210.28-139.35,334.07-286.21,357.99-424.7c18.74-108.54-29.14-173.9-31.18-176.63
					c-1.16-1.54-2.2-3.33-2.96-5.1c-0.83-1.96-62.45-144.77-148.75-205.6C2829.59,1658.51,2828.72,1657.96,2826.41,1657.96z"/>
			</g>
		</g>
		<g>
			<g>
				<path class="st4" d="M1115.12,2337.64c0,0-138.07-21.24-150.46,72.58c-12.39,93.82,139.84,56.65,138.07,129.22
					s-3.54,168.17,152.23,102.67s198.26-148.49,247.82-64.51c49.56,83.98,129.22,69.82,166.4-9.84
					c37.17-79.66,110.25-94.62,253.38-12.79c143.13,81.83,163.93-207.15,359.09-173.96c195.16,33.19,203.57-61.07,308.01-172.59
					c104.44-111.52,323.94,10.62,316.86-150.46s9.74-100.46,106.65-170.82c96.92-70.36,95.59-234.99-94.26-220.39
					C2729.07,1681.35,2256.88,2362.42,1115.12,2337.64z"/>
			</g>
		</g>
		<g class="st5">
			<g>
				<g>
					<path class="st6" d="M3020.48,1820.09c-94.17,73.29-123.6,81.21-111.01,137.72c10.04-35.08,39.04-23.73,103.7-70.68
						c47.84-34.73,71.67-92.42,60.78-140.19C3062.39,1769.47,3041.42,1803.79,3020.48,1820.09z"/>
				</g>
			</g>
			<g>
				<g>
					<path class="st6" d="M2906.14,2048.67c-33.67,112.77-233.62,11.1-334.06,126.07c-111.67,127.82-120.66,235.85-329.32,197.81
						c-151.01-27.53-204.39,138.3-280.36,196.51c109.25,12.72,143.77-217.9,319.27-188.05c195.16,33.19,203.57-61.07,308.01-172.59
						s323.94,10.62,316.86-150.46C2906.39,2054.76,2906.26,2051.69,2906.14,2048.67z"/>
				</g>
			</g>
		</g>
		<g class="st2">
			<g>
				<path class="st3" d="M2437.43,2201.34c84.97-86.74,272.61-127.45,439-279.69c101.22-92.61,94.36-191.98,73.45-255.63
					c-9.73-0.3-20-0.12-30.97,0.73c-189.85,14.6-662.04,695.67-1803.8,670.89c0,0-138.07-21.24-150.46,72.58
					c-12.39,93.82,139.84,56.65,138.07,129.22c-1.77,72.58-3.54,168.17,152.23,102.67c155.77-65.5,198.26-148.49,247.82-64.51
					c49.56,83.98,129.22,69.82,166.4-9.84c37.17-79.66,110.25-94.62,253.38-12.79c143.13,81.83,163.93-207.15,359.09-173.96
					c43.11,7.33,77.08,8.43,105.01,4.51C2380.07,2342.56,2378,2262.01,2437.43,2201.34z"/>
			</g>
		</g>
		<g>
			<g>
				<path class="st3" d="M1169.09,2684.17c-19.43,0-35.64-4.51-48.85-13.52c-40.31-27.49-38.9-85.28-37.77-131.71
					c0.38-15.72-12.38-22.36-50.92-34.35c-38.18-11.87-95.87-29.81-86.99-97.04c3.6-27.24,16.11-49.07,37.2-64.88
					c47.41-35.55,123.29-26.87,135-25.28c819.41,17.4,1283.37-326.3,1560.65-531.71c109.47-81.1,181.79-134.68,239.94-139.15
					c124.81-9.56,161.97,53.79,172.15,81.48c21.65,58.86-5.45,132.67-64.44,175.49c-30.16,21.89-53.04,31.87-69.74,39.15
					c-19.27,8.4-22.92,10.54-25.74,18.63c-5.21,14.95-4.94,47.72-2.83,95.76c1.51,34.47-6.11,60.34-23.31,79.09
					c-29.72,32.4-80.19,34.55-133.63,36.81c-61.04,2.59-124.15,5.27-165.38,49.3c-22.84,24.39-40.66,47.55-57.9,69.95
					c-58.7,76.28-105.05,136.53-268.3,108.76c-87.37-14.85-135.46,43.8-181.99,100.53c-46.1,56.2-98.34,119.88-183.76,71.05
					c-76.82-43.92-135.04-60.06-173.04-48.01c-21.93,6.96-38.92,23.9-51.93,51.78c-21.94,47.02-59.07,76.25-99.33,78.2
					c-39.82,1.98-76.37-21.74-102.87-66.63c-8.8-14.92-16.76-23.1-24.31-25c-14.26-3.57-40.09,12.05-72.79,31.85
					c-32.06,19.4-71.96,43.55-125.43,66.04C1225.69,2676.39,1194.62,2684.17,1169.09,2684.17z M1083.74,2355.82
					c-24.79,0-57.19,3.88-77.73,19.33c-12.17,9.16-19.13,21.49-21.27,37.71c-4.01,30.35,13.9,39.07,58.85,53.04
					c34.01,10.58,80.58,25.06,79.39,74.02c-0.89,36.62-2,82.18,20.09,97.25c17.79,12.14,53.77,7.38,104.04-13.75
					c50.73-21.33,89.23-44.62,120.15-63.34c42.39-25.65,73.02-44.17,103.66-36.47c18.85,4.75,34.52,18.63,49.31,43.69
					c18.48,31.31,41.9,47.78,66.02,46.76c24.96-1.21,49.1-21.72,64.57-54.86c17.82-38.18,43.52-62.83,76.38-73.27
					c49.92-15.87,117.12,0.98,205.41,51.45c53.22,30.42,81.98-0.19,132.33-61.57c48.81-59.51,109.55-133.58,220.11-114.78
					c139.22,23.69,171.24-17.95,229.39-93.54c16.99-22.08,36.25-47.11,60.43-72.93c52.54-56.1,127.29-59.28,193.23-62.08
					c44.8-1.9,87.12-3.7,105.49-23.72c9.56-10.42,13.71-26.75,12.69-49.93c-4.99-113.49,0.94-130.69,52.87-153.32
					c15.83-6.9,35.54-15.48,62.12-34.79c43.89-31.87,65.48-87.21,50.21-128.73c-15.03-40.85-61.54-60.46-131.02-55.07
					c-46.51,3.57-122.6,59.94-218.93,131.3c-136.94,101.45-324.48,240.39-582.88,352.32
					c-305.02,132.13-642.87,195.18-1003.98,187.32c-0.87-0.02-1.75-0.1-2.61-0.22l0,0
					C1105.84,2356.72,1095.67,2355.82,1083.74,2355.82z"/>
			</g>
		</g>
		<g>
			<g>
				<path class="st7" d="M2593.52,1332.17c-24.62,9.85-45.77,25.38-63.15,45.27c-105.72,72.79-336.01,219.34-628.17,334.8
					c-291.14,118.03-558.94,170.85-685.69,191.11c-26.3-2.4-52.33,0.96-76.95,10.81c-112.3,44.95-152.67,207.97-90.17,364.12
					c62.5,156.15,186.64,216.92,316.51,201.33c288.99-39.52,547.28-122.72,758.53-212.18c214.63-81.01,459-199.01,695.43-369.81
					c104.76-78.33,152.67-207.97,90.17-364.12S2705.82,1287.22,2593.52,1332.17z"/>
			</g>
		</g>
		<g class="st8">
			<g>
				<path class="st3" d="M2937.93,1728.7l21.71-83.2c0,0-634.51,56.47-711.61,520.73c-150.41,62.62-323.87,121.55-514.6,163.92
					l-63.62-74.49c0,0-113.02-10.07-164.79-77.78s-138.65-89.31-183.21,15.93c-18.86,44.54-43.15,69.89-64.91,84.36
					c-25.8-29.12-48.02-65.22-65.45-108.75c-38.32-95.74-37.91-194.01-6.02-266.12c-15.63,1.38-31,4.92-45.85,10.86
					c-112.3,44.95-152.67,207.97-90.17,364.12s186.64,216.92,316.51,201.33c288.99-39.52,547.28-122.72,758.53-212.18
					c214.63-81.01,459-199.01,695.43-369.81c17.58-13.15,33.52-27.77,47.65-43.69c-117.54,77.62-235.78,142.81-350.2,197.56
					c-24.5,11.73-48.32-17.1-32.31-39.04C2566.14,1901.17,2727.38,1726.29,2937.93,1728.7z M1363.67,2353.7
					c-18.63-7.32-23.15-31.58-8.01-44.68c23-19.9,44.85-40.63,55.08-55.47c15.59-22.6,38.5,30.72,107.13,67.62
					c22.48,12.08,16.56,45.94-8.73,49.41c-0.4,0.05-0.8,0.11-1.2,0.16C1457.94,2376.75,1408.79,2371.43,1363.67,2353.7z"/>
			</g>
		</g>
		<g>
			<g>
				<path class="st3" d="M1326.96,2502.22c-132.33,0.01-241.21-78.59-296.38-216.41c-31.79-79.43-39.37-163.3-21.33-236.16
					c18.64-75.27,62.24-130.07,122.77-154.3c26.29-10.52,54.45-14.67,83.72-12.4c132.06-21.24,393.65-73.87,678.84-189.49
					c286.34-113.15,512.01-255.56,622.26-331.31c19.6-21.86,42.85-38.26,69.15-48.79c0,0,0,0,0,0
					c122.48-49.02,276.29,46.34,342.84,212.61c60.85,152.03,24.65,297.03-96.85,387.88c-208.06,150.31-443.5,275.53-700.04,372.4
					c-252.51,106.9-509.31,178.71-763.31,213.44C1354.53,2501.38,1340.61,2502.22,1326.96,2502.22z M1200.32,1922.87
					c-18.59,0-36.44,3.38-53.23,10.1c-48.1,19.25-83.08,64.15-98.5,126.42c-16.02,64.69-9.05,139.75,19.61,211.36
					c54.42,135.95,162.03,204.73,295.29,188.75c250.24-34.22,503.71-105.14,753.04-210.72c0.25-0.11,0.5-0.21,0.75-0.3
					c253.34-95.62,485.73-219.19,690.72-367.28c107.21-80.17,137.64-204.23,83.23-340.17c-58.25-145.53-188.43-230.79-290.17-190.05
					l-7.53-18.81l7.53,18.81c-21.07,8.43-39.72,21.82-55.43,39.79c-1.11,1.27-2.38,2.4-3.76,3.35
					c-110.92,76.37-340.54,221.69-632.22,336.96c-290.52,117.77-556.97,171.02-689.93,192.28c-1.67,0.27-3.36,0.32-5.04,0.17
					C1209.84,1923.09,1205.06,1922.87,1200.32,1922.87z"/>
			</g>
		</g>
		<g>
			<g>
				<path class="st9" d="M1086.8,2084.5c0,0-136.3,54.88-169.94,148.69s152.23-58.42,331.02-42.48s60.19-155.77,309.78-8.85
					s272.61,391.21,442.54,395.63c169.94,4.43,159.31-138.96,223.04-61.07c63.73,77.89,184.54,63.73,118.16-77
					c-66.38-140.73-24.34-450.51,276.59-622.21s462.01-134.53,476.17-159.31c14.16-24.78-53.1-152.23-267.29-155.77
					C2612.68,1498.58,2074.55,2045.56,1086.8,2084.5z"/>
			</g>
		</g>
		<g class="st2">
			<g>
				<path class="st3" d="M2347.49,2453.31c-26.22,27.99-85.67,14.65-124.25-32.51c-63.73-77.89-48.88,80.57-218.81,76.14
					c-96.29-2.51-138.99-82.54-208.88-177.72c23.52-13.19,62.05-55.99,101.1-98.87c67.71-74.35,241.63,131.43,425.15-2.58
					l7.73-35.94c0,0-31.94,86.17-199.23,30.7s-229.79-92.68-283.33-30.7c-33.11,38.32-72.25,63.08-97.32,76.41
					c-47.38-59.72-106.34-121.6-191.99-172.01c-35.12-20.67-62.95-35.04-85.34-44.5c-36.96,6.82-74.72,12.96-113.27,18.38
					c-18.54,20.24-43.64,40.99-111.17,34.98c-105.24-9.38-212.91,39.5-276.85,62.18c-23.21,21.2-43.69,46.67-54.17,75.92
					c-33.63,93.82,152.23-58.42,331.02-42.48c178.79,15.93,60.19-155.77,309.78-8.85c249.59,146.92,272.6,391.21,442.54,395.63
					c169.94,4.43,159.31-138.96,223.04-61.07C2284.8,2591.66,2399.59,2580.98,2347.49,2453.31z"/>
			</g>
		</g>
		<g>
			<g>
				<g>
					<path class="st10" d="M1250.35,2190.9c108.46,8.73,105.23-52.84,145.97-66.33C1319.2,2107.28,1339.77,2182.05,1250.35,2190.9z"
						/>
				</g>
			</g>
			<g>
				<g>
					<path class="st10" d="M914.83,2258.92c17.22,26.63,148.24-61.05,286.8-68.81C1088.27,2183.21,973.5,2241.22,914.83,2258.92z"/>
				</g>
			</g>
			<g class="st11">
				<g>
					<path class="st6" d="M2314.27,2192.85C2301.33,2194.76,2327.27,2192.25,2314.27,2192.85c-57.83,89.25-51.3,187.71-23.53,246.58
						c34.26,72.63,18.61,111.47-13.27,121.42c52.91,13.21,97.61-23.32,51.33-121.42
						C2300.66,2379.79,2292.02,2289.81,2314.27,2192.85z"/>
				</g>
			</g>
		</g>
		<g class="st2">
			<g>
				<path class="st3" d="M2385.21,2027.86l-39.2,100.64c0,0,20.54-95.33,0-149.76c-20.54-54.43-13.09-106.74,55.13-77.44
					c68.22,29.3,75.3,23.62,75.3,23.62S2416.41,1985.63,2385.21,2027.86z"/>
			</g>
		</g>
		<g>
			<g>
				<path class="st3" d="M2007.73,2597.85c-2.64,0-5.33-0.03-8.06-0.11c-98.23-2.55-151.9-76.46-214.03-162.04
					c-57.14-78.69-121.9-167.89-238.26-236.38c-63.29-37.25-106.35-55.91-131.63-57.03c-16.34-0.62-22.5,5.45-36.04,20.74
					c-20.7,23.38-49.05,55.36-133.64,47.86c-85.37-7.63-173.29,25.52-237.48,49.7c-56.57,21.31-87.74,33.06-106.73,14.36
					c-15.89-15.64-7-40.44-4.08-48.59c36.28-101.22,175.53-158.27,181.44-160.65c2.16-0.86,4.45-1.36,6.77-1.45
					c657.96-25.94,1110.5-276.48,1409.96-442.28c148.25-82.07,255.37-141.32,331.24-140.12c151.94,2.51,242.07,66.64,275.76,125.82
					c8.05,14.15,19.91,40.8,8.78,60.26c-9.2,16.1-27.83,18.29-64.94,22.66c-67.91,7.99-209.21,24.62-418.78,144.2
					c-278.75,159.05-335.58,453.34-268.31,595.97c44.65,94.65,8.13,130.97-9.64,142.19c-39.46,24.93-102.07,5.72-142.52-43.72
					c-12.29-15.02-17.52-15.79-17.57-15.79c-3.47,0.28-13.8,10.28-20.62,16.9C2143.14,2555.78,2099.73,2597.85,2007.73,2597.85z
					 M1412.8,2101.85c31.53,0,77.65,16.94,155.14,62.55c123.63,72.77,193.97,169.65,250.49,247.49
					c60.41,83.2,104.06,143.31,182.3,145.35c80.5,1.94,115.16-31.47,140.45-55.98c15.62-15.14,30.4-29.39,51.15-28.25
					c20.06,1.16,35.44,16.95,46.59,30.59c29.14,35.62,70.58,47.09,89.53,35.12c17.77-11.22,15.71-45.96-5.38-90.65
					c-38.58-81.79-38.69-202.37-0.29-314.69c33.14-96.94,109.52-233.54,285.17-333.76c216.72-123.66,363.55-140.94,434.12-149.24
					c12.22-1.44,25.7-3.02,33.12-4.71c-1.53-6.92-6.88-20.77-22.18-38.51c-21.32-24.72-86.08-82.45-226.48-84.78
					c-65.16-1.27-168.2,56.03-310.95,135.06c-302.25,167.34-758.69,420.06-1424.28,447.16c-19.68,8.58-127.89,58.75-155.38,135.43
					c-0.36,0.99-0.67,1.9-0.94,2.75c13.91-2.99,38.6-12.29,59.32-20.1c67.85-25.56,160.81-60.53,255.36-52.15
					c64.21,5.75,81.45-13.75,99.7-34.36C1366.88,2116.42,1383.57,2101.85,1412.8,2101.85z M3075.69,1650.08L3075.69,1650.08
					L3075.69,1650.08z"/>
			</g>
		</g>
		<g>
			<g>
				<path class="st10" d="M2157.53,2345.83c0,0-61.78,114.9-153.1,100.9c-69.28-10.62,46.49,2.89,76.55-80.98
					C2115.71,2268.82,2175.41,2319.27,2157.53,2345.83z"/>
			</g>
		</g>
		<g>
			<g>
				<path class="st4" d="M1171.77,1876.51c0,0-244.28,13.28-273.49,148.69c-29.21,135.42,98.24,108.86,196.49,103.55
					c98.24-5.31-92.93,183.21,77,199.14c169.94,15.93,204.45-238.97,308.01-116.83c103.55,122.14,265.52,108.86,345.18-2.66
					s146.04-39.83,302.7,10.62c156.66,50.45,262.87-82.31,212.42-244.28s220.39,47.79,297.39-119.49
					c77-167.28-87.62-196.49,108.86-236.32c196.49-39.83,281.46-53.1,249.59-160.64c-31.86-107.54-106.21-187.2-355.8-80.99
					C2390.53,1483.53,2164.83,1948.2,1171.77,1876.51z"/>
			</g>
		</g>
		<g class="st2">
			<g>
				<path class="st3" d="M2881.15,1347.18c-1.62-5.48-3.39-10.86-5.25-16.17c-53.1-10.68-128.11,0.5-235.78,46.31
					c-249.59,106.21-475.29,570.88-1468.35,499.19c0,0-241.46,13.15-272.93,146.4c26.79-0.97,55-3.87,81.15-5.28
					c57.54-3.11,15.81,60.27,5.49,116.53c34.39,1.2,73.73-3.48,109.28-5.4c46.62-2.52,28.07,38.62,13.86,84.24
					c126.77-32.02,164.26-221.71,256.38-113.06c103.55,122.14,265.52,108.86,345.18-2.66c79.66-111.52,146.04-39.83,302.7,10.62
					c156.66,50.45,262.87-82.31,212.42-244.28c-50.45-161.97,220.39,47.79,297.39-119.49c77-167.28-87.62-196.49,108.86-236.32
					C2828.04,1467.99,2913.01,1454.72,2881.15,1347.18z"/>
			</g>
		</g>
		<g class="st11">
			<g>
				<g>
					<path class="st6" d="M971.6,2116.86c-11.77,0.64-23.95,1.56-36.22,2.49c18.29,5.04,40.14,6.17,63.32,5.58"/>
				</g>
			</g>
			<g>
				<g>
					<path class="st6" d="M1745.38,2201.27c-30.83,43.17-73.32,72.37-120.16,85.83c72.85,7.18,145.03-24.4,190.45-87.99
						c22.25-31.15,43.47-47.99,65.91-55C1829.63,2130.87,1789.4,2139.64,1745.38,2201.27z"/>
				</g>
			</g>
			<g>
				<g>
					<path class="st6" d="M2990.96,1466.83c-14.73,60.77-105.35,76.58-269.22,109.8c-208.22,42.21-33.76,73.16-115.36,250.42
						c-81.6,177.27-344.19-21.34-315.14,126.62c26.55,135.2-15.63,244.8-119.01,266.51c125.94,7.75,202.96-112.13,158.55-254.72
						c-50.45-161.97,220.39,47.79,297.39-119.49s-87.62-196.49,108.86-236.32C2922.09,1572.15,3008.19,1558.16,2990.96,1466.83z"/>
				</g>
			</g>
		</g>
		<g>
			<g>
				<path class="st3" d="M1186.81,2348.88c-5.51,0-11.15-0.26-16.93-0.8c-39.45-3.7-65.69-16.23-80.21-38.3
					c-22.64-34.43-7.82-80.12,4.09-116.83c4.68-14.44,11.63-35.83,10.52-43.54c-1.32-0.31-3.92-0.68-8.43-0.42
					c-10.83,0.59-21.87,1.42-33.56,2.31c-65.67,4.98-133.58,10.13-168.43-29.84c-20-22.94-25.04-55.83-15.4-100.53
					c32.1-148.82,281.59-164.07,292.19-164.65c0.85-0.04,1.71-0.03,2.56,0.02c739.7,53.36,1041.32-187.76,1261.58-363.85
					c71.44-57.11,133.13-106.43,197.38-133.77c127.54-54.27,221.32-65.69,286.7-34.89c46.23,21.77,76.88,62.69,96.46,128.76
					c11.07,37.35,9.57,66.94-4.59,90.46c-29.57,49.15-109.27,65.25-241.31,91.92l-19.1,3.86c-49.45,10.02-77.58,19.97-83.6,29.57
					c-2.9,4.62-0.58,14.56,3.45,30.4c8.74,34.31,21.93,86.17-14.33,164.96c-46.43,100.84-154.65,83.46-226.28,71.96
					c-26.62-4.27-66.85-10.75-73.73-2.8c-0.23,0.26-5.49,6.79,3.56,35.84c28.29,90.81,12.29,177.58-42.8,232.14
					c-48.56,48.11-119.7,61.75-195.18,37.45c-37.7-12.14-70.06-25.4-98.61-37.09c-91.83-37.62-129.84-53.19-181.39,18.96
					c-42.09,58.94-106.68,94.41-177.19,97.34c-75.26,3.11-146.23-30.03-199.92-93.36c-14.49-17.09-27.34-25.87-38.19-26.08
					c-0.14,0-0.28,0-0.41,0c-18.57,0-41.22,24.66-65.18,50.76C1321.4,2291.48,1268.7,2348.88,1186.81,2348.88z M1098.53,2108.4
					c17.19,0,29.96,5.28,38,15.74c15.58,20.26,6.4,48.55-4.23,81.31c-9.72,29.95-20.73,63.89-8.78,82.06
					c7.22,10.98,24.09,17.78,50.14,20.22c71.63,6.7,117.01-42.69,157.04-86.29c30.5-33.22,59.22-64.79,96.24-63.86
					c23.3,0.46,45.64,13.67,68.29,40.39c45.44,53.59,104.87,81.69,167.34,79.08c57.94-2.41,111.13-31.71,145.91-80.41
					c70.2-98.28,137.11-70.85,229.72-32.92c27.87,11.42,59.47,24.37,95.67,36.03c61.46,19.79,116.25,9.97,154.24-27.67
					c43.47-43.05,55.97-116.36,32.62-191.3c-6.81-21.86-13.75-53.36,4.5-74.42c21.65-24.97,62.95-18.34,110.78-10.66
					c84.69,13.6,151.96,18.65,183.05-48.9c30.27-65.76,20.07-105.83,11.87-138.03c-5.55-21.79-10.79-42.37,1.5-61.94
					c13.36-21.27,43.13-34.2,109.87-47.73l19.12-3.87c116.97-23.63,194.24-39.24,214.62-73.1c5.08-8.44,10.65-23.65,0.46-58.06
					c-16.06-54.2-39.85-87.13-74.87-103.63c-53.58-25.24-138.89-13.28-253.57,35.52c-59.15,25.17-118.83,72.89-187.94,128.14
					c-107.88,86.25-242.14,193.58-443.58,271.98c-235.51,91.66-511.89,124.6-844.84,100.73c-17.85,1.24-228.98,18.43-253.61,132.66
					c-6.67,30.9-4.54,52.89,6.33,65.36c21.5,24.67,81.71,20.1,134.83,16.06c11.39-0.86,23.16-1.76,34.43-2.37
					C1095.33,2108.44,1096.95,2108.4,1098.53,2108.4z"/>
			</g>
		</g>
		<g>
			<g>
				<g>
					<path class="st1" d="M2058.62,1969.44c327.6-136.89,588.77-346.54,721.94-605.62c-147.99-319.93-469.37-543.26-843.6-549.28
						c-519.92-8.37-952.47,409.31-961.54,929.22c-1.56,89.57,9.39,176.33,31.11,258.71
						C1301.22,2151.63,1679.96,2127.67,2058.62,1969.44z"/>
				</g>
			</g>
			<g class="st11">
				<g>
					<path class="st6" d="M2751.38,1306.04c-158.46-288.74-463.15-485.85-814.41-491.51c-6.08-0.1-12.14-0.13-18.19-0.11
						c-0.24,0-0.47-0.01-0.71-0.01c-2.44,0-4.86,0.04-7.26,0.1c-367.33,4.18-687.62,220.76-840.36,533.55
						c157.51-243.63,416.19-415.87,714.35-457.48c7.76,33.92,64.45,60.26,133.27,60.26c70.06,0,127.55-27.29,133.64-62.09
						C2339.73,924.69,2590.32,1081.09,2751.38,1306.04z"/>
				</g>
			</g>
			<g>
				<g class="st2">
					<g>
						<path class="st3" d="M2296.98,1731.08c-281.65,117.69-563.35,161.1-810.47,114.23c-159.1-30.18-274.2-169.29-272.84-331.21
							c0.02-2.9,0.06-5.8,0.11-8.71c2.7-154.87,43.03-300.63,112-428.79c0,0,0,0,0,0c-183.2,169.27-300.12,409.69-304.78,677.28
							c-0.96,55.15,2.82,109.24,10.94,161.9c9.59,62.17,51.84,114.5,110.83,136.34c31.99,11.84,64.83,21.8,98.33,30.1
							c248.81,49.06,533.16,6.03,817.5-112.78c265.63-111,487.57-269.84,633.03-464.08
							C2577.09,1593.79,2443.74,1669.76,2296.98,1731.08z"/>
					</g>
				</g>
			</g>
			<g>
				<g>
					<g>
						<path class="st12" d="M1457.23,1176.1c-9.8,30.82-26.73,53.37-37.51,49.94c-10.78-3.43-11.58-31.61-1.79-62.43
							s26.73-53.37,37.51-49.94c10.1,3.21,11.56,28.21,3.33,57.27L1457.23,1176.1z"/>
					</g>
				</g>
				<g>
					<g>
						<path class="st12" d="M1617.21,1195.95c-5.53,31.87-19.26,56.5-30.4,54.56c-11.14-1.93-15.76-29.75-10.23-61.61
							c5.53-31.87,19.26-56.5,30.4-54.56c10.45,1.81,15.28,26.38,11.06,56.29L1617.21,1195.95z"/>
					</g>
				</g>
				<g>
					<g>
						<path class="st12" d="M1823.74,1189.55c4.5,32.03-1.01,59.68-12.21,61.25c-11.2,1.57-24.12-23.49-28.62-55.51
							c-4.5-32.03,1.01-59.68,12.21-61.25c10.5-1.48,22.63,20.43,27.79,50.19L1823.74,1189.55z"/>
					</g>
				</g>
				<g>
					<g>
						<path class="st12" d="M1996.45,1123.32c17.11,27.44,23.3,54.95,13.7,60.94c-9.6,5.98-31.58-11.67-48.69-39.12
							s-23.3-54.95-13.7-60.94c9-5.61,28.97,9.49,45.77,34.6L1996.45,1123.32z"/>
					</g>
				</g>
				<g>
					<g>
						<path class="st12" d="M2128.91,1013.48c22.92,22.82,35.22,48.19,27.24,56.2c-7.98,8.02-33.41-4.16-56.33-26.98
							c-22.92-22.82-35.22-48.19-27.24-56.2c7.48-7.51,30.37,2.63,52.45,23.24L2128.91,1013.48z"/>
					</g>
				</g>
			</g>
			<g>
				<g>
					<g>
						<g class="st2">
							<g>
								<circle class="st3" cx="1478.53" cy="1679.66" r="19.47"/>
							</g>
						</g>
					</g>
				</g>
				<g>
					<g>
						<g class="st2">
							<g>
								<circle class="st3" cx="1792.57" cy="1494.68" r="19.47"/>
							</g>
						</g>
					</g>
				</g>
				<g class="st13">
					<g>
						<g class="st2">
							<g>
								<circle class="st3" cx="1856.93" cy="1697.32" r="19.47"/>
							</g>
						</g>
					</g>
				</g>
				<g class="st13">
					<g>
						<g class="st2">
							<g>
								<circle class="st3" cx="2044.84" cy="1458.97" r="19.47"/>
							</g>
						</g>
					</g>
				</g>
				<g>
					<g>
						<g class="st2">
							<g>
								<circle class="st3" cx="2245.84" cy="1618.34" r="19.47"/>
							</g>
						</g>
					</g>
				</g>
				<g>
					<g>
						<g class="st2">
							<g>
								<circle class="st3" cx="2271.89" cy="1323.71" r="19.47"/>
							</g>
						</g>
					</g>
				</g>
				<g>
					<g>
						<g class="st2">
							<g>
								<circle class="st3" cx="2411.86" cy="1156.85" r="19.47"/>
							</g>
						</g>
					</g>
				</g>
				<g class="st13">
					<g>
						<g class="st2">
							<g>
								<circle class="st3" cx="1482.43" cy="1477.43" r="19.47"/>
							</g>
						</g>
					</g>
				</g>
				<g>
					<g>
						<g class="st2">
							<g>
								<circle class="st3" cx="2602.85" cy="1340.24" r="19.47"/>
							</g>
						</g>
					</g>
				</g>
				<g class="st13">
					<g>
						<g class="st2">
							<g>
								<circle class="st3" cx="2476.58" cy="1552.88" r="19.47"/>
							</g>
						</g>
					</g>
				</g>
			</g>
			<g>
				<g>
					<path class="st3" d="M1451.62,2122.49c-130.28,0-251.92-20.75-362.78-61.99c-64.73-24.09-111.58-81.7-122.28-150.37
						c-8.53-54.79-12.36-110.88-11.39-166.73c4.48-256.83,109.38-497.23,295.38-676.93c185.95-179.66,429.84-276.46,686.74-272.19
						c166.49,2.68,330.03,48.48,472.95,132.45c138.79,81.55,256.1,197.54,339.26,335.42c37.4,62.01,35.71,141.4-4.3,202.25
						c-142.4,216.57-377.11,397.68-678.77,523.72l0,0c-174.76,73.03-346.55,116.79-510.61,130.07
						C1520.52,2121.06,1485.77,2122.49,1451.62,2122.49z M1921.52,834.67c-503.17,0-917.04,404.87-925.84,909.43
						c-0.93,53.54,2.74,107.3,10.92,159.8c8.44,54.19,45.37,99.65,96.37,118.63c264.78,98.49,601.39,72.99,947.84-71.78l0,0
						c294.18-122.92,522.59-298.79,660.53-508.59c31.49-47.9,32.85-110.34,3.46-159.07c-166.18-275.54-457.08-443.13-778.17-448.3
						C1931.6,834.72,1926.54,834.67,1921.52,834.67z"/>
				</g>
			</g>
		</g>
		<g>
			<g>
				<g>
					<path class="st9" d="M2503.08,2719.84c-11.68,62.95-72.18,104.52-135.13,92.84s-104.52-72.18-92.84-135.13
						c11.68-62.95,46.44,5.55,111.08-18.19C2462.29,2631.41,2514.76,2656.89,2503.08,2719.84z"/>
				</g>
			</g>
			<g class="st11">
				<g>
					<g>
						<path class="st6" d="M2430.78,2648.79c17.97,11.52,26.37,32.47,20.98,61.53c-10.04,54.12-56.17,92.33-108.91,94.6
							c7.91,3.44,16.26,6.13,25.1,7.77c62.95,11.68,123.45-29.89,135.13-92.84C2512.29,2670.19,2481.51,2643.98,2430.78,2648.79z"/>
					</g>
				</g>
			</g>
			<g class="st2">
				<g>
					<path class="st3" d="M2380.77,2743.6c-44.8-8.31-76.63-52.24-88.29-93.28c-8.07,1.07-13.8,8-17.37,27.23
						c-11.68,62.95,29.89,123.45,92.84,135.13c62.95,11.68,123.45-29.89,135.13-92.84c2.74-14.79,1.83-27.42-1.98-37.87
						C2476.3,2720.06,2428.24,2752.41,2380.77,2743.6z"/>
				</g>
			</g>
			<g>
				<g>
					<path class="st3" d="M2389.39,2834.93c-8.35,0-16.75-0.77-25.13-2.32c-35.76-6.63-66.81-26.8-87.41-56.78
						c-20.6-29.98-28.29-66.19-21.66-101.96c2.59-13.94,7.43-31.01,22.09-39.44c15.19-8.75,31.24-3.01,45.39,2.06
						c16.72,5.97,34,12.15,56.53,3.88c50.47-18.54,94.68-16.28,121.3,6.19c20.51,17.31,28.5,44.66,22.5,77
						c-6.64,35.77-26.8,66.81-56.79,87.41C2443.26,2826.72,2416.65,2834.93,2389.39,2834.93z M2297.72,2670.89
						c-0.74,1.92-1.73,5.15-2.69,10.36c-4.66,25.13,0.74,50.56,15.21,71.63c14.47,21.06,36.28,35.23,61.4,39.89
						c25.13,4.65,50.57-0.74,71.63-15.21c21.06-14.47,35.23-36.28,39.89-61.41c2.29-12.31,2.61-29.01-8.8-38.65
						c-14.73-12.44-45.85-12.09-81.2,0.88c-36.32,13.34-65.1,3.05-84.14-3.76C2305.42,2673.33,2300.85,2671.69,2297.72,2670.89z"/>
				</g>
			</g>
		</g>
		<g>
			<g>
				<path class="st14" d="M2653.85,1921.34c8.18,3.76,17.74,2.81,25.5-1.75c32.06-18.82,134.45-81.06,151.69-117.77
					C2850.25,1760.9,2595.98,1894.76,2653.85,1921.34z"/>
			</g>
		</g>
	</g>
	<g class="st2">
		<g>
			<ellipse class="st3" cx="2000" cy="3411.04" rx="927.53" ry="108.3"/>
		</g>
	</g>
</g>
</svg>
