<?xml version="1.0" encoding="utf-8"?>
<!-- Generator: Adobe Illustrator 24.3.0, SVG Export Plug-In . SVG Version: 6.00 Build 0)  -->
<svg version="1.1" id="Capa_1" xmlns="http://www.w3.org/2000/svg" xmlns:xlink="http://www.w3.org/1999/xlink" x="0px" y="0px"
	 viewBox="0 0 425.2 425.2" style="enable-background:new 0 0 425.2 425.2;" xml:space="preserve">
<style type="text/css">
	.st0{fill:#F7BA79;}
	.st1{fill:#FFFFFF;}
	.st2{fill:#DB3934;}
	.st3{fill:#D1D3D4;}
	.st4{fill:#EF8A2F;}
	.st5{fill:#DB7F2A;}
	.st6{fill:#F1983D;}
	.st7{fill:#872D29;}
	.st8{fill:#631C16;}
	.st9{fill:#752420;}
	.st10{fill:#A90F14;}
	.st11{fill:#D0181F;}
	.st12{fill:#EF3B24;}
	.st13{fill:#FFD346;}
	.st14{fill:#FFDC65;}
	.st15{fill:#77AD3C;}
	.st16{fill:#8AC645;}
	.st17{fill:#F08F35;}
	.st18{opacity:0.5;fill:#F7BE6C;}
	.st19{fill:#E8E2C3;}
	.st20{fill:#C1C3C3;}
	.st21{fill:#007982;}
	.st22{fill:#F9B44B;}
	.st23{opacity:0.5;fill:#F9B44B;}
	.st24{fill:#C4843F;}
	.st25{fill:#FFD44F;}
	.st26{fill:#00B9C5;}
	.st27{opacity:0.5;fill:#FFFFFF;}
	.st28{fill:#D7C295;}
	.st29{opacity:0.5;fill:#D7C295;}
	.st30{fill:none;}
	.st31{fill:#C26231;}
	.st32{opacity:0.3;fill:#C26231;}
</style>
<g>
	<rect x="0" y="0" class="st0" width="425.2" height="425.2"/>
	<polygon class="st1" points="0,0 0,425.2 425.2,425.2 	"/>
	<polygon class="st2" points="425.2,1.71 115.51,117.22 388.71,425.2 425.2,425.2 	"/>
</g>
<g>
	<path class="st3" d="M258.93,286.9c0,13.48-48.93,24.41-109.3,24.41c-60.37,0-109.3-10.93-109.3-24.41
		c0-13.48,48.94-24.41,109.3-24.41C209.99,262.49,258.93,273.42,258.93,286.9z"/>
	<g>
		<g>
			<path class="st4" d="M238.73,273.08c-15.18,18.52-35.43,26.46-87.77,26.46c-52.35,0-78.26-11.48-85.9-23.81
				c-5.32-8.6-4.34-19.19,0.52-23.68c16.2-14.96,48.79-19.5,86.8-19.5c39.14,0,66.36,4.32,84.57,18.96
				C241.47,255.15,241.04,270.25,238.73,273.08z"/>
			<path class="st5" d="M196.34,285.99c-18.86,3.58-37.96,4.83-57.11,4.32c-8.77-0.24-25.74-2.52-31.92,5.82
				c11.84,2.14,26.28,3.41,43.64,3.41c52.35,0,72.6-7.94,87.77-26.46c1.89-2.31,2.52-12.78,0.23-18.54
				C232.73,274.41,216.31,282.2,196.34,285.99z"/>
			<path class="st6" d="M236.94,255.22c0,12.52-37.86,22.67-84.57,22.67c-46.71,0-84.57-10.15-84.57-22.67
				c0-12.52,37.86-22.68,84.57-22.68C199.08,232.55,236.94,242.7,236.94,255.22z"/>
		</g>
		<g>
			<path class="st7" d="M237.7,242.54c0,14.51-39.41,29.13-88.99,29.13c-49.58,0-88.99-13.46-88.99-27.97
				c0-3.97,3.8-17.21,8.41-21.7c15.34-14.96,46.21-19.5,82.21-19.5c37.08,0,62.86,4.32,80.1,18.96
				C234.74,225.11,237.7,238.88,237.7,242.54z"/>
			<path class="st8" d="M62.24,232.93c-1.55,4.41-2.52,8.77-2.52,10.77c0,14.51,39.41,27.97,88.99,27.97
				c49.58,0,88.99-14.63,88.99-29.13c0-1.7-0.65-5.58-1.76-9.61c0,0-5.63,16.01-7.66,16.16c-0.95,0.07-8.63-1.32-9.98-1.23
				c-1.41,0.1-5.08,8.19-6.88,8.31c-2.02,0.14-4.84-4.04-7.29-3.87c-3.68,0.26-0.56,9.24-5.07,9.54c-3.56,0.24-1.96-3.67-5.93-3.4
				c-2.7,0.18-4.6-6.33-7.46-6.14c-1.15,0.08-4.9,12.58-6.06,12.66c-5.08,0.34-4.66-7.83-11.89,1.42c-0.94,1.21-5.9-3.1-6.86-1.98
				c-1.97,2.29-4.38,0.71-6.38,2.26c-1.68,1.31-4.49-9.38-6.09-8.19c-2,1.48-2.55,5.81-4.48,7.06c-1.94,1.24-4.79-3.98-6.61-3.12
				c-2.51,1.19-3.34,3.84-5.52,3.97c-2.97,0.18-4.7-9.81-7.65-9.64c-1.12,0.07-0.37,6.34-4.04,8.79
				c-2.92,1.95-2.62-17.03-5.38-15.14c-1.7,1.17-3.16,10.5-4.64,11.45c-2.56,1.65-3.1-6.57-4.04-6.52
				c-1.89,0.11-4.97,8.11-6.83,8.22c-3.93,0.22,1.87-14.77-1.89-14.57c-2.17,0.12-6.73,10.5-8.83,10.6
				c-2.77,0.14,0.65-7.4-1.97-7.28c-1.07,0.05-4.4,5.81-5.44,5.86c-1.84,0.09-2.48-7.44-4.23-7.37c-1.76,0.08-2.91,1.45-4.57,1.51
				c-1.92,0.08-0.28-9.42-2.04-9.36c-3.55,0.12-2.06,4.03-4.89,4.03C64.23,246.97,62.24,232.93,62.24,232.93z"/>
			<path class="st9" d="M230.45,225.19c0,12.52-35.86,22.68-80.1,22.68c-44.24,0-80.1-10.15-80.1-22.68
				c0-12.52,35.86-22.68,80.1-22.68C194.59,202.51,230.45,212.66,230.45,225.19z"/>
			<path class="st7" d="M223.92,223.87c0,10.53-30.16,19.07-67.37,19.07c-37.21,0-67.37-8.54-67.37-19.07
				c0-10.53,30.16-19.07,67.37-19.07C193.75,204.79,223.92,213.33,223.92,223.87z"/>
			<path class="st8" d="M114.93,234.61c0,1.03-0.79,1.86-1.77,1.86s-1.77-0.84-1.77-1.86c0-1.03,0.79-1.87,1.77-1.87
				S114.93,233.58,114.93,234.61z"/>
			<path class="st8" d="M128.22,238.2c0,1.98-1.53,3.59-3.4,3.59c-1.88,0-3.4-1.61-3.4-3.59c0-1.98,1.52-3.59,3.4-3.59
				C126.69,234.61,128.22,236.22,128.22,238.2z"/>
			<path class="st8" d="M121.42,231.61c0,0.62-0.44,1.13-0.98,1.13c-0.55,0-0.99-0.51-0.99-1.13c0-0.63,0.44-1.13,0.99-1.13
				C120.98,230.48,121.42,230.99,121.42,231.61z"/>
			<path class="st8" d="M140.04,233.48c0,1.65-1.48,3-3.31,3c-1.83,0-3.31-1.34-3.31-3c0-1.65,1.48-3,3.31-3
				C138.55,230.48,140.04,231.82,140.04,233.48z"/>
			<path class="st8" d="M142.54,242.94c0,0.63-1.3,1.14-2.91,1.14c-1.61,0-2.91-0.51-2.91-1.14c0-0.64,1.3-1.15,2.91-1.15
				C141.24,241.79,142.54,242.3,142.54,242.94z"/>
			<path class="st8" d="M156.5,241.14c0,1.62-1.92,2.94-4.28,2.94c-2.36,0-4.28-1.32-4.28-2.94c0-1.62,1.92-2.94,4.28-2.94
				C154.59,238.2,156.5,239.52,156.5,241.14z"/>
			<path class="st8" d="M156.5,232.55c0,1.14-1.03,2.07-2.31,2.07c-1.27,0-2.3-0.93-2.3-2.07c0-1.14,1.03-2.07,2.3-2.07
				C155.47,230.48,156.5,231.4,156.5,232.55z"/>
			<path class="st8" d="M168.82,239.67c0,0.81-0.94,1.47-2.11,1.47c-1.17,0-2.11-0.66-2.11-1.47c0-0.81,0.95-1.47,2.11-1.47
				C167.88,238.2,168.82,238.86,168.82,239.67z"/>
			<path class="st8" d="M166.12,233.58c0,0.57-0.93,1.04-2.06,1.04c-1.14,0-2.06-0.46-2.06-1.04c0-0.57,0.92-1.03,2.06-1.03
				C165.19,232.55,166.12,233.01,166.12,233.58z"/>
			<path class="st8" d="M97.31,230.57c0,1.09-0.93,1.98-2.09,1.98c-1.15,0-2.09-0.89-2.09-1.98c0-1.09,0.93-1.98,2.09-1.98
				C96.38,228.59,97.31,229.47,97.31,230.57z"/>
			<path class="st8" d="M107.47,226.89c0,0.94-0.64,1.7-1.44,1.7c-0.79,0-1.44-0.76-1.44-1.7c0-0.94,0.64-1.7,1.44-1.7
				C106.83,225.19,107.47,225.95,107.47,226.89z"/>
			<path class="st8" d="M107.47,237.34c0,0.47-0.97,0.86-2.16,0.86c-1.19,0-2.15-0.39-2.15-0.86c0-0.48,0.97-0.86,2.15-0.86
				C106.5,236.48,107.47,236.86,107.47,237.34z"/>
			<path class="st8" d="M176.55,237.34c0,0.47-0.82,0.86-1.82,0.86c-1.01,0-1.82-0.39-1.82-0.86c0-0.48,0.81-0.86,1.82-0.86
				C175.73,236.48,176.55,236.86,176.55,237.34z"/>
			<path class="st8" d="M162,242.94c0,0.63-0.51,1.14-1.14,1.14c-0.63,0-1.14-0.51-1.14-1.14c0-0.64,0.51-1.15,1.14-1.15
				C161.49,241.79,162,242.3,162,242.94z"/>
		</g>
		<g>
			<path class="st10" d="M129.96,226.28c-2.43,8.86-20.07,11.73-39.39,6.42c-19.32-5.31-33-16.79-30.57-25.65
				c0.27-0.99,2.2-8.02,2.2-8.02s20.02-3.12,37.18,1.6c17.76,4.88,32.78,17.63,32.78,17.63S130.16,225.57,129.96,226.28z"/>
			<path class="st11" d="M132.17,218.26c-2.44,8.86-20.07,11.73-39.38,6.42c-19.31-5.31-33-16.79-30.57-25.65
				c2.44-8.86,20.07-11.73,39.38-6.42C120.92,197.92,134.6,209.41,132.17,218.26z"/>
			<path class="st12" d="M128.33,216.13c-0.1,1.41-1.07,4.12-3.26,4.37c-2.19,0.25-22.84-13.1-23.05-12.93
				c-0.44,0.35,21.03,12.45,20.74,14.37c-0.29,1.93-8.37,3.96-11.69,2.96c-3.32-1-10.62-15.66-10.62-15.66s4.54,13.53,3.18,14.93
				c-1.36,1.41-6.7,0.08-10.45-0.95c-2.64-0.72-5.7-1.14-6.75-3.34c-1.05-2.2,10.95-11.92,10.53-12.1
				c-0.83-0.36-10.49,10.32-13.43,10.65c-2.94,0.33-10.48-3.16-10.43-6.19c0.04-3.03,20.77-7.15,20.42-7.47
				c-0.66-0.63-20.02,5.3-23.09,5.12c-3.06-0.18-6.43-8.88-5.07-10.02c1.37-1.14,26.09,3.94,26.54,3.28
				c0.23-0.34-23.48-4.91-24.77-6.41c-1.28-1.49,10.68-5.25,12.58-4.92c1.91,0.34,13.54,9.1,14.13,9.06
				c0.61-0.04-11-8.23-10.51-9.28c0.49-1.05,14.36,0.1,15.67,1.48c1.31,1.37-0.32,8.39-0.32,8.39s2.46-7.26,3.63-7.31
				c2.19-0.09,11.31,3.27,10.83,4.34c-0.48,1.08-10.51,4.1-10.12,4.31c0.76,0.4,11.49-2.84,13.53-2.48
				c2.04,0.37,10.87,7.01,9.98,8.25c-0.89,1.25-22.68-3.44-22.47-3.14c0.4,0.6,21.3,3.76,22.73,4.8
				C128.23,211.34,128.58,212.71,128.33,216.13z"/>
		</g>
		<g>
			<path class="st10" d="M241.15,204.79c3.24,8.59-9.32,21.29-28.06,28.37c-18.75,7.07-36.57,5.84-39.81-2.75
				c-0.36-0.96-2.93-7.78-2.93-7.78s14.35-14.3,31-20.58c17.23-6.5,36.87-5.03,36.87-5.03S240.89,204.1,241.15,204.79z"/>
			<path class="st11" d="M238.22,197.01c3.24,8.59-9.32,21.29-28.07,28.36c-18.74,7.07-36.57,5.84-39.81-2.75
				c-3.24-8.59,9.32-21.29,28.07-28.37C217.15,187.19,234.98,188.42,238.22,197.01z"/>
			<path class="st12" d="M233.86,197.54c0.75,1.2,1.56,3.96-0.06,5.46c-1.62,1.49-26.17,2.85-26.25,3.11
				c-0.14,0.54,24.33-2.31,25.23-0.58c0.9,1.73-4.44,8.13-7.71,9.27c-3.27,1.14-17.81-6.41-17.81-6.41s11.64,8.26,11.36,10.2
				c-0.27,1.94-5.37,4.01-9.01,5.38c-2.55,0.96-5.28,2.43-7.42,1.27c-2.14-1.16,1.84-16.08,1.39-15.98
				c-0.88,0.2-2.41,14.52-4.59,16.51c-2.18,2-10.33,3.61-12.08,1.14c-1.75-2.47,12.59-18,12.12-18.05
				c-0.9-0.12-13.07,16.06-15.66,17.72c-2.58,1.66-10.42-3.39-9.99-5.12c0.44-1.73,23.41-12.16,23.39-12.97
				c-0.02-0.41-21.88,9.85-23.79,9.4c-1.92-0.45,5.54-10.53,7.28-11.38c1.74-0.85,16.3-0.61,16.76-0.99
				c0.48-0.39-13.73-0.18-13.95-1.32c-0.22-1.13,11.67-8.36,13.54-8.02c1.87,0.34,4.68,6.98,4.68,6.98s-2.28-7.32-1.37-8.04
				c1.72-1.36,11.07-4.01,11.31-2.86c0.24,1.15-6.08,9.5-5.65,9.43c0.85-0.13,7.62-9.06,9.48-9.97c1.86-0.9,12.91-0.73,12.92,0.8
				c0.01,1.54-20.36,10.56-20.02,10.68c0.68,0.25,19.44-9.49,21.21-9.49C230.96,193.73,232.05,194.64,233.86,197.54z"/>
		</g>
		<g>
			<path class="st10" d="M186.92,230.34c0,9.19-16.24,16.63-36.27,16.63c-20.03,0-36.28-7.44-36.28-16.63c0-1.02,0-8.31,0-8.31
				s18.47-8.32,36.28-8.32c18.41,0,36.27,8.32,36.27,8.32S186.92,229.6,186.92,230.34z"/>
			<path class="st11" d="M186.92,222.02c0,9.18-16.24,16.63-36.27,16.63c-20.03,0-36.28-7.45-36.28-16.63
				c0-9.18,16.24-16.63,36.28-16.63C170.68,205.39,186.92,212.84,186.92,222.02z"/>
			<path class="st12" d="M182.66,220.98c0.27,1.39,0.06,4.26-1.98,5.08c-2.04,0.82-25.49-6.58-25.65-6.36
				c-0.33,0.45,23.57,6.43,23.81,8.36c0.23,1.94-7.02,6.04-10.49,5.95c-3.47-0.09-14.4-12.28-14.4-12.28s7.97,11.84,7.03,13.56
				c-0.94,1.72-6.44,1.85-10.32,1.85c-2.73,0-5.8,0.41-7.39-1.43c-1.59-1.84,7.4-14.39,6.95-14.46c-0.9-0.12-7.38,12.73-10.13,13.83
				c-2.75,1.1-10.94-0.27-11.7-3.2c-0.76-2.93,18.13-12.4,17.72-12.61c-0.81-0.43-17.9,10.41-20.91,11.05
				c-3,0.64-8.56-6.85-7.54-8.31c1.02-1.47,26.2-3.11,26.46-3.88c0.13-0.39-23.95,1.49-25.58,0.39c-1.63-1.1,8.9-7.89,10.83-8.07
				c1.93-0.18,15.46,5.18,16.03,4.99c0.58-0.2-12.78-5.02-12.59-6.16c0.19-1.14,13.87-3.71,15.5-2.73c1.63,0.98,1.92,8.18,1.92,8.18
				s0.45-7.65,1.56-8.01c2.09-0.67,11.77,0.15,11.59,1.32c-0.18,1.16-9.04,6.74-8.61,6.83c0.84,0.18,10.33-5.79,12.39-5.98
				c2.07-0.19,12.34,3.88,11.81,5.31c-0.53,1.44-22.78,2.69-22.5,2.93c0.54,0.47,21.54-2.02,23.19-1.39
				C181.29,216.39,181.99,217.62,182.66,220.98z"/>
		</g>
		<g>
			<path class="st13" d="M79.36,163.95c0,0-39.02,17.36-34.39,22.2c4.63,4.83,26.55,11.22,47.34,22.39
				c20.79,11.17,46.7,28.18,50.94,28.56c4.24,0.38,27.99-53.34,27.99-53.34L79.36,163.95z"/>
			<path class="st14" d="M79.36,163.95c0,0-30.61,14.14-25.98,18.97c4.63,4.84,19.65,8.99,40.44,20.16
				c20.79,11.17,42.6,27.59,46.85,27.97c4.24,0.38,24.81-48.54,24.81-48.54L79.36,163.95z"/>
			<g>
				<g>
					<path class="st1" d="M115.79,218.95c0,0,2.98,1.51,7.35,3.91c2.18,1.19,4.73,2.58,7.45,4.07c1.37,0.72,2.78,1.46,4.21,2.22
						c1.43,0.74,2.92,1.44,4.39,2.04c0.72,0.29,1.5,0.56,2.07,0.63c0.04,0.01,0.19,0.02,0.14,0.02c0.1,0,0.23-0.01,0.22-0.02
						c0.03,0,0.2-0.05,0.31-0.1c0.26-0.11,0.54-0.29,0.82-0.5c1.13-0.86,2.16-2.08,3.07-3.28c0.91-1.21,1.78-2.42,2.55-3.61
						c0.77-1.19,1.5-2.31,2.15-3.37c1.3-2.11,2.37-3.9,3.11-5.15c0.75-1.25,1.17-1.97,1.17-1.97s-0.26,0.79-0.78,2.16
						c-0.53,1.36-1.31,3.3-2.4,5.56c-0.54,1.13-1.14,2.36-1.85,3.62c-0.71,1.26-1.46,2.59-2.37,3.9c-0.93,1.31-1.9,2.66-3.33,3.84
						c-0.37,0.29-0.78,0.57-1.27,0.79c-0.27,0.11-0.49,0.2-0.87,0.27c-0.22,0.04-0.3,0.04-0.4,0.04c-0.25,0-0.31-0.01-0.48-0.02
						c-1.07-0.12-1.87-0.43-2.7-0.73c-1.62-0.63-3.12-1.41-4.58-2.18c-1.47-0.77-2.86-1.6-4.2-2.42c-1.34-0.8-2.62-1.62-3.81-2.42
						c-1.2-0.78-2.32-1.55-3.34-2.27C118.34,221.12,115.79,218.95,115.79,218.95z"/>
				</g>
			</g>
			<g>
				<path class="st1" d="M48.63,182.92c0.01,0-0.04,0.12,0,0.32c0.03,0.2,0.17,0.46,0.42,0.74c0.49,0.56,1.41,1.17,2.55,1.85
					c1.15,0.67,2.52,1.39,4.01,2.16c1.49,0.76,3.09,1.57,4.68,2.38c0.8,0.42,1.59,0.83,2.37,1.24c0.79,0.39,1.55,0.83,2.29,1.22
					c1.49,0.8,2.87,1.57,4.04,2.26c2.35,1.36,3.86,2.41,3.86,2.41s-1.81-0.35-4.4-1.23c-1.3-0.43-2.79-0.98-4.36-1.64
					c-0.78-0.34-1.6-0.66-2.4-1.06c-0.81-0.39-1.62-0.79-2.44-1.19c-0.8-0.44-1.6-0.87-2.39-1.3c-0.79-0.43-1.53-0.92-2.26-1.38
					c-1.44-0.93-2.74-1.9-3.78-2.84c-1.04-0.93-1.82-1.86-2.16-2.65c-0.18-0.39-0.2-0.75-0.16-0.98
					C48.55,183,48.64,182.93,48.63,182.92z"/>
			</g>
			<g>
				<path class="st1" d="M56.67,180.72c0,0-0.02,0.07-0.01,0.21c0.04,0.13,0.12,0.31,0.31,0.5c0.36,0.39,1.01,0.84,1.87,1.36
					c1.72,1.03,4.31,2.31,7.43,3.8c3.14,1.47,6.8,3.18,10.72,5.02c1.96,0.93,4,1.86,6.04,2.85c2.05,0.99,4.13,2,6.22,3
					c2.07,1.04,4.13,2.08,6.17,3.11c2.04,1.02,4.01,2.1,5.92,3.13c3.82,2.07,7.34,4.12,10.27,6.01c2.94,1.88,5.28,3.64,6.79,5.01
					c0.76,0.68,1.31,1.28,1.65,1.7c0.35,0.42,0.5,0.67,0.5,0.67s-0.19-0.22-0.59-0.58c-0.39-0.37-1.02-0.85-1.84-1.44
					c-1.64-1.16-4.13-2.61-7.17-4.25c-3.05-1.63-6.65-3.44-10.52-5.36c-3.89-1.91-8.03-3.94-12.18-5.97
					c-2.07-1.03-4.14-2.06-6.18-3.07c-2.04-1-4.03-2.05-5.96-3.03c-3.86-1.99-7.43-3.91-10.44-5.66c-3.02-1.74-5.47-3.31-7.08-4.58
					c-0.81-0.63-1.39-1.2-1.71-1.66c-0.17-0.22-0.23-0.44-0.25-0.58C56.65,180.79,56.68,180.72,56.67,180.72z"/>
			</g>
		</g>
		<g>
			<path class="st13" d="M224.16,166.23c0,0,39.02,17.36,34.38,22.19c-4.63,4.84-26.55,11.22-47.34,22.39
				c-20.79,11.17-46.69,28.18-50.94,28.56c-4.24,0.38-27.99-53.34-27.99-53.34L224.16,166.23z"/>
			<path class="st14" d="M224.16,166.23c0,0,30.61,14.13,25.97,18.97c-4.63,4.84-19.65,8.98-40.44,20.15
				c-20.79,11.17-42.6,27.59-46.85,27.97c-4.24,0.38-24.81-48.54-24.81-48.54L224.16,166.23z"/>
			<g>
				<g>
					<path class="st1" d="M187.73,221.23c0,0-2.55,2.17-6.65,5.04c-1.02,0.72-2.14,1.49-3.34,2.27c-1.19,0.79-2.47,1.61-3.81,2.42
						c-1.34,0.81-2.73,1.64-4.2,2.41c-1.47,0.77-2.96,1.56-4.58,2.19c-0.83,0.3-1.62,0.62-2.7,0.73c-0.17,0.01-0.22,0.03-0.47,0.02
						c-0.1-0.01-0.18-0.01-0.4-0.04c-0.38-0.06-0.6-0.16-0.87-0.27c-0.5-0.22-0.9-0.5-1.27-0.79c-1.43-1.19-2.4-2.54-3.33-3.84
						c-0.91-1.31-1.67-2.64-2.37-3.9c-0.71-1.26-1.3-2.49-1.85-3.62c-1.08-2.26-1.87-4.2-2.4-5.56c-0.52-1.37-0.78-2.16-0.78-2.16
						s0.43,0.72,1.17,1.97c0.75,1.25,1.81,3.04,3.11,5.15c0.65,1.06,1.38,2.18,2.15,3.37c0.77,1.18,1.64,2.39,2.55,3.61
						c0.92,1.19,1.94,2.42,3.07,3.27c0.28,0.21,0.56,0.39,0.82,0.5c0.11,0.04,0.28,0.1,0.31,0.1c-0.02,0.01,0.11,0.02,0.21,0.02
						c-0.05,0,0.1-0.02,0.14-0.02c0.57-0.07,1.36-0.34,2.07-0.63c1.47-0.59,2.95-1.29,4.38-2.04c1.43-0.76,2.85-1.5,4.21-2.22
						c2.73-1.49,5.27-2.88,7.45-4.07C184.75,222.74,187.73,221.23,187.73,221.23z"/>
				</g>
			</g>
			<g>
				<path class="st1" d="M254.89,185.2c-0.01,0.01,0.08,0.08,0.12,0.31c0.05,0.22,0.02,0.59-0.16,0.98
					c-0.34,0.79-1.12,1.72-2.16,2.65c-1.03,0.95-2.33,1.91-3.78,2.84c-0.73,0.46-1.47,0.94-2.26,1.38c-0.79,0.43-1.59,0.87-2.39,1.3
					c-0.82,0.4-1.64,0.79-2.44,1.18c-0.8,0.4-1.62,0.72-2.4,1.06c-1.57,0.66-3.06,1.21-4.36,1.64c-2.59,0.87-4.4,1.23-4.4,1.23
					s1.51-1.06,3.86-2.41c1.17-0.69,2.55-1.46,4.04-2.26c0.75-0.39,1.5-0.83,2.29-1.22c0.78-0.41,1.58-0.82,2.37-1.24
					c1.59-0.81,3.19-1.62,4.68-2.39c1.48-0.77,2.86-1.5,4.01-2.16c1.14-0.68,2.06-1.29,2.55-1.85c0.24-0.28,0.39-0.54,0.42-0.74
					C254.93,185.32,254.88,185.2,254.89,185.2z"/>
			</g>
			<g>
				<path class="st1" d="M246.84,183c0,0,0.03,0.07,0.04,0.21c-0.01,0.14-0.08,0.36-0.25,0.58c-0.32,0.46-0.9,1.03-1.71,1.66
					c-1.61,1.26-4.07,2.84-7.08,4.58c-3.01,1.75-6.58,3.67-10.44,5.66c-1.93,0.99-3.92,2.03-5.96,3.03
					c-2.04,1.01-4.11,2.04-6.18,3.07c-4.15,2.03-8.29,4.07-12.18,5.97c-3.88,1.92-7.48,3.74-10.52,5.36
					c-3.04,1.64-5.52,3.09-7.17,4.25c-0.82,0.58-1.45,1.06-1.84,1.44c-0.4,0.36-0.59,0.58-0.59,0.58s0.16-0.25,0.5-0.67
					c0.34-0.43,0.89-1.02,1.65-1.7c1.51-1.38,3.85-3.13,6.79-5.01c2.93-1.9,6.44-3.94,10.27-6.01c1.92-1.03,3.89-2.1,5.92-3.13
					c2.04-1.03,4.1-2.07,6.17-3.11c2.08-1.01,4.17-2.01,6.22-3.01c2.05-1,4.09-1.92,6.04-2.85c3.92-1.84,7.58-3.55,10.72-5.02
					c3.12-1.49,5.71-2.77,7.43-3.8c0.86-0.52,1.51-0.97,1.87-1.36c0.19-0.19,0.27-0.37,0.31-0.5
					C246.86,183.08,246.84,183,246.84,183z"/>
			</g>
		</g>
		<g>
			<path class="st15" d="M225.62,166.61c4.42,1.12,8.79,2.41,13.13,3.67c4.15,1.2,9.15,1.5,11.84,5.48
				c2.61,3.86,0.83,9.26-3.79,10.14c-2.33,0.44-3.9-0.48-5.97-0.87c-3.83-0.71-3.03,0.84-3.83,3.56c-1.08,3.64-1.76,1.72-4.37,1.31
				c-2.66-0.42-3.09,1.16-3.48,3.78c-0.8,5.34,0.44,10.18-6.84,8.46c-2.43-0.57-4.71-2.12-7.09-0.53c-2.17,1.45-1.46,3.31-2.17,5.37
				c-0.81,2.34-2.68,3.87-5.25,3.78c-2.46-0.09-3.67-2.49-6.15-2.5c-3.35-0.02-2.52,2.49-4.35,4.4c-1.55,1.62-4.22,1.57-6.35,1.11
				c-2.13-0.46-4.27-2.45-6.42-0.95c-1.6,1.12-2.06,4.12-3.11,5.77c-2.6,4.08-7.16,7.22-12.15,6.13c-4.89-1.06-7.44-6.79-12.14-8.75
				c-4.76-1.98-10.52-2.45-15.37-0.63c-4.74,1.78-10.56,4.72-13.46-0.72c-1.41-2.64-1.15-2.71-4.49-2.99
				c-2.73-0.23-3.41-0.62-5.64,0.99c-4.24,3.05-8.05,5.16-12.23,0.6c-1.15-1.26-2.15-4.33-3.61-5.18c-2.09-1.2-5.37,0.14-7.01,1.17
				c-2.1,1.32-4.54,3.5-7.3,3.35c-2.8-0.15-3.58-2.66-4.69-4.94c-1.1-2.25-0.29-4.14-1.11-6.34c-0.82-2.21-3.39-2.37-5.8-2.49
				c-3.64-0.18-5.04-1.79-7.19-5.1c-1.89-2.92-0.05-3.51-0.1-6.8c-0.08-6.17-6.22-6.4-10.46-8.55c-3-1.52-3.45-4.18-2.85-7.62
				c0.61-3.48,3-4.92,6.2-5.94c3.04-0.96,5.53,0.22,8.52,0.95c4.94,1.22,9.95,2.56,15.09,2.76c6.54,0.25,11.4-2.5,16.98-5.26
				c7.16-3.55,14.62-3.21,22.47-2.91c4.41,0.16,8.91,0.09,13.31,0.49c4.76,0.43,9.27,2.63,13.51,4.76
				c8.17,4.11,13.15,10.64,23.15,10.24c8.11-0.33,17.16-4.25,24.88-6.75c4.71-1.53,11.63-2.66,16.23,0.04L225.62,166.61z"/>
			<path class="st16" d="M77.39,156.81c-4.46,0.95-8.88,2.09-13.26,3.18c-4.19,1.05-9.2,1.16-12.04,5.03
				c-2.76,3.76-1.17,9.23,3.41,10.28c2.32,0.53,3.92-0.34,6-0.65c3.86-0.56,2.99,0.96,3.7,3.7c0.94,3.67,1.69,1.78,4.31,1.47
				c2.67-0.31,3.04,1.28,3.34,3.91c0.6,5.36-0.82,10.15,6.52,8.71c2.44-0.48,4.78-1.95,7.1-0.27c2.12,1.53,1.33,3.36,1.97,5.45
				c0.73,2.37,2.54,3.96,5.1,3.97c2.46,0,3.76-2.35,6.23-2.27c3.34,0.11,2.43,2.58,4.19,4.56c1.49,1.67,4.16,1.72,6.31,1.34
				c2.14-0.38,4.36-2.29,6.45-0.72c1.56,1.18,1.92,4.19,2.9,5.88c2.44,4.18,6.89,7.48,11.91,6.58c4.93-0.88,7.69-6.51,12.46-8.29
				c4.83-1.81,10.6-2.06,15.39-0.06c4.67,1.95,10.37,5.11,13.48-0.22c1.5-2.58,1.25-2.66,4.6-2.82c2.74-0.13,3.43-0.49,5.6,1.2
				c4.13,3.21,7.85,5.46,12.19,1.06c1.2-1.21,2.31-4.25,3.81-5.04c2.13-1.13,5.36,0.34,6.97,1.43c2.05,1.4,4.41,3.67,7.16,3.62
				c2.81-0.04,3.67-2.52,4.88-4.76c1.18-2.21,0.44-4.12,1.35-6.3c0.9-2.18,3.47-2.24,5.89-2.27c3.64-0.04,5.11-1.6,7.37-4.83
				c2-2.85,0.18-3.51,0.35-6.8c0.31-6.17,6.45-6.17,10.77-8.16c3.06-1.41,3.61-4.05,3.13-7.5c-0.48-3.5-2.81-5.03-5.98-6.17
				c-3-1.08-5.54,0.01-8.55,0.64c-4.99,1.03-10.04,2.19-15.18,2.2c-6.54,0.01-11.3-2.92-16.77-5.89
				c-7.03-3.82-14.49-3.75-22.35-3.75c-4.42,0-8.91-0.24-13.32-0.01c-4.77,0.25-9.36,2.29-13.68,4.26
				c-8.32,3.8-13.54,10.15-23.52,9.37c-8.09-0.63-17-4.88-24.61-7.67c-4.65-1.7-11.52-3.09-16.21-0.57L77.39,156.81z"/>
			<path class="st1" d="M208.63,184.59c3.92,2.37,6.29,5.49,11.05,6.87c3.05,0.88,7.51,1.97,9.57-0.97
				c2.12-3.03,2.01-7.73-1.64-9.03c-2.08-0.74-9.41-1.61-9.31-4.76c4.78-0.24,9,1.92,13.56,1.02c3.45-0.68,8.98-2.89,11.62-5.09
				c1.09-0.91,2.66-4.37,1.49-5.68c-1.99-2.24-3.33,1.48-4.4,2.56c-2.91,2.91-9.75,5.31-13.82,5.17c-3.74-0.13-7.09-2.57-10.77-2.27
				c-3.45,0.29-7.29,3.97-8.78,7.09L208.63,184.59z"/>
			<path class="st1" d="M217.7,197.06c0.17,2.22-0.76,5.03-1.46,7.04c-2.79,0.58-4.75-7.26-7.84-8.14c-0.53,3.12,1.46,5.27,1.6,8.15
				c-1.51-0.21-2.66-1.49-3.99-2.15c-1.56-0.78-3.31-0.72-4.77-1.71c-2.19-1.49-3.66-4.8-5.89-5.99c0.49,5.03-4.02,7.25-7.48,8.97
				c-6.14,3.06,0.86,6.83,4.9,4.66c3.98-2.14,4.39-6.64,9.91-5.39c3.29,0.74,7.27,5.62,10.77,4.75c3.53-0.87,4.06-6.69,4.82-9.35
				L217.7,197.06z"/>
			<path class="st1" d="M127.85,215.48c3.35,0.11,8.54-1.61,11.13-3.9c2.8-2.47,4.51-6.38,7.01-8.84c0.24,0.97,0.32,2.07,0.6,3.05
				c4.04,0.2,8.24-0.34,11.93,0.83c3.48,1.1,7.27,3.52,11.05,2.12c1.78-0.66,2.91-2.15,4.54-3.13c1.76-1.05,4.7-1.56,1.35-3.2
				c-1.32-0.64-4.56-0.24-5.95-0.05c-2.52,0.36-2.56,0-4.77-0.74c-0.31,2.06-15.15,2.23-17.58,2.18c-0.06-1.65-2.04-7.14-3.51-8.11
				c-2.97-1.98-3.5,3.9-4.54,5.82c-1.37,2.53-2.87,6.01-5.31,7.65c-1.32,0.89-3,0.8-4.26,1.77c-1.35,1.05-1.61,2.9-1.98,3.4"/>
			<path class="st1" d="M118.49,204.71c-0.31,0.52-0.67-1.3-1.69-1.91c-1.02-0.6-2.53-0.4-3.69-0.36c-2.11,0.08-4.5,0.46-6.74,0.35
				c-2.9-0.15-2.23-0.83-4.52-2.69c-1.67-1.35-4.14-2.2-6.31-1.92c-2.7,0.34-3.93,2.27-5.73-0.21c-1.07-1.47-1.12-3.75-2.28-5.38
				c-3.3-4.64-7.54-0.84-11.48-3.25c-1.86-1.14-2.26-4.45-2-6.41c1.7,0.63,3.37,2.78,5.05,3.08c2.26,0.41,4.38-0.93,6.8-0.5
				c5.82,1.03,6.06,5.6,9.07,9.29c1.83,2.25,3.92,1.07,6.24,1.98c1.95,0.76,2.17,2.96,3.66,3.71c3.99,1.99,9.95-2.45,12.97,2.32
				c0.28,0.45,0.56,1.33,0.64,1.64"/>
			<path class="st1" d="M68.32,160.49c-3.22,1.72-15.97,1.94-15.55,7.61c2.05,0.35,3.62-1.08,5.58-0.76
				c0.28,2.37-3.28,1.62-2.75,4.16c2.52,0.58,5.2-1.99,7.56-2.47c0.13,1.33-0.51,2.4-0.76,3.61c4.33-0.23,2.89,1.36,4.49,4.01
				c0.74,1.22,4.04,3.6,4.83,1.7c0.79-1.89-3.51-4-3.92-5.89c-0.29-1.33,1.23-1.8-0.34-2.97c-0.9-0.67-3.13-0.2-4.23-0.27
				c0.6-0.75,1.49-1.32,2.21-1.86c-1.48-0.55-3.1-0.78-4.75-0.68c0.11-1.35,13.24-2.49,11.01-6.48"/>
		</g>
		<g>
			<g>
				<path class="st17" d="M227.42,161.66c0,19.56-22.68,38.27-78.52,38.27c-49.6,0-78.52-24.95-78.52-38.27
					c0-23.53,35.15-61.51,78.52-61.51C192.26,100.15,227.42,138.7,227.42,161.66z"/>
				<path class="st5" d="M222.05,143.83c-2.73,16.61-12.68,31.81-30.19,39.84c-38.37,17.57-92.64-1.71-119.57-31.57
					c-0.07-0.07-0.12-0.15-0.18-0.22c-1.13,3.43-1.73,6.73-1.73,9.79c0,13.32,28.91,38.27,78.52,38.27
					c55.84,0,78.52-18.71,78.52-38.27C227.42,156.33,225.5,150.16,222.05,143.83z"/>
				<path class="st18" d="M121.69,169.22c-5.95-2.32-4.25,7.67,0,10.62c4.25,2.94,30.54,7.66,31.46,4.75
					C154.23,181.21,127.64,171.53,121.69,169.22z"/>
				<path class="st18" d="M113.05,164.44c-18.24-10.67-29.06-25.18-33.59-20.61c-7.67,7.72,6.37,18.62,24.66,28.05
					C117.83,178.95,117.01,166.76,113.05,164.44z"/>
				<path class="st5" d="M158.25,186.04c4.98,0.59,10.34-1.33,15.31-1.76c5.07-0.44,8.62-2.14,13.32-3.84
					c9.39-3.39,18.63-8.61,24.87-16.57c4.32-5.51,10.19-16.76,6.1-23.48c-2.23-3.66-6.24-7.19-9.42-9.98
					c-2.93-2.58-6.61-6.13-10.27-7.51c-12.08-4.56-8.84,14.2-9.86,20.62c-1.76,11.14-9.49,23.45-19.27,29.27
					c-3.79,2.25-12.36,6.35-12.19,11.55L158.25,186.04z"/>
				<path class="st6" d="M85.12,135.86c2.85,1.01,6.14,7.04,8.01,9.58c2.84,3.87,6.41,6.86,10.7,9.06
					c8.49,4.36,17.44,7.92,26.06,12.19c4.99,2.48,10.25,3.54,15.6,4.66c4.32,0.9,8.74,2.21,13.32,0.72
					c4.72-1.54,10.07-3.09,14.17-5.96c4.6-3.21,5.81-8.7,7.03-13.81c1.1-4.62,3.47-9,4.61-13.59c1.16-4.67,0.19-9.93,1.89-14.47
					c1.62-4.32,3.42-7.94-1.62-10.84c-3.87-2.23-8.35-4.05-12.47-5.6c-8.95-3.36-18.71-4.8-28.41-4.82
					c-5.46-0.01-10.85,1.38-16.09,2.83c-5.27,1.47-9.67,4.3-14.74,6.3c-5.75,2.27-11.14,6.68-15.89,10.49
					c-3.82,3.07-7.83,7.07-10.19,11.28L85.12,135.86z"/>
			</g>
			<path class="st19" d="M135.33,140.98c-0.72-0.36-1.1-1.05-0.85-1.55c0.25-0.5,1.03-0.62,1.75-0.27c0.72,0.35,2.93,1.93,2.67,2.44
				C138.65,142.12,136.06,141.33,135.33,140.98z"/>
			<path class="st19" d="M169.75,121.17c0.8-0.04,1.48,0.38,1.5,0.94c0.03,0.56-0.61,1.04-1.4,1.08c-0.8,0.04-3.5-0.28-3.52-0.85
				C166.29,121.78,168.94,121.21,169.75,121.17z"/>
			<path class="st19" d="M142.87,132.39c0.27-0.75,0.92-1.21,1.45-1.02c0.53,0.19,0.73,0.96,0.46,1.71
				c-0.28,0.76-1.6,3.12-2.14,2.93C142.09,135.81,142.59,133.14,142.87,132.39z"/>
			<path class="st19" d="M122.48,132.88c-0.72-0.36-1.1-1.05-0.86-1.55c0.25-0.5,1.03-0.62,1.75-0.27c0.72,0.35,2.93,1.93,2.67,2.45
				C125.8,134.01,123.2,133.23,122.48,132.88z"/>
			<path class="st19" d="M134.49,120.21c0.8-0.04,1.48,0.39,1.5,0.95c0.03,0.56-0.6,1.05-1.4,1.08c-0.8,0.04-3.5-0.27-3.52-0.85
				C131.04,120.82,133.69,120.25,134.49,120.21z"/>
			<path class="st19" d="M120.77,113.84c0.27-0.76,0.92-1.21,1.45-1.02c0.53,0.19,0.73,0.96,0.46,1.71
				c-0.27,0.75-1.6,3.12-2.14,2.92C120,117.26,120.5,114.59,120.77,113.84z"/>
			<path class="st19" d="M127.25,147.38c-0.72-0.35-1.1-1.05-0.86-1.55c0.25-0.5,1.03-0.62,1.75-0.27c0.72,0.35,2.93,1.93,2.67,2.44
				C130.57,148.52,127.97,147.74,127.25,147.38z"/>
			<path class="st19" d="M121.26,136.85c0.8-0.04,1.48,0.39,1.5,0.95c0.03,0.56-0.6,1.04-1.4,1.08c-0.81,0.04-3.5-0.27-3.52-0.85
				C117.81,137.46,120.46,136.89,121.26,136.85z"/>
			<path class="st19" d="M135.01,129.57c0.27-0.76,0.93-1.21,1.45-1.02c0.53,0.19,0.73,0.96,0.46,1.71
				c-0.27,0.75-1.6,3.12-2.14,2.92C134.24,132.99,134.74,130.32,135.01,129.57z"/>
			<path class="st19" d="M105.33,131c-0.72-0.35-1.1-1.05-0.86-1.55c0.25-0.5,1.03-0.62,1.75-0.27c0.72,0.36,2.93,1.93,2.67,2.45
				C108.65,132.14,106.06,131.36,105.33,131z"/>
			<path class="st19" d="M118.8,125.06c0.8-0.04,1.48,0.38,1.5,0.95c0.03,0.56-0.6,1.04-1.4,1.08c-0.8,0.04-3.5-0.27-3.52-0.85
				C115.34,125.67,117.99,125.1,118.8,125.06z"/>
			<path class="st19" d="M105.88,119.09c0.27-0.75,0.92-1.21,1.45-1.02c0.53,0.19,0.73,0.96,0.46,1.71
				c-0.27,0.75-1.6,3.12-2.14,2.93C105.12,122.51,105.61,119.84,105.88,119.09z"/>
			<path class="st19" d="M165.61,135.69c-0.72-0.35-1.1-1.05-0.86-1.55c0.25-0.5,1.03-0.62,1.75-0.27c0.72,0.36,2.92,1.93,2.67,2.45
				C168.93,136.84,166.33,136.05,165.61,135.69z"/>
			<path class="st19" d="M178.62,139.35c0.8-0.04,1.47,0.39,1.5,0.95c0.03,0.56-0.61,1.04-1.41,1.08c-0.8,0.04-3.49-0.28-3.52-0.85
				C175.17,139.95,177.82,139.38,178.62,139.35z"/>
			<path class="st19" d="M181.81,131.92c0.27-0.75,0.92-1.21,1.45-1.02c0.53,0.19,0.74,0.96,0.46,1.71
				c-0.27,0.75-1.6,3.12-2.14,2.93C181.04,135.34,181.53,132.67,181.81,131.92z"/>
			<path class="st19" d="M159.24,143.58c-0.72-0.36-1.11-1.05-0.86-1.55c0.25-0.5,1.03-0.62,1.75-0.27
				c0.72,0.35,2.93,1.93,2.68,2.44C162.56,144.72,159.96,143.93,159.24,143.58z"/>
			<path class="st19" d="M174.1,131.25c0.8-0.04,1.48,0.38,1.5,0.95c0.03,0.56-0.6,1.04-1.4,1.08c-0.8,0.04-3.5-0.28-3.52-0.85
				C170.65,131.85,173.29,131.28,174.1,131.25z"/>
			<path class="st19" d="M152.4,119.09c0.27-0.75,0.92-1.21,1.45-1.02c0.53,0.19,0.73,0.96,0.46,1.71c-0.27,0.75-1.6,3.12-2.14,2.93
				C151.63,122.51,152.13,119.84,152.4,119.09z"/>
			<path class="st19" d="M161.71,152.33c-0.72-0.36-1.11-1.05-0.86-1.55c0.25-0.5,1.03-0.62,1.75-0.27
				c0.72,0.35,2.93,1.93,2.67,2.44C165.02,153.46,162.43,152.68,161.71,152.33z"/>
			<path class="st19" d="M169.74,145.75c0.8-0.04,1.48,0.39,1.5,0.95c0.03,0.56-0.6,1.04-1.4,1.08c-0.8,0.04-3.5-0.28-3.52-0.85
				C166.29,146.36,168.94,145.79,169.74,145.75z"/>
			<path class="st19" d="M162.26,127.7c0.27-0.75,0.92-1.21,1.45-1.02c0.53,0.19,0.73,0.96,0.46,1.71c-0.27,0.76-1.6,3.12-2.14,2.93
				C161.49,131.12,161.98,128.45,162.26,127.7z"/>
			<path class="st19" d="M142.31,149.51c-0.72-0.36-1.1-1.05-0.86-1.55c0.25-0.5,1.03-0.62,1.75-0.27c0.72,0.36,2.93,1.93,2.67,2.45
				C145.63,150.64,143.03,149.86,142.31,149.51z"/>
			<path class="st19" d="M155.32,147.88c0.8-0.04,1.47,0.38,1.5,0.94c0.03,0.56-0.6,1.04-1.4,1.08c-0.8,0.04-3.5-0.27-3.52-0.85
				C151.87,148.48,154.52,147.92,155.32,147.88z"/>
			<path class="st19" d="M151.12,136.59c0.27-0.75,0.92-1.21,1.45-1.02c0.53,0.19,0.73,0.96,0.46,1.71
				c-0.27,0.76-1.6,3.12-2.14,2.93C150.35,140.01,150.85,137.34,151.12,136.59z"/>
			<path class="st19" d="M149.86,112.27c0.8-0.04,1.47,0.38,1.5,0.94c0.03,0.56-0.6,1.04-1.41,1.08c-0.8,0.04-3.5-0.28-3.52-0.85
				C146.41,112.88,149.06,112.31,149.86,112.27z"/>
			<path class="st19" d="M148.23,104.05c0.27-0.75,0.92-1.21,1.45-1.02c0.53,0.19,0.73,0.96,0.46,1.71
				c-0.27,0.75-1.6,3.12-2.14,2.92C147.46,107.47,147.96,104.8,148.23,104.05z"/>
			<path class="st19" d="M174.07,126.69c-0.72-0.35-1.1-1.05-0.86-1.55c0.24-0.5,1.03-0.62,1.75-0.27c0.72,0.35,2.93,1.93,2.67,2.44
				C177.38,127.83,174.79,127.05,174.07,126.69z"/>
			<path class="st19" d="M181.09,116.53c0.8-0.04,1.47,0.39,1.5,0.95c0.03,0.56-0.6,1.04-1.41,1.08c-0.8,0.04-3.49-0.28-3.52-0.85
				C177.63,117.14,180.28,116.57,181.09,116.53z"/>
			<path class="st19" d="M169.25,112.9c0.27-0.76,0.92-1.21,1.45-1.02c0.52,0.19,0.73,0.96,0.46,1.71c-0.27,0.76-1.6,3.12-2.14,2.92
				C168.49,116.33,168.98,113.66,169.25,112.9z"/>
			<path class="st19" d="M155.3,115.74c-0.72-0.36-1.1-1.05-0.86-1.56c0.25-0.5,1.03-0.62,1.75-0.27c0.72,0.35,2.93,1.93,2.67,2.45
				C158.61,116.88,156.01,116.09,155.3,115.74z"/>
			<path class="st19" d="M164,112.7c0.8-0.04,1.47,0.38,1.5,0.94c0.03,0.56-0.61,1.05-1.41,1.08c-0.8,0.04-3.49-0.27-3.52-0.85
				C160.54,113.3,163.2,112.73,164,112.7z"/>
			<path class="st19" d="M159.36,109.07c0.28-0.75,0.92-1.21,1.45-1.02c0.53,0.19,0.73,0.96,0.46,1.71
				c-0.28,0.75-1.6,3.12-2.14,2.93C158.59,112.49,159.08,109.82,159.36,109.07z"/>
			<path class="st19" d="M154.06,128.1c-0.72-0.35-1.11-1.05-0.86-1.55c0.25-0.5,1.03-0.62,1.75-0.27c0.72,0.36,2.93,1.93,2.67,2.45
				C157.38,129.24,154.78,128.46,154.06,128.1z"/>
			<path class="st19" d="M160.26,121.17c0.8-0.04,1.48,0.38,1.5,0.94c0.03,0.56-0.6,1.04-1.4,1.08c-0.8,0.04-3.5-0.28-3.52-0.85
				C156.81,121.78,159.46,121.21,160.26,121.17z"/>
			<path class="st19" d="M142.86,117.28c0.27-0.75,0.92-1.21,1.45-1.02c0.53,0.19,0.73,0.96,0.46,1.71
				c-0.28,0.76-1.6,3.12-2.14,2.93C142.09,120.71,142.59,118.04,142.86,117.28z"/>
			<path class="st19" d="M140.05,109.6c-0.72-0.36-1.1-1.05-0.86-1.55c0.25-0.5,1.03-0.62,1.75-0.27c0.72,0.36,2.92,1.93,2.67,2.44
				C143.37,110.74,140.77,109.95,140.05,109.6z"/>
			<path class="st19" d="M148.72,123.65c0.8-0.04,1.48,0.38,1.5,0.95c0.03,0.56-0.61,1.04-1.41,1.08c-0.8,0.04-3.49-0.27-3.52-0.85
				C145.27,124.26,147.92,123.69,148.72,123.65z"/>
			<path class="st19" d="M131.5,113.84c0.27-0.76,0.92-1.21,1.45-1.02c0.53,0.19,0.73,0.96,0.46,1.71c-0.28,0.75-1.6,3.12-2.14,2.92
				C130.73,117.26,131.23,114.59,131.5,113.84z"/>
		</g>
	</g>
</g>
<path class="st20" d="M347.07,331.4l-84.55,0.16c-2.49-3.39-3.87-7.4-5.54-11.09c-4.89-10.77-9.87-22.31-19.08-31.19
	c-2.56-2.48-5.47-4.69-8.71-6.63c-2.31-1.38-4.19-2.62-6.93-3.48c-8.14-2.58-16.42-3.73-25.48-2.87c-2.01,0.19-3.95,0.57-5.86,1.07
	c0,0,0-0.01,0.01-0.01c-0.11,0.03-0.22,0.06-0.34,0.09c-0.48,0.13-0.97,0.27-1.44,0.41c-0.18,0.05-0.36,0.11-0.54,0.16
	c-0.46,0.14-0.92,0.29-1.38,0.45c-0.18,0.06-0.37,0.12-0.55,0.18c-0.47,0.16-0.94,0.33-1.41,0.5c-0.16,0.06-0.32,0.12-0.49,0.18
	c-0.62,0.23-1.23,0.46-1.84,0.7c-2.32,0.9-4.34,1.78-6.43,2.91c-1.79,0.97-3.22,2.37-4.87,3.51c-0.75,0.52-1.42,1.05-2.13,1.57
	c-0.11,0.09-0.23,0.17-0.35,0.25c-0.26,0.18-0.52,0.36-0.8,0.53c-0.5,0.3-1.36,0.69-1.79,1.01c-0.35,0.25-0.28,0.48-0.65,0.72
	c-2.74,1.73-5.65,3.89-8.34,6.27c-3.85,3.4-7.26,7.25-9.11,10.92c-0.42,0.83-0.97,1.66-1.22,2.53c0,0,0,0,0,0
	c-1.24,2.57-2.05,5.12-2.13,7.41c-0.13,3.92,1.61,7.61,2.78,11.3c0.98,3.09,2.73,5.88,4.37,8.78c0.7,1.24,1.19,2.12,2.43,3.04
	c1.21,0.91,2.5,1.86,3.62,2.83c2.38,2.07,4.64,4.03,7.41,5.78c1.38,0.87,2.49,2.04,3.99,2.82c1.28,0.66,2.88,1.15,4.26,1.69
	c1.4,0.54,2.74,1.14,4.27,1.49c1.51,0.34,3.07,0.77,4.55,0.95c1.21,0.15,2.43,0.2,3.64,0.33c1.27,0.13,2.58,0.45,3.84,0.49
	c1.09,0.03,2.68-0.06,3.79-0.18c1.36-0.14,2.57,0.04,3.97-0.03c8.19-0.4,16.28-1.97,24.42-2.92c7.61-0.88,14,0.19,21.26,1.3
	c5.98,0.92,11.59,2.73,17.03,4.69c2.21,0.8,4.42,1.6,6.75,2.21c2.63,0.69,5.95,1.73,8.85,1.4c0.41-0.04,0.75-0.15,1.05-0.3
	c1.18,0.2,2.43,0.29,3.54,0.66c2.4,0.79,3.53,2.43,4.55,4.23c1.64,2.9,3.64,5,8.1,5.21c0.21,0.01,0.43,0.01,0.65,0.01
	c0.07,0,0.15-0.01,0.22-0.01c0.15-0.01,0.3-0.01,0.46-0.02c0.09-0.01,0.18-0.02,0.26-0.03c0.14-0.01,0.28-0.03,0.42-0.05
	c0.09-0.01,0.19-0.03,0.29-0.05c0.13-0.02,0.27-0.04,0.41-0.06c0.1-0.02,0.2-0.04,0.3-0.06c0.13-0.03,0.27-0.05,0.4-0.09
	c0.1-0.02,0.21-0.05,0.32-0.08c0.13-0.03,0.26-0.07,0.39-0.1c0.11-0.03,0.21-0.06,0.32-0.09c0.13-0.04,0.26-0.08,0.38-0.12
	c0.11-0.04,0.22-0.08,0.33-0.11c0.12-0.04,0.25-0.09,0.37-0.13c0.11-0.04,0.22-0.08,0.33-0.13c0.12-0.05,0.24-0.09,0.36-0.14
	c0.11-0.05,0.22-0.09,0.33-0.14c0.12-0.05,0.23-0.1,0.35-0.16c0.11-0.05,0.22-0.1,0.33-0.16c0.11-0.06,0.22-0.11,0.33-0.17
	c0.11-0.06,0.22-0.11,0.33-0.17c0.11-0.06,0.21-0.11,0.31-0.17c0.11-0.06,0.22-0.13,0.32-0.19c0.1-0.06,0.2-0.12,0.29-0.18
	c0.11-0.07,0.21-0.14,0.31-0.21c0.09-0.06,0.18-0.12,0.27-0.18c0.1-0.07,0.21-0.14,0.31-0.22c0.08-0.06,0.16-0.12,0.25-0.18
	c0.1-0.08,0.2-0.15,0.3-0.23c0.07-0.06,0.15-0.12,0.22-0.19c0.1-0.08,0.19-0.17,0.28-0.25c0.07-0.06,0.13-0.12,0.2-0.18
	c0.09-0.09,0.18-0.17,0.27-0.26c0.06-0.06,0.12-0.12,0.17-0.18c0.08-0.09,0.17-0.19,0.25-0.28c0.05-0.06,0.1-0.12,0.14-0.18
	c0.08-0.1,0.16-0.19,0.23-0.29c0.04-0.06,0.08-0.12,0.12-0.17c0.07-0.1,0.14-0.21,0.2-0.31c0.03-0.05,0.06-0.11,0.09-0.16
	c0.06-0.11,0.12-0.21,0.17-0.32c0.02-0.05,0.04-0.1,0.06-0.15c0.05-0.11,0.1-0.23,0.14-0.34c0.01-0.04,0.02-0.09,0.04-0.13
	c0.04-0.12,0.08-0.24,0.1-0.36c0.01-0.03,0.01-0.07,0.01-0.1c0.02-0.13,0.05-0.26,0.06-0.4c0-0.01,0-0.02,0-0.04
	c0.05-0.78-0.17-1.55-0.7-2.3c-0.02-0.04-0.04-0.07-0.07-0.1c-0.08-0.11-0.18-0.22-0.28-0.33c-0.04-0.05-0.09-0.1-0.13-0.15
	c-0.1-0.1-0.21-0.2-0.31-0.3c-0.06-0.05-0.1-0.1-0.16-0.15c0,0,0,0,0,0.01c-0.22-0.19-0.45-0.37-0.71-0.55
	c0.99,0.68,2.48,0.66,3.94,0.44c-0.01,0-0.02,0.01-0.03,0.01c0.05-0.01,0.11-0.02,0.16-0.03c0.17-0.03,0.32-0.05,0.49-0.08
	c0.12-0.02,0.25-0.05,0.37-0.07c0.16-0.03,0.32-0.06,0.47-0.1c0.13-0.03,0.26-0.06,0.39-0.09c0.38-0.09,0.75-0.18,1.08-0.26
	c2.79-0.67,5.16-2.16,6.63-4.23c1.85-2.61,1.02-6.08-1.32-8.36H359L347.07,331.4z"/>
<g>
	<polygon class="st21" points="230.27,220.59 250,205.29 347.19,205.29 363.1,220.59 	"/>
	<g>
		<rect x="251.66" y="130.11" class="st22" width="11.58" height="107.05"/>
		<polygon class="st23" points="255.79,233.74 255.79,133.52 263.23,133.52 263.23,130.11 251.66,130.11 251.66,237.16 
			263.23,237.16 263.23,233.74 		"/>
		<polygon class="st24" points="251.66,130.11 248.35,128.08 248.35,228.97 251.66,237.16 		"/>
		<polygon class="st25" points="248.35,128.08 251.66,130.11 263.23,130.11 258.48,128.08 		"/>
		<path class="st1" d="M260.24,136.25c0,0,0.11,1.39,0.24,3.83c0.11,2.44,0.33,5.93,0.48,10.11c0.16,4.18,0.29,9.06,0.38,14.29
			c0.03,2.61,0.1,5.31,0.11,8.06c0.01,2.75,0.03,5.53,0.04,8.32c-0.01,2.79-0.03,5.58-0.04,8.32c0,2.74-0.08,5.44-0.11,8.06
			c-0.09,5.23-0.22,10.11-0.39,14.29c-0.14,4.18-0.37,7.67-0.48,10.1c-0.13,2.44-0.24,3.83-0.24,3.83c0,0-0.11-1.39-0.24-3.83
			c-0.11-2.44-0.34-5.92-0.48-10.1c-0.16-4.18-0.3-9.06-0.39-14.29c-0.03-2.61-0.11-5.31-0.11-8.06c-0.01-2.74-0.03-5.53-0.04-8.32
			c0.02-2.79,0.03-5.57,0.04-8.32c0-2.74,0.08-5.44,0.11-8.06c0.09-5.23,0.22-10.11,0.39-14.29c0.14-4.18,0.37-7.67,0.48-10.11
			C260.12,137.65,260.24,136.25,260.24,136.25z"/>
	</g>
	<g>
		<polygon class="st25" points="222.5,153.77 226,148.79 233.25,147.11 237,150.41 		"/>
		
			<rect x="234.39" y="150.71" transform="matrix(0.9742 -0.2258 0.2258 0.9742 -39.8653 59.8708)" class="st22" width="14.88" height="107.05"/>
		<polygon class="st23" points="251.07,251.44 229.37,157.77 238.23,155.72 237,150.41 222.5,153.77 246.66,258.06 261.16,254.7 
			259.93,249.39 		"/>
		<path class="st1" d="M235.81,160c0,0,0.42,1.33,1.1,3.68c0.65,2.35,1.66,5.7,2.74,9.74c1.1,4.04,2.33,8.76,3.6,13.83
			c0.62,2.54,1.3,5.15,1.93,7.83c0.63,2.67,1.28,5.38,1.92,8.09c0.61,2.72,1.23,5.44,1.84,8.11c0.62,2.67,1.16,5.32,1.71,7.88
			c1.1,5.11,2.06,9.89,2.85,14c0.81,4.11,1.37,7.55,1.82,9.95c0.42,2.41,0.63,3.79,0.63,3.79c0,0-0.42-1.33-1.1-3.68
			c-0.65-2.35-1.66-5.69-2.75-9.74c-1.1-4.04-2.33-8.76-3.6-13.83c-0.62-2.54-1.3-5.15-1.92-7.83c-0.63-2.67-1.28-5.38-1.92-8.1
			c-0.61-2.72-1.23-5.44-1.84-8.11c-0.61-2.67-1.15-5.32-1.71-7.87c-1.09-5.11-2.06-9.9-2.85-14.01c-0.81-4.1-1.37-7.55-1.82-9.95
			C236.02,161.38,235.81,160,235.81,160z"/>
	</g>
	<g>
		<polygon class="st25" points="278.85,120.44 283.27,116.25 290.71,116.05 293.73,120.03 		"/>
		
			<rect x="280.32" y="120.21" transform="matrix(0.9996 -0.0274 0.0274 0.9996 -4.6561 7.9565)" class="st22" width="14.89" height="107.05"/>
		<polygon class="st23" points="287.43,221.84 284.79,125.72 293.88,125.47 293.73,120.03 278.85,120.44 281.79,227.45 
			296.67,227.04 296.52,221.59 		"/>
		<path class="st1" d="M290.66,129.19c0,0,0.15,1.39,0.35,3.82c0.17,2.44,0.49,5.91,0.75,10.09c0.28,4.17,0.55,9.05,0.78,14.27
			c0.11,2.61,0.25,5.31,0.33,8.05c0.09,2.74,0.18,5.53,0.27,8.31c0.06,2.79,0.12,5.58,0.19,8.32c0.07,2.74,0.07,5.44,0.12,8.06
			c0.06,5.22,0.06,10.11,0.01,14.29c-0.03,4.18-0.16,7.67-0.2,10.11c-0.07,2.44-0.14,3.84-0.14,3.84s-0.15-1.39-0.35-3.83
			c-0.18-2.44-0.5-5.91-0.75-10.09c-0.28-4.18-0.55-9.05-0.78-14.27c-0.1-2.61-0.25-5.31-0.33-8.05c-0.09-2.74-0.18-5.53-0.27-8.31
			c-0.06-2.79-0.12-5.57-0.19-8.32c-0.07-2.74-0.07-5.44-0.11-8.06c-0.05-5.23-0.05-10.11-0.01-14.29c0.03-4.18,0.16-7.67,0.2-10.12
			C290.59,130.59,290.66,129.19,290.66,129.19z"/>
	</g>
	<g>
		
			<rect x="242.9" y="128.44" transform="matrix(0.9737 -0.2279 0.2279 0.9737 -34.9247 61.4601)" class="st22" width="11.58" height="107.05"/>
		<polygon class="st23" points="261.71,230.38 238.88,132.8 231.63,134.5 230.85,131.17 242.13,128.53 266.52,232.77 255.25,235.41 
			254.47,232.08 		"/>
		<polygon class="st24" points="242.13,128.53 244.89,125.8 267.88,224.04 266.52,232.77 		"/>
		<polygon class="st25" points="244.89,125.8 242.13,128.53 230.85,131.17 235.02,128.11 		"/>
		<path class="st1" d="M235.17,136.47c0,0,0.21,1.38,0.64,3.79c0.45,2.4,1.03,5.84,1.84,9.95c0.8,4.11,1.78,8.89,2.88,14
			c0.56,2.55,1.11,5.2,1.73,7.87c0.61,2.67,1.23,5.39,1.85,8.11c0.65,2.71,1.3,5.42,1.94,8.09c0.63,2.67,1.31,5.28,1.94,7.82
			c1.27,5.07,2.52,9.79,3.63,13.82c1.09,4.04,2.11,7.38,2.77,9.73c0.68,2.34,1.11,3.68,1.11,3.68c0,0-0.21-1.38-0.63-3.79
			c-0.45-2.4-1.02-5.85-1.84-9.95c-0.79-4.11-1.77-8.89-2.88-14c-0.56-2.55-1.11-5.2-1.73-7.87c-0.61-2.68-1.23-5.39-1.85-8.11
			c-0.65-2.71-1.3-5.42-1.94-8.09c-0.63-2.67-1.32-5.28-1.94-7.82c-1.28-5.07-2.52-9.79-3.63-13.82c-1.09-4.04-2.1-7.38-2.77-9.73
			C235.6,137.8,235.17,136.47,235.17,136.47z"/>
	</g>
	<g>
		<polygon class="st25" points="269.2,120.35 264.02,117.14 256.7,118.43 254.54,122.93 		"/>
		
			<rect x="263.71" y="120.83" transform="matrix(0.9849 -0.1734 0.1734 0.9849 -26.122 49.6501)" class="st22" width="14.89" height="107.05"/>
		<polygon class="st23" points="281.12,221.41 264.44,126.72 255.48,128.3 254.54,122.93 269.2,120.35 287.76,225.78 273.1,228.36 
			272.16,222.99 		"/>
		<path class="st1" d="M259.38,131.29c0,0,0.13,1.39,0.42,3.82c0.32,2.42,0.7,5.89,1.29,10.04c0.56,4.15,1.28,8.97,2.1,14.14
			c0.42,2.58,0.82,5.25,1.29,7.95c0.46,2.71,0.93,5.45,1.4,8.2c0.5,2.74,1,5.48,1.48,8.18c0.48,2.7,1.02,5.35,1.5,7.92
			c0.99,5.13,1.97,9.91,2.86,14c0.86,4.09,1.69,7.48,2.22,9.87c0.56,2.38,0.91,3.73,0.91,3.73c0,0-0.13-1.39-0.43-3.82
			c-0.31-2.42-0.69-5.89-1.28-10.03c-0.57-4.15-1.28-8.98-2.1-14.14c-0.42-2.58-0.82-5.25-1.29-7.95c-0.46-2.71-0.93-5.45-1.4-8.2
			c-0.5-2.74-1-5.48-1.49-8.19c-0.48-2.7-1.02-5.35-1.5-7.92c-0.99-5.13-1.97-9.91-2.86-14c-0.87-4.09-1.69-7.49-2.22-9.87
			C259.73,132.65,259.38,131.29,259.38,131.29z"/>
	</g>
	<g>
		<polygon class="st25" points="327.94,120.44 323.52,116.25 316.08,116.05 313.06,120.03 		"/>
		
			<rect x="265.51" y="166.29" transform="matrix(0.0275 -0.9996 0.9996 0.0275 136.5713 487.8587)" class="st22" width="107.05" height="14.89"/>
		<polygon class="st23" points="319.36,221.84 322,125.72 312.91,125.47 313.06,120.03 327.94,120.44 325,227.45 310.12,227.04 
			310.27,221.59 		"/>
		<path class="st1" d="M316.13,129.19c0,0-0.15,1.39-0.35,3.82c-0.17,2.44-0.49,5.91-0.75,10.09c-0.28,4.17-0.55,9.05-0.78,14.27
			c-0.11,2.61-0.25,5.31-0.33,8.05c-0.09,2.74-0.18,5.53-0.27,8.32c-0.06,2.79-0.12,5.57-0.19,8.32c-0.07,2.74-0.07,5.45-0.11,8.06
			c-0.06,5.23-0.06,10.11-0.01,14.29c0.03,4.18,0.16,7.67,0.2,10.11c0.07,2.44,0.14,3.84,0.14,3.84s0.15-1.39,0.35-3.83
			c0.18-2.44,0.5-5.91,0.75-10.09c0.28-4.18,0.55-9.05,0.78-14.27c0.1-2.61,0.25-5.31,0.33-8.05c0.09-2.74,0.18-5.53,0.27-8.32
			c0.06-2.78,0.12-5.57,0.19-8.32c0.07-2.74,0.07-5.44,0.11-8.06c0.05-5.23,0.05-10.11,0.01-14.29c-0.03-4.18-0.16-7.67-0.2-10.12
			C316.2,130.59,316.13,129.19,316.13,129.19z"/>
	</g>
	<g>
		<rect x="268.78" y="139.71" class="st22" width="11.58" height="107.05"/>
		<polygon class="st23" points="272.91,243.34 272.91,143.12 280.35,143.12 280.35,139.71 268.78,139.71 268.78,246.76 
			280.35,246.76 280.35,243.34 		"/>
		<polygon class="st24" points="268.78,139.71 265.47,137.68 265.47,238.57 268.78,246.76 		"/>
		<polygon class="st25" points="265.47,137.68 268.78,139.71 280.35,139.71 275.6,137.68 		"/>
		<path class="st1" d="M277.35,145.85c0,0,0.11,1.39,0.24,3.83c0.11,2.44,0.33,5.92,0.48,10.1c0.16,4.18,0.3,9.06,0.39,14.29
			c0.03,2.61,0.1,5.31,0.11,8.06c0.01,2.75,0.03,5.53,0.04,8.32c-0.02,2.79-0.03,5.57-0.04,8.32c0,2.74-0.08,5.44-0.11,8.06
			c-0.09,5.23-0.22,10.11-0.39,14.29c-0.14,4.18-0.37,7.67-0.48,10.11c-0.13,2.44-0.25,3.83-0.25,3.83s-0.11-1.39-0.24-3.83
			c-0.11-2.44-0.34-5.92-0.48-10.11c-0.16-4.18-0.3-9.06-0.39-14.29c-0.03-2.61-0.11-5.31-0.11-8.06c-0.01-2.75-0.03-5.53-0.04-8.32
			c0.02-2.79,0.03-5.57,0.04-8.32c0.01-2.74,0.08-5.44,0.11-8.06c0.09-5.23,0.22-10.11,0.39-14.29c0.14-4.18,0.37-7.66,0.48-10.1
			C277.24,147.25,277.35,145.85,277.35,145.85z"/>
	</g>
	<g>
		<polygon class="st25" points="243.62,165.52 247.61,160.92 255,160 258.39,163.67 		"/>
		
			<rect x="250.21" y="164.18" transform="matrix(0.9922 -0.1243 0.1243 0.9922 -25.0552 33.7028)" class="st22" width="14.89" height="107.05"/>
		<polygon class="st23" points="261.98,265.61 250.04,170.21 259.06,169.08 258.39,163.67 243.62,165.52 256.91,271.74 
			271.68,269.89 271,264.48 		"/>
		<path class="st1" d="M256.22,173.09c0,0,0.28,1.37,0.72,3.77c0.41,2.41,1.07,5.84,1.73,9.97c0.68,4.13,1.42,8.95,2.16,14.13
			c0.36,2.59,0.76,5.26,1.11,7.98c0.36,2.72,0.72,5.48,1.08,8.25c0.33,2.77,0.66,5.53,0.99,8.26c0.34,2.72,0.6,5.41,0.9,8.01
			c0.56,5.2,1.03,10.06,1.39,14.22c0.38,4.17,0.59,7.65,0.78,10.09c0.17,2.44,0.23,3.83,0.23,3.83s-0.29-1.37-0.72-3.77
			c-0.41-2.41-1.07-5.84-1.73-9.97c-0.68-4.13-1.42-8.95-2.16-14.13c-0.36-2.59-0.76-5.26-1.11-7.98c-0.35-2.72-0.71-5.49-1.08-8.25
			c-0.33-2.77-0.66-5.54-0.99-8.26c-0.33-2.72-0.6-5.41-0.89-8.01c-0.56-5.2-1.03-10.05-1.39-14.22c-0.38-4.17-0.59-7.65-0.78-10.09
			C256.28,174.48,256.22,173.09,256.22,173.09z"/>
	</g>
	<g>
		
			<rect x="303.25" y="188.99" transform="matrix(0.3594 -0.9332 0.9332 0.3594 46.7962 457.7195)" class="st22" width="107.05" height="11.58"/>
		<polygon class="st23" points="337.22,240.94 373.24,147.42 380.18,150.1 381.41,146.91 370.61,142.75 332.13,242.64 
			342.94,246.81 344.16,243.62 		"/>
		<polygon class="st24" points="370.61,142.75 368.25,139.66 331.99,233.82 332.13,242.64 		"/>
		<polygon class="st25" points="368.25,139.66 370.61,142.75 381.41,146.91 377.7,143.3 		"/>
		<path class="st1" d="M376.41,151.56c0,0-0.4,1.34-1.15,3.66c-0.78,2.32-1.82,5.65-3.19,9.6c-1.35,3.96-2.98,8.56-4.77,13.47
			c-0.91,2.45-1.81,5-2.79,7.56c-0.97,2.57-1.96,5.17-2.95,7.78c-1.01,2.6-2.03,5.19-3.03,7.75c-0.99,2.56-2.03,5.05-3,7.48
			c-1.96,4.85-3.84,9.35-5.49,13.19c-1.63,3.85-3.1,7.02-4.08,9.26c-1,2.23-1.6,3.49-1.61,3.49c0,0,0.4-1.34,1.15-3.66
			c0.77-2.32,1.81-5.65,3.19-9.6c1.35-3.96,2.98-8.56,4.78-13.47c0.91-2.45,1.81-5,2.79-7.56c0.97-2.57,1.96-5.17,2.95-7.78
			c1.02-2.6,2.03-5.19,3.03-7.75c0.99-2.56,2.03-5.05,3-7.48c1.96-4.84,3.84-9.35,5.49-13.2c1.63-3.85,3.1-7.02,4.08-9.26
			C375.8,152.83,376.4,151.56,376.41,151.56z"/>
	</g>
	<g>
		<polygon class="st25" points="337.63,130.22 342.8,127.01 350.13,128.3 352.29,132.8 		"/>
		
			<rect x="282.16" y="176.78" transform="matrix(0.1734 -0.9849 0.9849 0.1734 96.0452 482.8798)" class="st22" width="107.05" height="14.89"/>
		<polygon class="st23" points="325.71,231.29 342.39,136.59 351.35,138.17 352.29,132.8 337.63,130.22 319.07,235.65 
			333.73,238.23 334.67,232.86 		"/>
		<path class="st1" d="M347.45,141.16c0,0-0.13,1.39-0.42,3.82c-0.32,2.42-0.7,5.89-1.29,10.04c-0.56,4.15-1.28,8.98-2.1,14.14
			c-0.42,2.58-0.82,5.25-1.29,7.95c-0.46,2.71-0.93,5.45-1.4,8.2c-0.5,2.74-1,5.49-1.48,8.18c-0.48,2.7-1.02,5.35-1.5,7.92
			c-0.99,5.13-1.97,9.91-2.86,14c-0.86,4.09-1.69,7.49-2.22,9.87c-0.56,2.38-0.91,3.73-0.91,3.73c0,0,0.13-1.39,0.43-3.82
			c0.31-2.42,0.69-5.89,1.28-10.03c0.57-4.15,1.28-8.98,2.1-14.14c0.42-2.58,0.82-5.25,1.29-7.95c0.46-2.71,0.93-5.46,1.4-8.2
			c0.5-2.74,1-5.49,1.48-8.19c0.48-2.7,1.02-5.35,1.5-7.92c0.99-5.13,1.97-9.91,2.86-14.01c0.87-4.09,1.69-7.49,2.22-9.87
			C347.1,142.52,347.45,141.16,347.45,141.16z"/>
	</g>
	<g>
		<polygon class="st25" points="295.97,127.97 300.39,123.79 307.83,123.58 310.85,127.57 		"/>
		
			<rect x="297.44" y="127.75" transform="matrix(0.9996 -0.0275 0.0275 0.9996 -4.8681 8.4499)" class="st22" width="14.88" height="107.05"/>
		<polygon class="st23" points="304.55,229.38 301.91,133.26 311,133.01 310.85,127.57 295.97,127.97 298.91,234.98 313.79,234.57 
			313.64,229.13 		"/>
		<path class="st1" d="M307.78,136.73c0,0,0.15,1.39,0.35,3.83c0.17,2.43,0.5,5.91,0.75,10.09c0.28,4.18,0.54,9.05,0.78,14.27
			c0.11,2.61,0.25,5.31,0.33,8.05c0.09,2.74,0.18,5.53,0.27,8.31c0.06,2.79,0.13,5.57,0.19,8.32c0.07,2.74,0.07,5.45,0.11,8.06
			c0.06,5.23,0.06,10.11,0.01,14.29c-0.03,4.18-0.16,7.67-0.2,10.11c-0.07,2.44-0.14,3.84-0.14,3.84s-0.15-1.39-0.35-3.83
			c-0.18-2.44-0.5-5.91-0.75-10.09c-0.28-4.18-0.55-9.05-0.78-14.27c-0.1-2.61-0.25-5.31-0.33-8.05c-0.09-2.74-0.18-5.53-0.27-8.31
			c-0.06-2.79-0.12-5.57-0.18-8.32c-0.07-2.74-0.07-5.45-0.11-8.06c-0.05-5.23-0.05-10.11-0.01-14.29c0.03-4.19,0.16-7.67,0.2-10.12
			C307.71,138.12,307.78,136.73,307.78,136.73z"/>
	</g>
	<g>
		
			<rect x="273.24" y="197.14" transform="matrix(0.1269 -0.9919 0.9919 0.1269 84.0249 501.3093)" class="st22" width="107.05" height="11.58"/>
		<polygon class="st23" points="322.04,252.84 334.77,153.43 327.39,152.49 327.82,149.1 339.31,150.57 325.71,256.75 
			314.23,255.28 314.66,251.89 		"/>
		<polygon class="st24" points="339.31,150.57 342.84,148.98 330.03,249.05 325.71,256.75 		"/>
		<polygon class="st25" points="342.84,148.98 339.31,150.57 327.82,149.1 332.8,147.69 		"/>
		<path class="st1" d="M330.01,155.58c0,0-0.29,1.37-0.73,3.77c-0.42,2.41-1.08,5.83-1.75,9.96c-0.69,4.13-1.44,8.95-2.2,14.12
			c-0.37,2.59-0.78,5.26-1.13,7.98c-0.36,2.72-0.73,5.48-1.1,8.25c-0.34,2.77-0.68,5.53-1.01,8.26c-0.35,2.72-0.62,5.41-0.92,8
			c-0.58,5.2-1.06,10.05-1.43,14.22c-0.39,4.17-0.61,7.65-0.81,10.08c-0.18,2.44-0.24,3.83-0.24,3.83c0,0,0.29-1.37,0.73-3.77
			c0.42-2.41,1.09-5.83,1.76-9.96c0.69-4.13,1.44-8.95,2.19-14.12c0.37-2.59,0.78-5.26,1.13-7.98c0.36-2.72,0.73-5.48,1.1-8.25
			c0.34-2.77,0.68-5.54,1.01-8.26c0.34-2.72,0.62-5.41,0.92-8.01c0.57-5.2,1.06-10.05,1.43-14.22c0.39-4.17,0.61-7.65,0.81-10.08
			C329.95,156.97,330.01,155.58,330.01,155.58z"/>
	</g>
	<g>
		<polygon class="st25" points="364.08,153.1 360.09,148.51 352.7,147.58 349.32,151.25 		"/>
		
			<rect x="296.53" y="197.84" transform="matrix(0.1241 -0.9923 0.9923 0.1241 102.9092 527.152)" class="st22" width="107.05" height="14.89"/>
		<polygon class="st23" points="345.73,253.19 357.67,157.79 348.64,156.66 349.32,151.25 364.08,153.1 350.79,259.32 
			336.02,257.47 336.7,252.06 		"/>
		<path class="st1" d="M351.48,160.67c0,0-0.29,1.37-0.72,3.77c-0.41,2.41-1.07,5.84-1.73,9.97c-0.68,4.13-1.42,8.95-2.16,14.13
			c-0.36,2.59-0.76,5.26-1.11,7.98c-0.35,2.72-0.71,5.48-1.08,8.25c-0.33,2.77-0.66,5.53-0.99,8.26c-0.34,2.72-0.6,5.41-0.89,8.01
			c-0.56,5.2-1.03,10.06-1.39,14.22c-0.38,4.17-0.59,7.65-0.78,10.09c-0.17,2.44-0.23,3.83-0.23,3.83s0.28-1.37,0.72-3.77
			c0.41-2.41,1.07-5.84,1.73-9.97c0.68-4.13,1.42-8.95,2.16-14.13c0.36-2.59,0.76-5.26,1.11-7.98c0.36-2.72,0.72-5.48,1.08-8.25
			c0.33-2.77,0.66-5.54,0.99-8.26c0.33-2.72,0.6-5.41,0.89-8.01c0.56-5.2,1.04-10.06,1.39-14.22c0.38-4.17,0.59-7.65,0.78-10.09
			C351.42,162.06,351.48,160.67,351.48,160.67z"/>
	</g>
	<g>
		
			<rect x="260.92" y="130.46" transform="matrix(0.9868 -0.1617 0.1617 0.9868 -26.2396 45.5458)" class="st22" width="11.58" height="107.05"/>
		<polygon class="st23" points="276.44,233.17 260.24,134.27 252.9,135.47 252.34,132.1 263.77,130.23 281.07,235.87 269.65,237.74 
			269.1,234.37 		"/>
		<polygon class="st24" points="263.77,130.23 266.71,127.69 283.01,227.26 281.07,235.87 		"/>
		<polygon class="st25" points="266.71,127.69 263.77,130.23 252.34,132.1 256.71,129.33 		"/>
		<path class="st1" d="M256.3,137.68c0,0,0.12,1.39,0.38,3.82c0.29,2.42,0.63,5.9,1.16,10.05c0.52,4.15,1.17,8.99,1.93,14.16
			c0.39,2.58,0.76,5.26,1.2,7.97c0.43,2.71,0.87,5.46,1.3,8.22c0.46,2.75,0.93,5.5,1.39,8.2c0.44,2.71,0.95,5.36,1.41,7.93
			c0.93,5.14,1.85,9.94,2.69,14.04c0.82,4.11,1.61,7.51,2.11,9.9c0.52,2.39,0.86,3.74,0.86,3.74c0,0-0.11-1.39-0.38-3.82
			c-0.29-2.42-0.63-5.9-1.16-10.05c-0.51-4.15-1.17-8.99-1.93-14.16c-0.39-2.59-0.75-5.26-1.2-7.97c-0.43-2.71-0.87-5.46-1.3-8.22
			c-0.47-2.75-0.93-5.5-1.39-8.2c-0.45-2.71-0.96-5.36-1.41-7.93c-0.93-5.14-1.85-9.94-2.69-14.04c-0.82-4.1-1.6-7.5-2.1-9.89
			C256.63,139.04,256.3,137.68,256.3,137.68z"/>
	</g>
	<g>
		<polygon class="st25" points="292.98,144.65 288.28,140.78 280.84,141.09 278.11,145.27 		"/>
		
			<rect x="280.32" y="144.92" transform="matrix(0.9991 -0.0415 0.0415 0.9991 -7.9921 12.1206)" class="st22" width="14.89" height="107.05"/>
		<polygon class="st23" points="291.41,246.41 287.42,150.34 278.33,150.71 278.11,145.27 292.98,144.65 297.42,251.61 
			282.54,252.23 282.32,246.78 		"/>
		<path class="st1" d="M281.8,154.2c0,0-0.05,1.39-0.08,3.84c-0.01,2.44-0.09,5.93-0.05,10.12c0.01,4.19,0.08,9.07,0.21,14.29
			c0.08,2.61,0.12,5.32,0.22,8.06c0.1,2.74,0.2,5.53,0.3,8.31c0.13,2.78,0.26,5.57,0.39,8.31c0.12,2.74,0.3,5.44,0.44,8.05
			c0.3,5.22,0.64,10.09,0.98,14.26c0.31,4.17,0.69,7.64,0.89,10.08c0.23,2.43,0.4,3.82,0.41,3.82c0,0,0.05-1.4,0.08-3.84
			c0.01-2.44,0.09-5.93,0.06-10.12c-0.01-4.18-0.08-9.06-0.2-14.29c-0.08-2.61-0.12-5.31-0.23-8.06c-0.1-2.74-0.2-5.53-0.3-8.31
			c-0.13-2.78-0.26-5.57-0.39-8.31c-0.12-2.74-0.3-5.44-0.44-8.05c-0.31-5.22-0.64-10.09-0.98-14.26c-0.32-4.17-0.69-7.64-0.9-10.08
			C281.97,155.59,281.8,154.2,281.8,154.2z"/>
	</g>
	<polygon class="st26" points="297.07,220.59 296.31,220.59 230.27,220.59 249.31,331.4 296.31,331.4 297.07,331.4 344.07,331.4 
		363.1,220.59 	"/>
	<polygon class="st26" points="297.07,220.59 296.31,220.59 230.27,220.59 249.31,331.4 296.31,331.4 297.07,331.4 344.07,331.4 
		363.1,220.59 	"/>
	<path class="st27" d="M320.17,243.4c-4.04,1.21-7.84,2.92-11.12,5.53c-4.78,3.79-7.71,9.16-8.96,15.09
		c-1.35,6.43-1.62,13.29,0.2,19.66c2.36,8.23,7.93,14.49,16.02,17.41c5.44,1.97,11.26,3.07,17,3.66c3.92,0.4,8.77,0.69,13.59,0.3
		l14.17-58.95L320.17,243.4z"/>
	<path class="st3" d="M332.43,325.93c-10.35,0.35-20.8-0.37-30.99-2.25c-10.19-1.88-20.3-5.02-27.96-12.36
		c-9.33-8.94-14.1-21.51-15.15-34.23c-1.06-12.78,0.31-27.26,7.51-38.24c5.78-8.82,14.14-14.4,23.53-18.27h-59.09l19.03,110.82
		h94.76l1.13-6.6C340.79,325.46,336.42,325.79,332.43,325.93z"/>
	<path class="st3" d="M263.66,325.34c-11.16-10.29-15.84-25.34-18.29-39.92c-2.33-13.85-2.8-27.9,1.49-41.44
		c2.77-8.73,7.18-16.86,13.37-23.39h-29.97l19.03,110.82h22.65C269.01,329.68,266.22,327.69,263.66,325.34z"/>
	<g>
		<path class="st1" d="M331.31,313.33c0-0.01-0.01-0.01-0.01-0.02c-0.02-0.02-0.04-0.03-0.06-0.05
			C331.26,313.28,331.28,313.3,331.31,313.33z"/>
		<path class="st1" d="M349.49,232.53c-0.32-0.89-1.63-0.81-1.92,0.05c-1.85,5.64-2.13,12.05-3.25,17.86
			c-1.89,9.79-3.97,19.56-6.1,29.31c-1.84,8.41-3.76,16.83-6.09,25.14c-0.57,2.03-2.1,4.75-1.7,6.84c0.11,0.54,0.42,1.18,0.87,1.56
			c0.15,0.12,0.28,0.22,0.36,0.26c3.98,2.43,5.53-6.46,5.99-8.21c2.23-8.5,3.97-17.11,5.69-25.71c1.95-9.76,3.68-19.54,5.07-29.38
			C349.14,245.1,351.33,237.65,349.49,232.53z"/>
		<path class="st1" d="M331.23,313.26C330.16,312.36,330.73,312.86,331.23,313.26L331.23,313.26z"/>
		<path class="st1" d="M330.84,317.94c-0.04-0.02-0.08-0.03-0.12-0.05c0.71,0.48,0.64,0.43-0.21-0.14
			c-0.82-0.41-1.76-0.47-2.65-0.22c-1.51,0.43-2.16,1.6-2.3,2.96c0,0.03-0.01,0.05-0.01,0.07c-0.13,1.32,1.22,2.64,2.53,2.91
			c0.42,0.08,0.85,0.13,1.27,0.1c1.45-0.11,2.7-0.94,3.06-2.29C332.76,320.06,332.15,318.48,330.84,317.94z"/>
	</g>
</g>
<g>
	<path class="st28" d="M282.21,331.58c7.22,4.66,8.62,4.89,13.27,3.8c5.53-1.3,9.68-1.37,14.76,2.34c4,2.92,5.55,9.76,2.63,13.77
		c-1.75,2.39-4.3,3.87-7.16,4.23c-2.03,0.26-5.28,0.79-6.81-1.01c6.43,7.59-5.31,14.88-12.18,13.2c-4.38-1.08-6.07-4.13-7.29-8.15
		c-0.76-2.49-1.64-4.81-3.91-6.26c-1.89-1.2-4.3-1.34-5.88-3.06L282.21,331.58z"/>
	<path class="st27" d="M297.56,337.45c-2.29-0.03-4.6,0.38-6.77,1.12c-4.28,1.44-7.12,4.59-6.82,9.3c0.16,2.53,1.22,5.56,3.78,6.59
		c1.03,0.42,2.4,0.67,3.47,0.25c0.86-0.34,1.39-1.07,1.73-1.9c0.72-1.75,0.79-3.74,1.72-5.41c0.39-0.69,0.92-1.33,1.65-1.67
		c0.79-0.37,1.72-0.43,2.57-0.46c1.08-0.04,2.15-0.01,3.22-0.07c0.88-0.05,1.95-0.09,2.71-0.62c1.79-1.26-0.09-4.22-1.29-5.23
		C301.88,337.95,299.66,337.48,297.56,337.45z"/>
	<path class="st29" d="M310.23,337.72c-5.08-3.71-9.23-3.64-14.76-2.34c-0.31,0.07-0.6,0.14-0.88,0.2c2.83,0.24,5.86,0,8.43,1.34
		c2.01,1.04,3.84,2.67,4.97,4.65c0.87,1.53,1.46,3.6,0.27,5.14c-1.29,1.66-3.71,2.22-5.71,1.92c-1.69-0.26-3.56-1.23-4.88,0.37
		c-1.58,1.91-1.91,4.25-2.14,6.62c-0.16,1.65-0.54,3.34-2.22,4.05c-2.09,0.89-4.56,0.6-6.44-0.63c-1.97-1.29-3.46-3.25-4.53-5.33
		c-1.09-2.11-1.89-4.45-2.1-6.83c-0.21-2.48,0.31-5.01,1.87-7c1.65-2.12,4-3.49,6.35-4.71c-1.57-0.66-3.49-1.79-6.28-3.59
		l-12.58,18.84c1.58,1.72,4,1.86,5.88,3.06c2.27,1.45,3.15,3.77,3.91,6.26c1.22,4.02,2.91,7.08,7.29,8.15
		c6.87,1.68,18.61-5.61,12.18-13.2c1.53,1.81,4.78,1.27,6.81,1.01c2.86-0.36,5.41-1.83,7.16-4.23
		C315.79,347.48,314.23,340.64,310.23,337.72z"/>
	<path class="st29" d="M310.23,337.72c-4.47-3.26-8.21-3.6-12.81-2.76c2.3,0.38,4.62,0.6,6.87,1.24c2,0.57,3.97,1.51,5.25,3.22
		c1.55,2.06,2.1,4.92,1.86,7.45c-0.24,2.47-1.28,4.83-3.16,6.49c-1.58,1.4-3.51,2.24-5.55,2.63c1.07-0.01,2.15-0.17,3-0.28
		c2.86-0.36,5.41-1.83,7.16-4.23C315.79,347.48,314.23,340.64,310.23,337.72z"/>
	<path class="st29" d="M298.25,360.92c-1.27,1.81-3.29,3.11-5.38,3.77c-2.1,0.66-4.41,0.8-6.47-0.06c-2.08-0.87-3.72-2.53-4.94-4.4
		c-1.38-2.11-2.35-4.47-3.07-6.88c-0.66-2.2-1.33-4.6-1.44-6.92c-0.13-2.77,0.84-5.56,2.84-7.53c1.89-1.86,4.78-2.77,6.38-4.89
		c-1.11-0.62-2.4-1.42-3.96-2.43l-12.58,18.84c1.58,1.72,4,1.86,5.88,3.06c2.27,1.45,3.15,3.77,3.91,6.26
		c1.22,4.02,2.91,7.08,7.29,8.15c6.62,1.62,17.76-5.09,12.81-12.37C299.8,357.43,299.38,359.31,298.25,360.92z"/>
	<path class="st30" d="M151.82,257.21"/>
	<path class="st31" d="M284.8,331.07c-3.4-4.15-9.23-6.53-13.27-10.08c-3.71-3.26-7.25-7.01-9.32-11.55
		c-2.28-5.03-3.09-10.79-4.3-16.14c-3.33-14.71-6.64-30.42-14.51-43.49c-2.19-3.65-4.76-7.02-7.69-10.1
		c-2.09-2.19-3.79-4.12-6.37-5.73c-7.7-4.79-15.74-7.77-24.83-8.32c-4.89-0.3-9.53,0.87-14.23,2.28c-2.42,0.73-4.55,1.5-6.77,2.57
		c-1.91,0.92-3.52,2.45-5.32,3.61c-1.24,0.8-2.29,1.69-3.58,2.41c-0.54,0.3-1.44,0.64-1.91,0.97c-0.38,0.26-0.34,0.57-0.75,0.8
		c-2.96,1.72-6.14,3.96-9.14,6.52c-4.29,3.67-8.21,7.99-10.56,12.36c-0.53,0.99-1.19,1.96-1.56,3.03c-0.37,1.06-0.4,2.09-0.9,3.11
		c-0.91,1.86-1.97,3.93-2.25,6.01c-0.68,5.01,0.53,10.06,1.17,15.01c0.53,4.14,1.88,8.04,3.09,12.06c0.52,1.72,0.89,2.93,1.98,4.35
		c1.07,1.39,2.21,2.84,3.18,4.29c2.07,3.09,4.03,6.02,6.53,8.76c1.25,1.37,2.18,3.07,3.56,4.34c1.17,1.08,2.69,2,3.98,2.94
		c1.31,0.95,2.56,1.96,4.01,2.68c1.44,0.71,2.94,1.55,4.37,2.04c1.18,0.41,2.38,0.7,3.56,1.08c1.24,0.4,2.48,1.05,3.74,1.32
		c1.07,0.23,2.66,0.42,3.78,0.46c1.37,0.06,2.54,0.51,3.93,0.68c8.17,0.97,16.39,0.43,24.59,0.7c7.65,0.25,13.83,2.78,20.87,5.54
		c5.79,2.26,11.09,5.61,16.2,9.12c2.08,1.43,4.16,2.85,6.37,4.06c2.5,1.36,5.65,3.3,8.57,3.41c2.51,0.1,3.12-2.95,3.57-4.84
		c0.86-3.62,2.07-7.77,4.96-10.32C281.37,335.41,287.6,334.5,284.8,331.07z"/>
	<path class="st31" d="M201.89,235.59c1.56-0.46,3.09-1.02,4.51-1.84c-1.92,0.15-3.8,0.59-5.61,1.29c0.01,0.02,0.02,0.04,0.02,0.06
		c0.02,0.32-1.25,0.85-1.47,0.98c-0.13,0.07-0.25,0.14-0.38,0.22C199.9,235.97,200.88,235.73,201.89,235.59z"/>
	<path class="st27" d="M241.65,269.45c-3.48-11.26-9.49-22.31-18.85-29.76c-16.61-13.23-37.38,1.07-36.43,20.79
		c0.25,5.21,1.89,10.55,5.55,14.41c3.92,4.13,9.39,6.14,14.76,7.61c2.73,0.75,5.49,1.38,8.22,2.1c6.66,1.76,12.61,5.34,17.78,9.84
		c3.71,3.24,6.18,7.63,9.47,11.25c1.63,1.8,4.78,4.98,7.16,5.51c5.51,1.21,1.08-13.58,0.57-15.42
		C247.48,286.93,244.36,278.22,241.65,269.45z"/>
	<path class="st32" d="M284.8,331.07c-3.4-4.15-9.23-6.53-13.27-10.08c-0.26-0.23-0.53-0.47-0.79-0.7
		c-0.13,0.32-0.29,0.63-0.48,0.93c-1.34,2.13-3.71,3.29-6.13,3.73c-3.95,0.72-8.23,0-11.87-1.64c-2.38-1.07-4.52-2.64-6.55-4.26
		c-2.53-2.02-4.89-4.23-7.26-6.43c-4.68-4.35-9.55-8.84-15.6-11.2c-6.72-2.62-13.83-3-20.9-3.95c-6.37-0.85-13.06-2.37-18.13-6.56
		c-4.43-3.67-7.1-8.85-8.66-14.3c-1.73-6.05-2.6-12.35-1.52-18.59c1.07-6.22,3.69-12.14,7.42-17.21c1.62-2.21,3.4-4.37,5.56-6.08
		c1.99-1.58,4.14-2.96,6.23-4.4c1.97-1.36,3.95-2.75,5.71-4.37c-2.78,0.41-5.53,1.15-8.29,1.98c-2.42,0.73-4.55,1.5-6.77,2.57
		c-1.91,0.92-3.52,2.45-5.32,3.61c-1.24,0.8-2.29,1.69-3.58,2.41c-0.54,0.3-1.44,0.64-1.91,0.97c-0.38,0.26-0.34,0.57-0.75,0.8
		c-2.96,1.72-6.14,3.96-9.14,6.52c-4.29,3.67-8.21,7.99-10.56,12.36c-0.53,0.99-1.19,1.96-1.56,3.03c-0.37,1.06-0.4,2.09-0.9,3.11
		c-0.91,1.86-1.97,3.93-2.25,6.01c-0.68,5.01,0.53,10.06,1.17,15.01c0.53,4.14,1.88,8.04,3.09,12.06c0.52,1.72,0.89,2.93,1.98,4.35
		c1.07,1.39,2.21,2.84,3.18,4.29c2.07,3.09,4.03,6.02,6.53,8.76c1.25,1.37,2.18,3.07,3.56,4.34c1.17,1.08,2.69,2,3.98,2.94
		c1.31,0.95,2.56,1.96,4.01,2.68c1.44,0.71,2.94,1.55,4.37,2.04c1.18,0.41,2.38,0.7,3.56,1.08c1.24,0.4,2.48,1.05,3.74,1.32
		c1.07,0.23,2.66,0.42,3.78,0.46c1.37,0.06,2.54,0.51,3.93,0.68c8.17,0.97,16.39,0.43,24.59,0.7c7.65,0.25,13.83,2.78,20.87,5.54
		c5.79,2.26,11.09,5.61,16.2,9.12c2.08,1.43,4.16,2.85,6.37,4.06c2.5,1.36,5.65,3.3,8.57,3.41c2.51,0.1,3.12-2.95,3.57-4.84
		c0.86-3.62,2.07-7.77,4.96-10.32C281.37,335.41,287.6,334.5,284.8,331.07z"/>
	<path class="st32" d="M278.5,325.87c-1.2,0.52-2.36,1.16-3.45,1.91c-2.49,1.73-4.61,3.87-6.82,5.92c-1.7,1.57-3.75,3.13-6.18,3.07
		c-2.59-0.07-5.01-1.51-7.19-2.76c-5.25-3.02-9.89-7.04-14.89-10.43c-5.02-3.39-10.5-6.43-16.58-7.32
		c-3.33-0.49-6.72-0.25-10.06,0.08c-3.08,0.31-6.14,0.77-9.22,1.07c-2.99,0.29-5.99,0.41-8.98,0.09c-3.26-0.34-6.46-1.23-9.46-2.53
		c-5.94-2.56-11.5-6.25-15.85-11.06c-4.48-4.95-7.53-10.9-9.77-17.16c-2.46-6.88-3.93-14.42-2.5-21.69
		c1.17-5.92,3.61-11.41,7.11-16.31c3.4-4.76,7.49-8.97,11.49-13.23c-0.49,0.34-1,0.68-1.54,0.99c-0.54,0.3-1.44,0.64-1.91,0.97
		c-0.38,0.26-0.34,0.57-0.75,0.8c-2.96,1.72-6.14,3.96-9.14,6.52c-6.33,5.41-14.1,15.88-15.27,24.52
		c-0.68,5.01,0.53,10.06,1.17,15.01c0.53,4.14,1.88,8.04,3.09,12.06c0.52,1.72,0.89,2.93,1.98,4.35c1.07,1.39,2.21,2.84,3.18,4.29
		c2.07,3.09,4.03,6.02,6.53,8.76c1.25,1.37,2.18,3.07,3.56,4.34c1.17,1.08,2.69,2,3.98,2.94c1.31,0.95,2.56,1.96,4.01,2.68
		c1.44,0.71,2.94,1.55,4.37,2.04c1.18,0.41,2.38,0.7,3.56,1.08c1.24,0.4,2.48,1.05,3.74,1.32c1.07,0.23,2.66,0.42,3.78,0.46
		c1.37,0.06,2.54,0.51,3.93,0.68c8.17,0.97,16.39,0.43,24.59,0.7c7.65,0.25,13.83,2.78,20.87,5.54c5.79,2.26,11.09,5.61,16.2,9.12
		c2.08,1.43,4.16,2.85,6.37,4.06c2.5,1.36,5.65,3.3,8.57,3.41c2.51,0.1,3.12-2.95,3.57-4.84c0.86-3.62,2.07-7.77,4.96-10.32
		c1.84-1.62,8.07-2.53,5.26-5.96C283.12,329.02,280.85,327.41,278.5,325.87z"/>
	<g>
		<path class="st27" d="M224.73,247.81c-1.57-3.39-5.3-6.92-8.95-7.93c-3.76-1.04-9.02,0.16-11.89,2.82
			c-3.56,3.3-3.71,9.81,2.59,9.93c0.97,0.02,2.26,0.09,3.2-0.19c1.37-0.41,2.35-1.98,3.76-2.12c1.38-0.14,2.62,0.95,3.6,1.75
			c0.98,0.79,1.74,1.12,3,1.25c1.64,0.17,3.76,0.05,4.79-1.44C225.69,250.66,225.31,249.06,224.73,247.81z"/>
		<path class="st27" d="M226.37,252.69c-2.36,0.71-3.74,3.27-3.03,5.64c0.71,2.36,3.27,3.74,5.64,3.03
			c2.36-0.71,3.74-3.28,3.03-5.64C231.3,253.36,228.73,251.98,226.37,252.69z"/>
	</g>
	<g>
		<g>
			<path class="st1" d="M159.77,263.41c-2.85,4.96-3.08,11.6-2.45,17.15c0.69,6.03,2.72,11.92,5.72,17.18
				c3,5.26,7.1,9.91,12.21,13.19c5.06,3.25,11.01,4.79,16.94,5.43c6.18,0.66,12.36,0.3,18.55,0.48c6.12,0.17,12.19,1.2,18.02,3.07
				c5.46,1.76,10.63,4.38,15.44,7.5c5.23,3.39,9.88,7.56,14.67,11.52c0.62,0.51,1.36-0.31,0.84-0.9
				c-7.78-8.86-18.38-15.79-29.51-19.65c-5.67-1.97-11.61-3.01-17.59-3.37c-6.33-0.38-12.67,0.17-19-0.34
				c-5.78-0.46-11.53-1.78-16.62-4.63c-5.18-2.9-9.25-7.42-12.35-12.43c-3.15-5.08-5.31-10.8-6.24-16.7
				c-0.46-2.9-0.58-5.85-0.35-8.78c0.23-2.99,1.08-5.79,1.88-8.65C159.95,263.38,159.82,263.33,159.77,263.41L159.77,263.41z"/>
		</g>
		<g>
			<path class="st1" d="M264.46,344.05c1.33-0.4,2.11-1.84,1.71-3.18c-0.4-1.33-1.85-2.11-3.18-1.71c-1.33,0.4-2.11,1.85-1.71,3.18
				C261.68,343.68,263.12,344.45,264.46,344.05L264.46,344.05z"/>
		</g>
	</g>
	<path class="st27" d="M293.04,347.88c0.54,1.79-0.49,3.69-2.3,4.23c-1.81,0.54-3.71-0.47-4.25-2.27c-0.54-1.8,0.49-3.69,2.3-4.23
		C290.59,345.06,292.5,346.08,293.04,347.88z"/>
	<path class="st27" d="M291.91,342.36c0.23,0.75-0.2,1.54-0.96,1.76c-0.75,0.22-1.54-0.2-1.77-0.94c-0.22-0.75,0.2-1.54,0.95-1.76
		C290.89,341.19,291.68,341.61,291.91,342.36z"/>
</g>
</svg>
